M48
;GenerationSoftware,Autodesk,EAGLE,9.6.2*%
;CreationDate,2021-10-04T00:00:18Z*%
FMAT,2
ICI,OFF
METRIC,TZ,000.000
T3C0.350
T2C1.016
T1C2.000
%
G90
M71
T1
X35500Y25000
X35500Y6000
X5000Y6000
X5000Y25000
T2
X34690Y10420
X34690Y12960
X34690Y15500
X34690Y18040
X34690Y20580
X5810Y20580
X5810Y18040
X5810Y15500
X5810Y12960
X5810Y10420
X11110Y6810
X13650Y6810
X16190Y6810
X18730Y6810
X21270Y6810
X23810Y6810
X26350Y6810
X28890Y6810
T3
X17720Y15024
X9500Y21520
X7450Y23910
X8720Y18910
X21900Y15190
X20900Y21850
X23943Y22103
X25990Y22140
X28220Y22180
X16450Y15027
X9471Y18113
X15231Y20320
X27000Y15399
X32850Y21980
X16740Y20670
X32441Y14500
X13795Y20060
X27930Y14500
X12902Y20260
X26831Y14490
X10862Y20130
X19610Y15320
X3550Y23000
X21500Y14170
X24670Y14470
X11631Y19281
X25817Y14497
X12724Y19164
X27150Y22460
X26670Y12093
X20580Y12099
X8430Y12123
X14534Y12093
X27500Y8500
X22500Y8500
X17500Y8500
X12500Y8500
X14030Y11130
X26220Y11180
X20110Y11230
X30040Y14500
X15174Y19411
X31080Y14500
X25181Y17853
M30