G04 EAGLE Gerber RS-274X export*
G75*
%MOMM*%
%FSLAX34Y34*%
%LPD*%
%INBottom Copper*%
%IPPOS*%
%AMOC8*
5,1,8,0,0,1.08239X$1,22.5*%
G01*
%ADD10R,1.600200X1.168400*%
%ADD11C,1.524000*%
%ADD12C,0.756400*%
%ADD13C,0.304800*%
%ADD14C,0.812800*%
%ADD15C,0.508000*%
%ADD16C,0.406400*%


D10*
X95200Y254720D03*
X95200Y239480D03*
X121600Y254820D03*
X121600Y239580D03*
X148600Y254790D03*
X148600Y239550D03*
X246200Y254720D03*
X246200Y239480D03*
X273400Y255520D03*
X273400Y240280D03*
X300000Y255120D03*
X300000Y239880D03*
D11*
X288900Y75720D02*
X288900Y60480D01*
X263500Y60480D02*
X263500Y75720D01*
X238100Y75720D02*
X238100Y60480D01*
X212700Y60480D02*
X212700Y75720D01*
X187300Y75720D02*
X187300Y60480D01*
X161900Y60480D02*
X161900Y75720D01*
X136500Y75720D02*
X136500Y60480D01*
X111100Y60480D02*
X111100Y75720D01*
X65720Y104200D02*
X50480Y104200D01*
X50480Y129600D02*
X65720Y129600D01*
X65720Y155000D02*
X50480Y155000D01*
X50480Y180400D02*
X65720Y180400D01*
X65720Y205800D02*
X50480Y205800D01*
X339280Y205800D02*
X354520Y205800D01*
X354520Y180400D02*
X339280Y180400D01*
X339280Y155000D02*
X354520Y155000D01*
X354520Y129600D02*
X339280Y129600D01*
X339280Y104200D02*
X354520Y104200D01*
D12*
X152312Y203200D03*
D13*
X155712Y199800D01*
X310800Y171600D02*
X310800Y145000D01*
D12*
X310800Y145000D03*
D13*
X282600Y199800D02*
X155712Y199800D01*
X282600Y199800D02*
X310800Y171600D01*
D12*
X151741Y194112D03*
D13*
X154934Y194112D01*
X155418Y193628D01*
X230000Y193628D01*
X276372Y193628D01*
X300400Y169600D02*
X300400Y145000D01*
D12*
X300400Y145000D03*
D13*
X300400Y169600D02*
X276372Y193628D01*
D12*
X201100Y112300D03*
X262200Y111800D03*
D14*
X59100Y130600D02*
X58100Y129600D01*
X59100Y130600D02*
X100000Y130600D01*
X160000Y130600D01*
X220000Y130600D01*
D15*
X119300Y111300D02*
X100000Y130600D01*
X160000Y130600D02*
X178300Y112300D01*
X201100Y112300D01*
X220000Y130600D02*
X238800Y111800D01*
X262200Y111800D01*
X140300Y111300D02*
X119300Y111300D01*
D12*
X140300Y111300D03*
D14*
X345900Y130600D02*
X346900Y129600D01*
X345900Y130600D02*
X220000Y130600D01*
X67300Y95000D02*
X58100Y104200D01*
X67300Y95000D02*
X135000Y95000D01*
X155000Y95000D01*
X190000Y95000D01*
X215000Y95000D01*
X240000Y95000D01*
X275000Y95000D01*
X290000Y95000D01*
X337700Y95000D01*
D12*
X125000Y85000D03*
D16*
X135000Y95000D01*
D12*
X175000Y85000D03*
D16*
X185000Y95000D01*
D13*
X190000Y95000D01*
D12*
X225000Y85000D03*
D16*
X235000Y95000D01*
D13*
X240000Y95000D01*
D16*
X280000Y85000D02*
X290000Y95000D01*
X280000Y85000D02*
X275000Y85000D01*
D12*
X275000Y85000D03*
X145338Y120930D03*
D13*
X145338Y119662D01*
X150000Y115000D01*
X150000Y100000D02*
X155000Y95000D01*
X150000Y100000D02*
X150000Y115000D01*
D12*
X84300Y121230D03*
D13*
X67270Y104200D01*
X58100Y104200D01*
D12*
X205800Y120988D03*
D13*
X205800Y119200D01*
X210000Y115000D01*
X210000Y100000D01*
X215000Y95000D01*
D12*
X266700Y120930D03*
D13*
X266700Y116959D02*
X270000Y113659D01*
X266700Y116959D02*
X266700Y120930D01*
X270000Y113659D02*
X270000Y100000D01*
X275000Y95000D01*
X95300Y254820D02*
X95200Y254720D01*
X95300Y254820D02*
X121600Y254820D01*
X148570Y254820D01*
X148600Y254790D01*
X246130Y254790D01*
X246200Y254720D01*
X247000Y255520D01*
X265000Y255520D02*
X273400Y255520D01*
X265000Y255520D02*
X247000Y255520D01*
X273800Y255120D02*
X300000Y255120D01*
X273800Y255120D02*
X273400Y255520D01*
X365988Y219912D02*
X365988Y115988D01*
X365988Y219912D02*
X357884Y228016D01*
X338884Y228016D02*
X311780Y255120D01*
X338884Y228016D02*
X357884Y228016D01*
X311780Y255120D02*
X300000Y255120D01*
X365988Y115988D02*
X354200Y104200D01*
X346900Y104200D01*
D14*
X337700Y95000D01*
D12*
X271500Y224600D03*
D13*
X270400Y224600D01*
X259300Y235700D01*
X259300Y249820D02*
X265000Y255520D01*
X259300Y249820D02*
X259300Y235700D01*
D12*
X127238Y191638D03*
D13*
X141575Y177300D01*
X257630Y144970D02*
X258170Y144970D01*
X257630Y144970D02*
X225300Y177300D01*
D12*
X258170Y144970D03*
D13*
X225300Y177300D02*
X141575Y177300D01*
D12*
X116308Y192808D03*
D13*
X116408Y192808D01*
X136488Y172728D01*
X218672Y172728D01*
D12*
X246700Y144700D03*
D13*
X218672Y172728D01*
D12*
X215000Y141700D03*
D13*
X201106Y138740D02*
X104794Y138740D01*
X88534Y155000D02*
X58100Y155000D01*
X88534Y155000D02*
X104794Y138740D01*
X201106Y138740D02*
X204066Y141700D01*
X215000Y141700D01*
X35500Y230000D02*
X35000Y229500D01*
X35000Y165000D01*
X45000Y155000D01*
X58100Y155000D01*
D12*
X35500Y230000D03*
X177200Y150242D03*
D13*
X167942Y159500D01*
X117600Y159500D01*
X104500Y172600D01*
X104500Y183400D01*
X94700Y193200D02*
X94700Y215200D01*
X95000Y215200D01*
D12*
X95000Y215200D03*
D13*
X94700Y193200D02*
X104500Y183400D01*
X95800Y214400D02*
X95000Y215200D01*
X199641Y214400D02*
X202371Y211670D01*
X199641Y214400D02*
X95800Y214400D01*
X341030Y211670D02*
X346900Y205800D01*
X341030Y211670D02*
X202371Y211670D01*
X67000Y214700D02*
X58100Y205800D01*
D12*
X74500Y239100D03*
D13*
X80000Y233600D01*
X80000Y205000D01*
X58100Y183100D01*
X58100Y180400D01*
D12*
X87200Y189100D03*
D13*
X87200Y162800D01*
X106588Y143412D01*
X199312Y143412D02*
X207800Y151900D01*
X219000Y151900D01*
D12*
X219000Y151900D03*
D13*
X199312Y143412D02*
X106588Y143412D01*
X87200Y231480D02*
X95200Y239480D01*
X87200Y231480D02*
X87200Y189100D01*
X95200Y239480D02*
X95000Y239680D01*
X95000Y255000D01*
X121600Y239580D02*
X140880Y220300D01*
X207200Y220300D02*
X209000Y218500D01*
X207200Y220300D02*
X140880Y220300D01*
D12*
X209000Y218500D03*
D13*
X121600Y239580D02*
X121600Y251600D01*
X125000Y255000D01*
D12*
X239430Y221030D03*
D13*
X152977Y239550D02*
X148600Y239550D01*
X152977Y239550D02*
X166937Y225590D01*
X234869Y225590D02*
X239430Y221030D01*
X234869Y225590D02*
X166937Y225590D01*
X148600Y239550D02*
X148600Y253400D01*
X259900Y225780D02*
X259900Y221400D01*
X259900Y225780D02*
X246200Y239480D01*
D12*
X259900Y221400D03*
D13*
X246200Y239480D02*
X246200Y253900D01*
X246400Y254100D01*
X273400Y240280D02*
X282200Y231480D01*
X282200Y221800D01*
D12*
X282200Y221800D03*
D13*
X273400Y240280D02*
X273400Y255000D01*
X273700Y255300D01*
D12*
X164500Y150274D03*
D13*
X164300Y150474D01*
X109726Y150474D01*
D12*
X94711Y181130D03*
D13*
X94711Y165489D01*
X109726Y150474D01*
D12*
X251811Y178530D03*
D13*
X270000Y160341D01*
X270000Y153988D01*
D12*
X270000Y153988D03*
X328500Y219800D03*
D13*
X308431Y239880D01*
X300000Y239880D01*
X300000Y254900D01*
X299900Y255000D01*
D12*
X167400Y206700D03*
D13*
X283300Y206700D01*
X324406Y165594D02*
X324406Y145000D01*
D12*
X324406Y145000D03*
D13*
X324406Y165594D02*
X283300Y206700D01*
D12*
X137948Y200600D03*
D13*
X137948Y197052D01*
X279400Y160600D02*
X279400Y144500D01*
X279300Y144600D01*
X279300Y145000D01*
D12*
X279300Y145000D03*
D13*
X147800Y187200D02*
X137948Y197052D01*
X147800Y187200D02*
X252800Y187200D01*
X279400Y160600D01*
D12*
X129018Y202600D03*
D13*
X129018Y199516D01*
X146434Y182100D01*
X267400Y146000D02*
X267400Y145812D01*
X268312Y144900D01*
D12*
X268312Y144900D03*
D13*
X231300Y182100D02*
X146434Y182100D01*
X231300Y182100D02*
X267400Y146000D01*
D12*
X108620Y201300D03*
D13*
X108600Y201280D01*
X108600Y186400D01*
X128400Y166600D01*
X196100Y166600D01*
D12*
X196100Y153200D03*
D13*
X200000Y162700D02*
X196100Y166600D01*
X200000Y157100D02*
X196100Y153200D01*
X200000Y157100D02*
X200000Y162700D01*
M02*
