G04 EAGLE Gerber RS-274X export*
G75*
%MOMM*%
%FSLAX34Y34*%
%LPD*%
%INSilkscreen Bottom*%
%IPPOS*%
%AMOC8*
5,1,8,0,0,1.08239X$1,22.5*%
G01*
%ADD10C,0.050800*%
%ADD11C,0.101600*%
%ADD12C,0.152400*%


D10*
X32800Y124154D02*
X34042Y125706D01*
X28454Y125706D01*
X28454Y124154D02*
X28454Y127258D01*
X32645Y132745D02*
X32718Y132743D01*
X32791Y132737D01*
X32864Y132728D01*
X32935Y132714D01*
X33007Y132697D01*
X33077Y132677D01*
X33146Y132652D01*
X33213Y132624D01*
X33279Y132593D01*
X33344Y132558D01*
X33406Y132520D01*
X33466Y132478D01*
X33524Y132434D01*
X33580Y132386D01*
X33633Y132336D01*
X33683Y132283D01*
X33731Y132227D01*
X33775Y132169D01*
X33817Y132109D01*
X33855Y132047D01*
X33890Y131982D01*
X33921Y131916D01*
X33949Y131849D01*
X33974Y131780D01*
X33994Y131710D01*
X34011Y131638D01*
X34025Y131567D01*
X34034Y131494D01*
X34040Y131421D01*
X34042Y131348D01*
X34040Y131264D01*
X34034Y131181D01*
X34025Y131098D01*
X34011Y131016D01*
X33994Y130934D01*
X33972Y130853D01*
X33947Y130773D01*
X33919Y130695D01*
X33887Y130617D01*
X33851Y130542D01*
X33812Y130468D01*
X33769Y130396D01*
X33723Y130326D01*
X33674Y130259D01*
X33621Y130193D01*
X33566Y130131D01*
X33508Y130071D01*
X33447Y130013D01*
X33384Y129959D01*
X33318Y129907D01*
X33250Y129859D01*
X33179Y129814D01*
X33107Y129772D01*
X33032Y129734D01*
X32956Y129699D01*
X32879Y129668D01*
X32800Y129640D01*
X31559Y132278D02*
X31612Y132332D01*
X31669Y132383D01*
X31728Y132431D01*
X31789Y132476D01*
X31852Y132517D01*
X31918Y132556D01*
X31985Y132591D01*
X32054Y132623D01*
X32125Y132651D01*
X32196Y132675D01*
X32269Y132696D01*
X32343Y132713D01*
X32418Y132727D01*
X32493Y132736D01*
X32569Y132742D01*
X32645Y132744D01*
X31558Y132279D02*
X28454Y129640D01*
X28454Y132745D01*
X28454Y136679D02*
X34042Y134816D01*
X34042Y138542D02*
X28454Y136679D01*
X375104Y121858D02*
X376346Y123411D01*
X370758Y123411D01*
X370758Y124963D02*
X370758Y121858D01*
X376346Y129052D02*
X376344Y129125D01*
X376338Y129198D01*
X376329Y129271D01*
X376315Y129342D01*
X376298Y129414D01*
X376278Y129484D01*
X376253Y129553D01*
X376225Y129620D01*
X376194Y129686D01*
X376159Y129751D01*
X376121Y129813D01*
X376079Y129873D01*
X376035Y129931D01*
X375987Y129987D01*
X375937Y130040D01*
X375884Y130090D01*
X375828Y130138D01*
X375770Y130182D01*
X375710Y130224D01*
X375648Y130262D01*
X375583Y130297D01*
X375517Y130328D01*
X375450Y130356D01*
X375381Y130381D01*
X375311Y130401D01*
X375239Y130418D01*
X375168Y130432D01*
X375095Y130441D01*
X375022Y130447D01*
X374949Y130449D01*
X376346Y129052D02*
X376344Y128968D01*
X376338Y128885D01*
X376329Y128802D01*
X376315Y128720D01*
X376298Y128638D01*
X376276Y128557D01*
X376251Y128477D01*
X376223Y128399D01*
X376191Y128321D01*
X376155Y128246D01*
X376116Y128172D01*
X376073Y128100D01*
X376027Y128030D01*
X375978Y127963D01*
X375925Y127897D01*
X375870Y127835D01*
X375812Y127775D01*
X375751Y127717D01*
X375688Y127663D01*
X375622Y127611D01*
X375554Y127563D01*
X375483Y127518D01*
X375411Y127476D01*
X375336Y127438D01*
X375260Y127403D01*
X375183Y127372D01*
X375104Y127344D01*
X373863Y129983D02*
X373916Y130037D01*
X373973Y130088D01*
X374032Y130136D01*
X374093Y130181D01*
X374156Y130222D01*
X374222Y130261D01*
X374289Y130296D01*
X374358Y130328D01*
X374429Y130356D01*
X374500Y130380D01*
X374573Y130401D01*
X374647Y130418D01*
X374722Y130432D01*
X374797Y130441D01*
X374873Y130447D01*
X374949Y130449D01*
X373862Y129984D02*
X370758Y127345D01*
X370758Y130449D01*
X370758Y134383D02*
X376346Y132521D01*
X376346Y136246D02*
X370758Y134383D01*
X374558Y99458D02*
X374558Y98527D01*
X374558Y99458D02*
X371454Y99458D01*
X371454Y97596D01*
X371456Y97526D01*
X371462Y97457D01*
X371472Y97388D01*
X371485Y97320D01*
X371503Y97252D01*
X371524Y97186D01*
X371549Y97121D01*
X371577Y97057D01*
X371609Y96995D01*
X371644Y96935D01*
X371683Y96877D01*
X371725Y96822D01*
X371770Y96768D01*
X371818Y96718D01*
X371868Y96670D01*
X371922Y96625D01*
X371977Y96583D01*
X372035Y96544D01*
X372095Y96509D01*
X372157Y96477D01*
X372221Y96449D01*
X372286Y96424D01*
X372352Y96403D01*
X372420Y96385D01*
X372488Y96372D01*
X372557Y96362D01*
X372626Y96356D01*
X372696Y96354D01*
X375800Y96354D01*
X375870Y96356D01*
X375939Y96362D01*
X376008Y96372D01*
X376076Y96385D01*
X376144Y96403D01*
X376210Y96424D01*
X376275Y96449D01*
X376339Y96477D01*
X376401Y96509D01*
X376461Y96544D01*
X376519Y96583D01*
X376574Y96625D01*
X376628Y96670D01*
X376678Y96718D01*
X376726Y96768D01*
X376771Y96822D01*
X376813Y96877D01*
X376852Y96935D01*
X376887Y96995D01*
X376919Y97057D01*
X376947Y97121D01*
X376972Y97186D01*
X376993Y97252D01*
X377011Y97320D01*
X377024Y97388D01*
X377034Y97457D01*
X377040Y97526D01*
X377042Y97596D01*
X377042Y99458D01*
X377042Y102206D02*
X371454Y102206D01*
X371454Y105311D02*
X377042Y102206D01*
X377042Y105311D02*
X371454Y105311D01*
X371454Y108058D02*
X377042Y108058D01*
X377042Y109610D01*
X377040Y109686D01*
X377035Y109762D01*
X377025Y109838D01*
X377012Y109913D01*
X376995Y109987D01*
X376975Y110061D01*
X376951Y110133D01*
X376924Y110204D01*
X376893Y110274D01*
X376859Y110342D01*
X376821Y110408D01*
X376780Y110472D01*
X376737Y110535D01*
X376690Y110595D01*
X376640Y110652D01*
X376587Y110707D01*
X376532Y110760D01*
X376475Y110810D01*
X376415Y110857D01*
X376352Y110900D01*
X376288Y110941D01*
X376222Y110979D01*
X376154Y111013D01*
X376084Y111044D01*
X376013Y111071D01*
X375940Y111095D01*
X375867Y111115D01*
X375793Y111132D01*
X375718Y111145D01*
X375642Y111155D01*
X375566Y111160D01*
X375490Y111162D01*
X375490Y111163D02*
X373006Y111163D01*
X373006Y111162D02*
X372927Y111160D01*
X372849Y111154D01*
X372771Y111144D01*
X372694Y111130D01*
X372617Y111112D01*
X372541Y111091D01*
X372467Y111065D01*
X372394Y111036D01*
X372323Y111003D01*
X372253Y110967D01*
X372185Y110927D01*
X372119Y110884D01*
X372056Y110837D01*
X371995Y110788D01*
X371937Y110735D01*
X371881Y110679D01*
X371828Y110621D01*
X371779Y110560D01*
X371732Y110497D01*
X371689Y110431D01*
X371649Y110363D01*
X371613Y110294D01*
X371580Y110222D01*
X371551Y110149D01*
X371525Y110075D01*
X371504Y109999D01*
X371486Y109922D01*
X371472Y109845D01*
X371462Y109767D01*
X371456Y109689D01*
X371454Y109610D01*
X371454Y108058D01*
X30662Y101142D02*
X30662Y100210D01*
X30662Y101142D02*
X27558Y101142D01*
X27558Y99279D01*
X27560Y99209D01*
X27566Y99140D01*
X27576Y99071D01*
X27589Y99003D01*
X27607Y98935D01*
X27628Y98869D01*
X27653Y98804D01*
X27681Y98740D01*
X27713Y98678D01*
X27748Y98618D01*
X27787Y98560D01*
X27829Y98505D01*
X27874Y98451D01*
X27922Y98401D01*
X27972Y98353D01*
X28026Y98308D01*
X28081Y98266D01*
X28139Y98227D01*
X28199Y98192D01*
X28261Y98160D01*
X28325Y98132D01*
X28390Y98107D01*
X28456Y98086D01*
X28524Y98068D01*
X28592Y98055D01*
X28661Y98045D01*
X28730Y98039D01*
X28800Y98037D01*
X31904Y98037D01*
X31974Y98039D01*
X32043Y98045D01*
X32112Y98055D01*
X32180Y98068D01*
X32248Y98086D01*
X32314Y98107D01*
X32379Y98132D01*
X32443Y98160D01*
X32505Y98192D01*
X32565Y98227D01*
X32623Y98266D01*
X32678Y98308D01*
X32732Y98353D01*
X32782Y98401D01*
X32830Y98451D01*
X32875Y98505D01*
X32917Y98560D01*
X32956Y98618D01*
X32991Y98678D01*
X33023Y98740D01*
X33051Y98804D01*
X33076Y98869D01*
X33097Y98935D01*
X33115Y99003D01*
X33128Y99071D01*
X33138Y99140D01*
X33144Y99209D01*
X33146Y99279D01*
X33146Y101142D01*
X33146Y103889D02*
X27558Y103889D01*
X27558Y106994D02*
X33146Y103889D01*
X33146Y106994D02*
X27558Y106994D01*
X27558Y109742D02*
X33146Y109742D01*
X33146Y111294D01*
X33144Y111370D01*
X33139Y111446D01*
X33129Y111522D01*
X33116Y111597D01*
X33099Y111671D01*
X33079Y111745D01*
X33055Y111817D01*
X33028Y111888D01*
X32997Y111958D01*
X32963Y112026D01*
X32925Y112092D01*
X32884Y112156D01*
X32841Y112219D01*
X32794Y112279D01*
X32744Y112336D01*
X32691Y112391D01*
X32636Y112444D01*
X32579Y112494D01*
X32519Y112541D01*
X32456Y112584D01*
X32392Y112625D01*
X32326Y112663D01*
X32258Y112697D01*
X32188Y112728D01*
X32117Y112755D01*
X32044Y112779D01*
X31971Y112799D01*
X31897Y112816D01*
X31822Y112829D01*
X31746Y112839D01*
X31670Y112844D01*
X31594Y112846D01*
X29110Y112846D01*
X29031Y112844D01*
X28953Y112838D01*
X28875Y112828D01*
X28798Y112814D01*
X28721Y112796D01*
X28645Y112775D01*
X28571Y112749D01*
X28498Y112720D01*
X28427Y112687D01*
X28357Y112651D01*
X28289Y112611D01*
X28223Y112568D01*
X28160Y112521D01*
X28099Y112472D01*
X28041Y112419D01*
X27985Y112363D01*
X27932Y112305D01*
X27883Y112244D01*
X27836Y112181D01*
X27793Y112115D01*
X27753Y112047D01*
X27717Y111978D01*
X27684Y111906D01*
X27655Y111833D01*
X27629Y111759D01*
X27608Y111683D01*
X27590Y111606D01*
X27576Y111529D01*
X27566Y111451D01*
X27560Y111373D01*
X27558Y111294D01*
X27558Y109742D01*
X27954Y150254D02*
X27954Y152117D01*
X27956Y152187D01*
X27962Y152256D01*
X27972Y152325D01*
X27985Y152393D01*
X28003Y152461D01*
X28024Y152527D01*
X28049Y152592D01*
X28077Y152656D01*
X28109Y152718D01*
X28144Y152778D01*
X28183Y152836D01*
X28225Y152891D01*
X28270Y152945D01*
X28318Y152995D01*
X28368Y153043D01*
X28422Y153088D01*
X28477Y153130D01*
X28535Y153169D01*
X28595Y153204D01*
X28657Y153236D01*
X28721Y153264D01*
X28786Y153289D01*
X28852Y153310D01*
X28920Y153328D01*
X28988Y153341D01*
X29057Y153351D01*
X29126Y153357D01*
X29196Y153359D01*
X29196Y153358D02*
X29817Y153358D01*
X29817Y153359D02*
X29887Y153357D01*
X29956Y153351D01*
X30025Y153341D01*
X30093Y153328D01*
X30161Y153310D01*
X30227Y153289D01*
X30292Y153264D01*
X30356Y153236D01*
X30418Y153204D01*
X30478Y153169D01*
X30536Y153130D01*
X30591Y153088D01*
X30645Y153043D01*
X30695Y152995D01*
X30743Y152945D01*
X30788Y152891D01*
X30830Y152836D01*
X30869Y152778D01*
X30904Y152718D01*
X30936Y152656D01*
X30964Y152592D01*
X30989Y152527D01*
X31010Y152461D01*
X31028Y152393D01*
X31041Y152325D01*
X31051Y152256D01*
X31057Y152187D01*
X31059Y152117D01*
X31058Y152117D02*
X31058Y150254D01*
X33542Y150254D01*
X33542Y153358D01*
X33542Y155430D02*
X27954Y157293D01*
X33542Y159155D01*
X370758Y153007D02*
X370758Y151145D01*
X370758Y153007D02*
X370760Y153077D01*
X370766Y153146D01*
X370776Y153215D01*
X370789Y153283D01*
X370807Y153351D01*
X370828Y153417D01*
X370853Y153482D01*
X370881Y153546D01*
X370913Y153608D01*
X370948Y153668D01*
X370987Y153726D01*
X371029Y153781D01*
X371074Y153835D01*
X371122Y153885D01*
X371172Y153933D01*
X371226Y153978D01*
X371281Y154020D01*
X371339Y154059D01*
X371399Y154094D01*
X371461Y154126D01*
X371525Y154154D01*
X371590Y154179D01*
X371656Y154200D01*
X371724Y154218D01*
X371792Y154231D01*
X371861Y154241D01*
X371930Y154247D01*
X372000Y154249D01*
X372621Y154249D01*
X372691Y154247D01*
X372760Y154241D01*
X372829Y154231D01*
X372897Y154218D01*
X372965Y154200D01*
X373031Y154179D01*
X373096Y154154D01*
X373160Y154126D01*
X373222Y154094D01*
X373282Y154059D01*
X373340Y154020D01*
X373395Y153978D01*
X373449Y153933D01*
X373499Y153885D01*
X373547Y153835D01*
X373592Y153781D01*
X373634Y153726D01*
X373673Y153668D01*
X373708Y153608D01*
X373740Y153546D01*
X373768Y153482D01*
X373793Y153417D01*
X373814Y153351D01*
X373832Y153283D01*
X373845Y153215D01*
X373855Y153146D01*
X373861Y153077D01*
X373863Y153007D01*
X373862Y153007D02*
X373862Y151145D01*
X376346Y151145D01*
X376346Y154249D01*
X376346Y156321D02*
X370758Y158183D01*
X376346Y160046D01*
X371454Y175117D02*
X371456Y175187D01*
X371462Y175256D01*
X371472Y175325D01*
X371485Y175393D01*
X371503Y175461D01*
X371524Y175527D01*
X371549Y175592D01*
X371577Y175656D01*
X371609Y175718D01*
X371644Y175778D01*
X371683Y175836D01*
X371725Y175891D01*
X371770Y175945D01*
X371818Y175995D01*
X371868Y176043D01*
X371922Y176088D01*
X371977Y176130D01*
X372035Y176169D01*
X372095Y176204D01*
X372157Y176236D01*
X372221Y176264D01*
X372286Y176289D01*
X372352Y176310D01*
X372420Y176328D01*
X372488Y176341D01*
X372557Y176351D01*
X372626Y176357D01*
X372696Y176359D01*
X371454Y175117D02*
X371456Y175018D01*
X371461Y174920D01*
X371471Y174822D01*
X371484Y174724D01*
X371500Y174627D01*
X371520Y174530D01*
X371544Y174435D01*
X371572Y174340D01*
X371603Y174246D01*
X371637Y174154D01*
X371675Y174063D01*
X371716Y173973D01*
X371761Y173885D01*
X371809Y173799D01*
X371860Y173715D01*
X371914Y173633D01*
X371972Y173552D01*
X372032Y173474D01*
X372095Y173399D01*
X372161Y173325D01*
X372230Y173255D01*
X375800Y173409D02*
X375870Y173411D01*
X375939Y173417D01*
X376008Y173427D01*
X376076Y173440D01*
X376144Y173458D01*
X376210Y173479D01*
X376275Y173504D01*
X376339Y173532D01*
X376401Y173564D01*
X376461Y173599D01*
X376519Y173638D01*
X376574Y173680D01*
X376628Y173725D01*
X376678Y173773D01*
X376726Y173823D01*
X376771Y173877D01*
X376813Y173932D01*
X376852Y173990D01*
X376887Y174050D01*
X376919Y174112D01*
X376947Y174176D01*
X376972Y174241D01*
X376993Y174307D01*
X377011Y174375D01*
X377024Y174443D01*
X377034Y174512D01*
X377040Y174581D01*
X377042Y174651D01*
X377040Y174745D01*
X377034Y174838D01*
X377025Y174931D01*
X377012Y175024D01*
X376995Y175116D01*
X376975Y175207D01*
X376950Y175298D01*
X376923Y175387D01*
X376891Y175475D01*
X376856Y175562D01*
X376818Y175648D01*
X376776Y175731D01*
X376731Y175813D01*
X376683Y175894D01*
X376631Y175972D01*
X376576Y176048D01*
X374714Y174030D02*
X374750Y173971D01*
X374790Y173915D01*
X374833Y173861D01*
X374878Y173809D01*
X374927Y173760D01*
X374978Y173714D01*
X375031Y173671D01*
X375087Y173630D01*
X375145Y173593D01*
X375205Y173558D01*
X375266Y173528D01*
X375329Y173500D01*
X375394Y173476D01*
X375460Y173456D01*
X375527Y173439D01*
X375594Y173426D01*
X375662Y173417D01*
X375731Y173411D01*
X375800Y173409D01*
X373782Y175737D02*
X373746Y175796D01*
X373706Y175852D01*
X373663Y175906D01*
X373618Y175958D01*
X373569Y176007D01*
X373518Y176053D01*
X373465Y176096D01*
X373409Y176137D01*
X373351Y176174D01*
X373291Y176209D01*
X373230Y176239D01*
X373167Y176267D01*
X373102Y176291D01*
X373036Y176311D01*
X372969Y176328D01*
X372902Y176341D01*
X372834Y176350D01*
X372765Y176356D01*
X372696Y176358D01*
X373782Y175738D02*
X374714Y174030D01*
X371454Y179783D02*
X371454Y181025D01*
X371454Y179783D02*
X371456Y179713D01*
X371462Y179644D01*
X371472Y179575D01*
X371485Y179507D01*
X371503Y179439D01*
X371524Y179373D01*
X371549Y179308D01*
X371577Y179244D01*
X371609Y179182D01*
X371644Y179122D01*
X371683Y179064D01*
X371725Y179009D01*
X371770Y178955D01*
X371818Y178905D01*
X371868Y178857D01*
X371922Y178812D01*
X371977Y178770D01*
X372035Y178731D01*
X372095Y178696D01*
X372157Y178664D01*
X372221Y178636D01*
X372286Y178611D01*
X372352Y178590D01*
X372420Y178572D01*
X372488Y178559D01*
X372557Y178549D01*
X372626Y178543D01*
X372696Y178541D01*
X375800Y178541D01*
X375870Y178543D01*
X375939Y178549D01*
X376008Y178559D01*
X376076Y178572D01*
X376144Y178590D01*
X376210Y178611D01*
X376275Y178636D01*
X376339Y178664D01*
X376401Y178696D01*
X376461Y178731D01*
X376519Y178770D01*
X376574Y178812D01*
X376628Y178857D01*
X376678Y178905D01*
X376726Y178955D01*
X376771Y179009D01*
X376813Y179064D01*
X376852Y179122D01*
X376887Y179182D01*
X376919Y179244D01*
X376947Y179308D01*
X376972Y179373D01*
X376993Y179439D01*
X377011Y179507D01*
X377024Y179575D01*
X377034Y179644D01*
X377040Y179713D01*
X377042Y179783D01*
X377042Y181025D01*
X377042Y183323D02*
X371454Y183323D01*
X371454Y185807D01*
X29500Y178798D02*
X29430Y178796D01*
X29361Y178790D01*
X29292Y178780D01*
X29224Y178767D01*
X29156Y178749D01*
X29090Y178728D01*
X29025Y178703D01*
X28961Y178675D01*
X28899Y178643D01*
X28839Y178608D01*
X28781Y178569D01*
X28726Y178527D01*
X28672Y178482D01*
X28622Y178434D01*
X28574Y178384D01*
X28529Y178330D01*
X28487Y178275D01*
X28448Y178217D01*
X28413Y178157D01*
X28381Y178095D01*
X28353Y178031D01*
X28328Y177966D01*
X28307Y177900D01*
X28289Y177832D01*
X28276Y177764D01*
X28266Y177695D01*
X28260Y177626D01*
X28258Y177556D01*
X28260Y177457D01*
X28265Y177359D01*
X28275Y177261D01*
X28288Y177163D01*
X28304Y177066D01*
X28324Y176969D01*
X28348Y176874D01*
X28376Y176779D01*
X28407Y176685D01*
X28441Y176593D01*
X28479Y176502D01*
X28520Y176412D01*
X28565Y176324D01*
X28613Y176238D01*
X28664Y176154D01*
X28718Y176072D01*
X28776Y175991D01*
X28836Y175913D01*
X28899Y175838D01*
X28965Y175764D01*
X29034Y175694D01*
X32604Y175848D02*
X32674Y175850D01*
X32743Y175856D01*
X32812Y175866D01*
X32880Y175879D01*
X32948Y175897D01*
X33014Y175918D01*
X33079Y175943D01*
X33143Y175971D01*
X33205Y176003D01*
X33265Y176038D01*
X33323Y176077D01*
X33378Y176119D01*
X33432Y176164D01*
X33482Y176212D01*
X33530Y176262D01*
X33575Y176316D01*
X33617Y176371D01*
X33656Y176429D01*
X33691Y176489D01*
X33723Y176551D01*
X33751Y176615D01*
X33776Y176680D01*
X33797Y176746D01*
X33815Y176814D01*
X33828Y176882D01*
X33838Y176951D01*
X33844Y177020D01*
X33846Y177090D01*
X33844Y177184D01*
X33838Y177277D01*
X33829Y177370D01*
X33816Y177463D01*
X33799Y177555D01*
X33779Y177646D01*
X33754Y177737D01*
X33727Y177826D01*
X33695Y177914D01*
X33660Y178001D01*
X33622Y178087D01*
X33580Y178170D01*
X33535Y178252D01*
X33487Y178333D01*
X33435Y178411D01*
X33380Y178487D01*
X31518Y176470D02*
X31554Y176411D01*
X31594Y176355D01*
X31637Y176301D01*
X31682Y176249D01*
X31731Y176200D01*
X31782Y176154D01*
X31835Y176111D01*
X31891Y176070D01*
X31949Y176033D01*
X32009Y175998D01*
X32070Y175968D01*
X32133Y175940D01*
X32198Y175916D01*
X32264Y175896D01*
X32331Y175879D01*
X32398Y175866D01*
X32466Y175857D01*
X32535Y175851D01*
X32604Y175849D01*
X30586Y178176D02*
X30550Y178235D01*
X30510Y178291D01*
X30467Y178345D01*
X30422Y178397D01*
X30373Y178446D01*
X30322Y178492D01*
X30269Y178535D01*
X30213Y178576D01*
X30155Y178613D01*
X30095Y178648D01*
X30034Y178678D01*
X29971Y178706D01*
X29906Y178730D01*
X29840Y178750D01*
X29773Y178767D01*
X29706Y178780D01*
X29638Y178789D01*
X29569Y178795D01*
X29500Y178797D01*
X30586Y178177D02*
X31518Y176469D01*
X28258Y182222D02*
X28258Y183464D01*
X28258Y182222D02*
X28260Y182152D01*
X28266Y182083D01*
X28276Y182014D01*
X28289Y181946D01*
X28307Y181878D01*
X28328Y181812D01*
X28353Y181747D01*
X28381Y181683D01*
X28413Y181621D01*
X28448Y181561D01*
X28487Y181503D01*
X28529Y181448D01*
X28574Y181394D01*
X28622Y181344D01*
X28672Y181296D01*
X28726Y181251D01*
X28781Y181209D01*
X28839Y181170D01*
X28899Y181135D01*
X28961Y181103D01*
X29025Y181075D01*
X29090Y181050D01*
X29156Y181029D01*
X29224Y181011D01*
X29292Y180998D01*
X29361Y180988D01*
X29430Y180982D01*
X29500Y180980D01*
X32604Y180980D01*
X32674Y180982D01*
X32743Y180988D01*
X32812Y180998D01*
X32880Y181011D01*
X32948Y181029D01*
X33014Y181050D01*
X33079Y181075D01*
X33143Y181103D01*
X33205Y181135D01*
X33265Y181170D01*
X33323Y181209D01*
X33378Y181251D01*
X33432Y181296D01*
X33482Y181344D01*
X33530Y181394D01*
X33575Y181448D01*
X33617Y181503D01*
X33656Y181561D01*
X33691Y181621D01*
X33723Y181683D01*
X33751Y181747D01*
X33776Y181812D01*
X33797Y181878D01*
X33815Y181946D01*
X33828Y182014D01*
X33838Y182083D01*
X33844Y182152D01*
X33846Y182222D01*
X33846Y183464D01*
X33846Y185762D02*
X28258Y185762D01*
X28258Y188246D01*
X28054Y199817D02*
X28056Y199887D01*
X28062Y199956D01*
X28072Y200025D01*
X28085Y200093D01*
X28103Y200161D01*
X28124Y200227D01*
X28149Y200292D01*
X28177Y200356D01*
X28209Y200418D01*
X28244Y200478D01*
X28283Y200536D01*
X28325Y200591D01*
X28370Y200645D01*
X28418Y200695D01*
X28468Y200743D01*
X28522Y200788D01*
X28577Y200830D01*
X28635Y200869D01*
X28695Y200904D01*
X28757Y200936D01*
X28821Y200964D01*
X28886Y200989D01*
X28952Y201010D01*
X29020Y201028D01*
X29088Y201041D01*
X29157Y201051D01*
X29226Y201057D01*
X29296Y201059D01*
X28054Y199817D02*
X28056Y199718D01*
X28061Y199620D01*
X28071Y199522D01*
X28084Y199424D01*
X28100Y199327D01*
X28120Y199230D01*
X28144Y199135D01*
X28172Y199040D01*
X28203Y198946D01*
X28237Y198854D01*
X28275Y198763D01*
X28316Y198673D01*
X28361Y198585D01*
X28409Y198499D01*
X28460Y198415D01*
X28514Y198333D01*
X28572Y198252D01*
X28632Y198174D01*
X28695Y198099D01*
X28761Y198025D01*
X28830Y197955D01*
X32400Y198109D02*
X32470Y198111D01*
X32539Y198117D01*
X32608Y198127D01*
X32676Y198140D01*
X32744Y198158D01*
X32810Y198179D01*
X32875Y198204D01*
X32939Y198232D01*
X33001Y198264D01*
X33061Y198299D01*
X33119Y198338D01*
X33174Y198380D01*
X33228Y198425D01*
X33278Y198473D01*
X33326Y198523D01*
X33371Y198577D01*
X33413Y198632D01*
X33452Y198690D01*
X33487Y198750D01*
X33519Y198812D01*
X33547Y198876D01*
X33572Y198941D01*
X33593Y199007D01*
X33611Y199075D01*
X33624Y199143D01*
X33634Y199212D01*
X33640Y199281D01*
X33642Y199351D01*
X33640Y199445D01*
X33634Y199538D01*
X33625Y199631D01*
X33612Y199724D01*
X33595Y199816D01*
X33575Y199907D01*
X33550Y199998D01*
X33523Y200087D01*
X33491Y200175D01*
X33456Y200262D01*
X33418Y200348D01*
X33376Y200431D01*
X33331Y200513D01*
X33283Y200594D01*
X33231Y200672D01*
X33176Y200748D01*
X31314Y198730D02*
X31350Y198671D01*
X31390Y198615D01*
X31433Y198561D01*
X31478Y198509D01*
X31527Y198460D01*
X31578Y198414D01*
X31631Y198371D01*
X31687Y198330D01*
X31745Y198293D01*
X31805Y198258D01*
X31866Y198228D01*
X31929Y198200D01*
X31994Y198176D01*
X32060Y198156D01*
X32127Y198139D01*
X32194Y198126D01*
X32262Y198117D01*
X32331Y198111D01*
X32400Y198109D01*
X30382Y200437D02*
X30346Y200496D01*
X30306Y200552D01*
X30263Y200606D01*
X30218Y200658D01*
X30169Y200707D01*
X30118Y200753D01*
X30065Y200796D01*
X30009Y200837D01*
X29951Y200874D01*
X29891Y200909D01*
X29830Y200939D01*
X29767Y200967D01*
X29702Y200991D01*
X29636Y201011D01*
X29569Y201028D01*
X29502Y201041D01*
X29434Y201050D01*
X29365Y201056D01*
X29296Y201058D01*
X30382Y200438D02*
X31314Y198730D01*
X33642Y203440D02*
X28054Y203440D01*
X33642Y203440D02*
X33642Y204993D01*
X33640Y205069D01*
X33635Y205145D01*
X33625Y205221D01*
X33612Y205296D01*
X33595Y205370D01*
X33575Y205444D01*
X33551Y205516D01*
X33524Y205587D01*
X33493Y205657D01*
X33459Y205725D01*
X33421Y205791D01*
X33380Y205855D01*
X33337Y205918D01*
X33290Y205978D01*
X33240Y206035D01*
X33187Y206090D01*
X33132Y206143D01*
X33075Y206193D01*
X33015Y206240D01*
X32952Y206283D01*
X32888Y206324D01*
X32822Y206362D01*
X32754Y206396D01*
X32684Y206427D01*
X32613Y206454D01*
X32540Y206478D01*
X32467Y206498D01*
X32393Y206515D01*
X32318Y206528D01*
X32242Y206538D01*
X32166Y206543D01*
X32090Y206545D01*
X29606Y206545D01*
X29527Y206543D01*
X29449Y206537D01*
X29371Y206527D01*
X29294Y206513D01*
X29217Y206495D01*
X29141Y206474D01*
X29067Y206448D01*
X28994Y206419D01*
X28923Y206386D01*
X28853Y206350D01*
X28785Y206310D01*
X28719Y206267D01*
X28656Y206220D01*
X28595Y206171D01*
X28537Y206118D01*
X28481Y206062D01*
X28428Y206004D01*
X28379Y205943D01*
X28332Y205880D01*
X28289Y205814D01*
X28249Y205746D01*
X28213Y205677D01*
X28180Y205605D01*
X28151Y205532D01*
X28125Y205458D01*
X28104Y205382D01*
X28086Y205305D01*
X28072Y205228D01*
X28062Y205150D01*
X28056Y205072D01*
X28054Y204993D01*
X28054Y203440D01*
X28054Y208799D02*
X33642Y210662D01*
X28054Y212525D01*
X29451Y212059D02*
X29451Y209265D01*
X371254Y200117D02*
X371256Y200187D01*
X371262Y200256D01*
X371272Y200325D01*
X371285Y200393D01*
X371303Y200461D01*
X371324Y200527D01*
X371349Y200592D01*
X371377Y200656D01*
X371409Y200718D01*
X371444Y200778D01*
X371483Y200836D01*
X371525Y200891D01*
X371570Y200945D01*
X371618Y200995D01*
X371668Y201043D01*
X371722Y201088D01*
X371777Y201130D01*
X371835Y201169D01*
X371895Y201204D01*
X371957Y201236D01*
X372021Y201264D01*
X372086Y201289D01*
X372152Y201310D01*
X372220Y201328D01*
X372288Y201341D01*
X372357Y201351D01*
X372426Y201357D01*
X372496Y201359D01*
X371254Y200117D02*
X371256Y200018D01*
X371261Y199920D01*
X371271Y199822D01*
X371284Y199724D01*
X371300Y199627D01*
X371320Y199530D01*
X371344Y199435D01*
X371372Y199340D01*
X371403Y199246D01*
X371437Y199154D01*
X371475Y199063D01*
X371516Y198973D01*
X371561Y198885D01*
X371609Y198799D01*
X371660Y198715D01*
X371714Y198633D01*
X371772Y198552D01*
X371832Y198474D01*
X371895Y198399D01*
X371961Y198325D01*
X372030Y198255D01*
X375600Y198409D02*
X375670Y198411D01*
X375739Y198417D01*
X375808Y198427D01*
X375876Y198440D01*
X375944Y198458D01*
X376010Y198479D01*
X376075Y198504D01*
X376139Y198532D01*
X376201Y198564D01*
X376261Y198599D01*
X376319Y198638D01*
X376374Y198680D01*
X376428Y198725D01*
X376478Y198773D01*
X376526Y198823D01*
X376571Y198877D01*
X376613Y198932D01*
X376652Y198990D01*
X376687Y199050D01*
X376719Y199112D01*
X376747Y199176D01*
X376772Y199241D01*
X376793Y199307D01*
X376811Y199375D01*
X376824Y199443D01*
X376834Y199512D01*
X376840Y199581D01*
X376842Y199651D01*
X376840Y199745D01*
X376834Y199838D01*
X376825Y199931D01*
X376812Y200024D01*
X376795Y200116D01*
X376775Y200207D01*
X376750Y200298D01*
X376723Y200387D01*
X376691Y200475D01*
X376656Y200562D01*
X376618Y200648D01*
X376576Y200731D01*
X376531Y200813D01*
X376483Y200894D01*
X376431Y200972D01*
X376376Y201048D01*
X374514Y199030D02*
X374550Y198971D01*
X374590Y198915D01*
X374633Y198861D01*
X374678Y198809D01*
X374727Y198760D01*
X374778Y198714D01*
X374831Y198671D01*
X374887Y198630D01*
X374945Y198593D01*
X375005Y198558D01*
X375066Y198528D01*
X375129Y198500D01*
X375194Y198476D01*
X375260Y198456D01*
X375327Y198439D01*
X375394Y198426D01*
X375462Y198417D01*
X375531Y198411D01*
X375600Y198409D01*
X373582Y200737D02*
X373546Y200796D01*
X373506Y200852D01*
X373463Y200906D01*
X373418Y200958D01*
X373369Y201007D01*
X373318Y201053D01*
X373265Y201096D01*
X373209Y201137D01*
X373151Y201174D01*
X373091Y201209D01*
X373030Y201239D01*
X372967Y201267D01*
X372902Y201291D01*
X372836Y201311D01*
X372769Y201328D01*
X372702Y201341D01*
X372634Y201350D01*
X372565Y201356D01*
X372496Y201358D01*
X373582Y200738D02*
X374514Y199030D01*
X376842Y203740D02*
X371254Y203740D01*
X376842Y203740D02*
X376842Y205293D01*
X376840Y205369D01*
X376835Y205445D01*
X376825Y205521D01*
X376812Y205596D01*
X376795Y205670D01*
X376775Y205744D01*
X376751Y205816D01*
X376724Y205887D01*
X376693Y205957D01*
X376659Y206025D01*
X376621Y206091D01*
X376580Y206155D01*
X376537Y206218D01*
X376490Y206278D01*
X376440Y206335D01*
X376387Y206390D01*
X376332Y206443D01*
X376275Y206493D01*
X376215Y206540D01*
X376152Y206583D01*
X376088Y206624D01*
X376022Y206662D01*
X375954Y206696D01*
X375884Y206727D01*
X375813Y206754D01*
X375740Y206778D01*
X375667Y206798D01*
X375593Y206815D01*
X375518Y206828D01*
X375442Y206838D01*
X375366Y206843D01*
X375290Y206845D01*
X372806Y206845D01*
X372727Y206843D01*
X372649Y206837D01*
X372571Y206827D01*
X372494Y206813D01*
X372417Y206795D01*
X372341Y206774D01*
X372267Y206748D01*
X372194Y206719D01*
X372123Y206686D01*
X372053Y206650D01*
X371985Y206610D01*
X371919Y206567D01*
X371856Y206520D01*
X371795Y206471D01*
X371737Y206418D01*
X371681Y206362D01*
X371628Y206304D01*
X371579Y206243D01*
X371532Y206180D01*
X371489Y206114D01*
X371449Y206046D01*
X371413Y205977D01*
X371380Y205905D01*
X371351Y205832D01*
X371325Y205758D01*
X371304Y205682D01*
X371286Y205605D01*
X371272Y205528D01*
X371262Y205450D01*
X371256Y205372D01*
X371254Y205293D01*
X371254Y203740D01*
X371254Y209099D02*
X376842Y210962D01*
X371254Y212825D01*
X372651Y212359D02*
X372651Y209565D01*
X115380Y45066D02*
X115436Y44948D01*
X115488Y44828D01*
X115537Y44707D01*
X115582Y44585D01*
X115624Y44461D01*
X115662Y44336D01*
X115697Y44210D01*
X115728Y44083D01*
X115756Y43956D01*
X115780Y43828D01*
X115800Y43699D01*
X115816Y43569D01*
X115829Y43439D01*
X115839Y43309D01*
X115844Y43179D01*
X115846Y43048D01*
X115381Y45066D02*
X115358Y45126D01*
X115332Y45186D01*
X115303Y45243D01*
X115270Y45299D01*
X115234Y45353D01*
X115196Y45405D01*
X115154Y45455D01*
X115110Y45502D01*
X115063Y45547D01*
X115013Y45589D01*
X114962Y45628D01*
X114908Y45664D01*
X114852Y45697D01*
X114795Y45727D01*
X114736Y45754D01*
X114675Y45777D01*
X114614Y45797D01*
X114551Y45813D01*
X114487Y45826D01*
X114423Y45835D01*
X114359Y45840D01*
X114294Y45842D01*
X114229Y45840D01*
X114165Y45835D01*
X114101Y45826D01*
X114037Y45813D01*
X113974Y45797D01*
X113913Y45777D01*
X113852Y45754D01*
X113793Y45727D01*
X113736Y45697D01*
X113680Y45664D01*
X113626Y45628D01*
X113575Y45589D01*
X113525Y45547D01*
X113478Y45502D01*
X113434Y45455D01*
X113392Y45405D01*
X113354Y45353D01*
X113318Y45299D01*
X113285Y45243D01*
X113256Y45186D01*
X113230Y45126D01*
X113207Y45066D01*
X113151Y44948D01*
X113099Y44828D01*
X113050Y44707D01*
X113005Y44585D01*
X112963Y44461D01*
X112925Y44336D01*
X112890Y44210D01*
X112859Y44084D01*
X112831Y43956D01*
X112807Y43828D01*
X112787Y43699D01*
X112771Y43569D01*
X112758Y43439D01*
X112748Y43309D01*
X112743Y43179D01*
X112741Y43048D01*
X115846Y43048D02*
X115844Y42917D01*
X115839Y42787D01*
X115829Y42657D01*
X115816Y42527D01*
X115800Y42397D01*
X115780Y42269D01*
X115756Y42140D01*
X115728Y42013D01*
X115697Y41886D01*
X115662Y41760D01*
X115624Y41635D01*
X115582Y41512D01*
X115537Y41389D01*
X115488Y41268D01*
X115436Y41148D01*
X115380Y41030D01*
X115381Y41030D02*
X115358Y40970D01*
X115332Y40910D01*
X115303Y40853D01*
X115270Y40797D01*
X115234Y40743D01*
X115196Y40691D01*
X115154Y40641D01*
X115110Y40594D01*
X115063Y40549D01*
X115013Y40507D01*
X114962Y40468D01*
X114908Y40432D01*
X114852Y40399D01*
X114795Y40369D01*
X114736Y40342D01*
X114675Y40319D01*
X114614Y40299D01*
X114551Y40283D01*
X114487Y40270D01*
X114423Y40261D01*
X114359Y40256D01*
X114294Y40254D01*
X113207Y41030D02*
X113151Y41148D01*
X113099Y41268D01*
X113050Y41389D01*
X113005Y41511D01*
X112963Y41635D01*
X112925Y41760D01*
X112890Y41886D01*
X112859Y42012D01*
X112831Y42140D01*
X112807Y42268D01*
X112787Y42397D01*
X112771Y42527D01*
X112758Y42657D01*
X112748Y42787D01*
X112743Y42917D01*
X112741Y43048D01*
X113207Y41030D02*
X113230Y40970D01*
X113256Y40910D01*
X113285Y40853D01*
X113318Y40797D01*
X113354Y40743D01*
X113392Y40691D01*
X113434Y40641D01*
X113478Y40594D01*
X113525Y40549D01*
X113575Y40507D01*
X113626Y40468D01*
X113680Y40432D01*
X113736Y40399D01*
X113793Y40369D01*
X113852Y40342D01*
X113913Y40319D01*
X113974Y40299D01*
X114037Y40283D01*
X114101Y40270D01*
X114165Y40261D01*
X114229Y40256D01*
X114294Y40254D01*
X115536Y41496D02*
X113052Y44600D01*
X110360Y44600D02*
X108807Y45842D01*
X108807Y40254D01*
X107255Y40254D02*
X110360Y40254D01*
X140780Y45266D02*
X140836Y45148D01*
X140888Y45028D01*
X140937Y44907D01*
X140982Y44785D01*
X141024Y44661D01*
X141062Y44536D01*
X141097Y44410D01*
X141128Y44283D01*
X141156Y44156D01*
X141180Y44028D01*
X141200Y43899D01*
X141216Y43769D01*
X141229Y43639D01*
X141239Y43509D01*
X141244Y43379D01*
X141246Y43248D01*
X140781Y45266D02*
X140758Y45326D01*
X140732Y45386D01*
X140703Y45443D01*
X140670Y45499D01*
X140634Y45553D01*
X140596Y45605D01*
X140554Y45655D01*
X140510Y45702D01*
X140463Y45747D01*
X140413Y45789D01*
X140362Y45828D01*
X140308Y45864D01*
X140252Y45897D01*
X140195Y45927D01*
X140136Y45954D01*
X140075Y45977D01*
X140014Y45997D01*
X139951Y46013D01*
X139887Y46026D01*
X139823Y46035D01*
X139759Y46040D01*
X139694Y46042D01*
X139629Y46040D01*
X139565Y46035D01*
X139501Y46026D01*
X139437Y46013D01*
X139374Y45997D01*
X139313Y45977D01*
X139252Y45954D01*
X139193Y45927D01*
X139136Y45897D01*
X139080Y45864D01*
X139026Y45828D01*
X138975Y45789D01*
X138925Y45747D01*
X138878Y45702D01*
X138834Y45655D01*
X138792Y45605D01*
X138754Y45553D01*
X138718Y45499D01*
X138685Y45443D01*
X138656Y45386D01*
X138630Y45326D01*
X138607Y45266D01*
X138551Y45148D01*
X138499Y45028D01*
X138450Y44907D01*
X138405Y44785D01*
X138363Y44661D01*
X138325Y44536D01*
X138290Y44410D01*
X138259Y44284D01*
X138231Y44156D01*
X138207Y44028D01*
X138187Y43899D01*
X138171Y43769D01*
X138158Y43639D01*
X138148Y43509D01*
X138143Y43379D01*
X138141Y43248D01*
X141246Y43248D02*
X141244Y43117D01*
X141239Y42987D01*
X141229Y42857D01*
X141216Y42727D01*
X141200Y42597D01*
X141180Y42469D01*
X141156Y42340D01*
X141128Y42213D01*
X141097Y42086D01*
X141062Y41960D01*
X141024Y41835D01*
X140982Y41712D01*
X140937Y41589D01*
X140888Y41468D01*
X140836Y41348D01*
X140780Y41230D01*
X140781Y41230D02*
X140758Y41170D01*
X140732Y41110D01*
X140703Y41053D01*
X140670Y40997D01*
X140634Y40943D01*
X140596Y40891D01*
X140554Y40841D01*
X140510Y40794D01*
X140463Y40749D01*
X140413Y40707D01*
X140362Y40668D01*
X140308Y40632D01*
X140252Y40599D01*
X140195Y40569D01*
X140136Y40542D01*
X140075Y40519D01*
X140014Y40499D01*
X139951Y40483D01*
X139887Y40470D01*
X139823Y40461D01*
X139759Y40456D01*
X139694Y40454D01*
X138607Y41230D02*
X138551Y41348D01*
X138499Y41468D01*
X138450Y41589D01*
X138405Y41711D01*
X138363Y41835D01*
X138325Y41960D01*
X138290Y42086D01*
X138259Y42212D01*
X138231Y42340D01*
X138207Y42468D01*
X138187Y42597D01*
X138171Y42727D01*
X138158Y42857D01*
X138148Y42987D01*
X138143Y43117D01*
X138141Y43248D01*
X138607Y41230D02*
X138630Y41170D01*
X138656Y41110D01*
X138685Y41053D01*
X138718Y40997D01*
X138754Y40943D01*
X138792Y40891D01*
X138834Y40841D01*
X138878Y40794D01*
X138925Y40749D01*
X138975Y40707D01*
X139026Y40668D01*
X139080Y40632D01*
X139136Y40599D01*
X139193Y40569D01*
X139252Y40542D01*
X139313Y40519D01*
X139374Y40499D01*
X139437Y40483D01*
X139501Y40470D01*
X139565Y40461D01*
X139629Y40456D01*
X139694Y40454D01*
X140936Y41696D02*
X138452Y44800D01*
X134052Y46042D02*
X133979Y46040D01*
X133906Y46034D01*
X133833Y46025D01*
X133762Y46011D01*
X133690Y45994D01*
X133620Y45974D01*
X133551Y45949D01*
X133484Y45921D01*
X133418Y45890D01*
X133354Y45855D01*
X133291Y45817D01*
X133231Y45775D01*
X133173Y45731D01*
X133117Y45683D01*
X133064Y45633D01*
X133014Y45580D01*
X132966Y45524D01*
X132922Y45466D01*
X132880Y45406D01*
X132842Y45344D01*
X132807Y45279D01*
X132776Y45213D01*
X132748Y45146D01*
X132723Y45077D01*
X132703Y45007D01*
X132686Y44935D01*
X132672Y44864D01*
X132663Y44791D01*
X132657Y44718D01*
X132655Y44645D01*
X134052Y46042D02*
X134136Y46040D01*
X134219Y46034D01*
X134302Y46025D01*
X134384Y46011D01*
X134466Y45994D01*
X134547Y45972D01*
X134627Y45947D01*
X134705Y45919D01*
X134783Y45887D01*
X134858Y45851D01*
X134932Y45812D01*
X135004Y45769D01*
X135074Y45723D01*
X135141Y45674D01*
X135207Y45621D01*
X135269Y45566D01*
X135329Y45508D01*
X135387Y45447D01*
X135441Y45384D01*
X135493Y45318D01*
X135541Y45250D01*
X135586Y45179D01*
X135628Y45107D01*
X135666Y45032D01*
X135701Y44956D01*
X135732Y44879D01*
X135760Y44800D01*
X133122Y43559D02*
X133068Y43612D01*
X133017Y43669D01*
X132969Y43728D01*
X132924Y43789D01*
X132883Y43852D01*
X132844Y43918D01*
X132809Y43985D01*
X132777Y44054D01*
X132749Y44125D01*
X132725Y44196D01*
X132704Y44269D01*
X132687Y44343D01*
X132673Y44418D01*
X132664Y44493D01*
X132658Y44569D01*
X132656Y44645D01*
X133121Y43558D02*
X135760Y40454D01*
X132655Y40454D01*
X164980Y45066D02*
X165036Y44948D01*
X165088Y44828D01*
X165137Y44707D01*
X165182Y44585D01*
X165224Y44461D01*
X165262Y44336D01*
X165297Y44210D01*
X165328Y44083D01*
X165356Y43956D01*
X165380Y43828D01*
X165400Y43699D01*
X165416Y43569D01*
X165429Y43439D01*
X165439Y43309D01*
X165444Y43179D01*
X165446Y43048D01*
X164981Y45066D02*
X164958Y45126D01*
X164932Y45186D01*
X164903Y45243D01*
X164870Y45299D01*
X164834Y45353D01*
X164796Y45405D01*
X164754Y45455D01*
X164710Y45502D01*
X164663Y45547D01*
X164613Y45589D01*
X164562Y45628D01*
X164508Y45664D01*
X164452Y45697D01*
X164395Y45727D01*
X164336Y45754D01*
X164275Y45777D01*
X164214Y45797D01*
X164151Y45813D01*
X164087Y45826D01*
X164023Y45835D01*
X163959Y45840D01*
X163894Y45842D01*
X163829Y45840D01*
X163765Y45835D01*
X163701Y45826D01*
X163637Y45813D01*
X163574Y45797D01*
X163513Y45777D01*
X163452Y45754D01*
X163393Y45727D01*
X163336Y45697D01*
X163280Y45664D01*
X163226Y45628D01*
X163175Y45589D01*
X163125Y45547D01*
X163078Y45502D01*
X163034Y45455D01*
X162992Y45405D01*
X162954Y45353D01*
X162918Y45299D01*
X162885Y45243D01*
X162856Y45186D01*
X162830Y45126D01*
X162807Y45066D01*
X162751Y44948D01*
X162699Y44828D01*
X162650Y44707D01*
X162605Y44585D01*
X162563Y44461D01*
X162525Y44336D01*
X162490Y44210D01*
X162459Y44084D01*
X162431Y43956D01*
X162407Y43828D01*
X162387Y43699D01*
X162371Y43569D01*
X162358Y43439D01*
X162348Y43309D01*
X162343Y43179D01*
X162341Y43048D01*
X165446Y43048D02*
X165444Y42917D01*
X165439Y42787D01*
X165429Y42657D01*
X165416Y42527D01*
X165400Y42397D01*
X165380Y42269D01*
X165356Y42140D01*
X165328Y42013D01*
X165297Y41886D01*
X165262Y41760D01*
X165224Y41635D01*
X165182Y41512D01*
X165137Y41389D01*
X165088Y41268D01*
X165036Y41148D01*
X164980Y41030D01*
X164981Y41030D02*
X164958Y40970D01*
X164932Y40910D01*
X164903Y40853D01*
X164870Y40797D01*
X164834Y40743D01*
X164796Y40691D01*
X164754Y40641D01*
X164710Y40594D01*
X164663Y40549D01*
X164613Y40507D01*
X164562Y40468D01*
X164508Y40432D01*
X164452Y40399D01*
X164395Y40369D01*
X164336Y40342D01*
X164275Y40319D01*
X164214Y40299D01*
X164151Y40283D01*
X164087Y40270D01*
X164023Y40261D01*
X163959Y40256D01*
X163894Y40254D01*
X162807Y41030D02*
X162751Y41148D01*
X162699Y41268D01*
X162650Y41389D01*
X162605Y41511D01*
X162563Y41635D01*
X162525Y41760D01*
X162490Y41886D01*
X162459Y42012D01*
X162431Y42140D01*
X162407Y42268D01*
X162387Y42397D01*
X162371Y42527D01*
X162358Y42657D01*
X162348Y42787D01*
X162343Y42917D01*
X162341Y43048D01*
X162807Y41030D02*
X162830Y40970D01*
X162856Y40910D01*
X162885Y40853D01*
X162918Y40797D01*
X162954Y40743D01*
X162992Y40691D01*
X163034Y40641D01*
X163078Y40594D01*
X163125Y40549D01*
X163175Y40507D01*
X163226Y40468D01*
X163280Y40432D01*
X163336Y40399D01*
X163393Y40369D01*
X163452Y40342D01*
X163513Y40319D01*
X163574Y40299D01*
X163637Y40283D01*
X163701Y40270D01*
X163765Y40261D01*
X163829Y40256D01*
X163894Y40254D01*
X165136Y41496D02*
X162652Y44600D01*
X159960Y40254D02*
X158407Y40254D01*
X158330Y40256D01*
X158252Y40262D01*
X158176Y40271D01*
X158099Y40285D01*
X158024Y40302D01*
X157950Y40323D01*
X157876Y40348D01*
X157804Y40376D01*
X157734Y40408D01*
X157665Y40443D01*
X157598Y40482D01*
X157533Y40524D01*
X157470Y40569D01*
X157409Y40617D01*
X157351Y40668D01*
X157296Y40722D01*
X157243Y40779D01*
X157194Y40838D01*
X157147Y40900D01*
X157103Y40964D01*
X157063Y41030D01*
X157026Y41098D01*
X156992Y41168D01*
X156962Y41239D01*
X156936Y41312D01*
X156913Y41386D01*
X156894Y41461D01*
X156879Y41536D01*
X156867Y41613D01*
X156859Y41690D01*
X156855Y41767D01*
X156855Y41845D01*
X156859Y41922D01*
X156867Y41999D01*
X156879Y42076D01*
X156894Y42151D01*
X156913Y42226D01*
X156936Y42300D01*
X156962Y42373D01*
X156992Y42444D01*
X157026Y42514D01*
X157063Y42582D01*
X157103Y42648D01*
X157147Y42712D01*
X157194Y42774D01*
X157243Y42833D01*
X157296Y42890D01*
X157351Y42944D01*
X157409Y42995D01*
X157470Y43043D01*
X157533Y43088D01*
X157598Y43130D01*
X157665Y43169D01*
X157734Y43204D01*
X157804Y43236D01*
X157876Y43264D01*
X157950Y43289D01*
X158024Y43310D01*
X158099Y43327D01*
X158176Y43341D01*
X158252Y43350D01*
X158330Y43356D01*
X158407Y43358D01*
X158097Y45842D02*
X159960Y45842D01*
X158097Y45842D02*
X158027Y45840D01*
X157958Y45834D01*
X157889Y45824D01*
X157821Y45811D01*
X157753Y45793D01*
X157687Y45772D01*
X157622Y45747D01*
X157558Y45719D01*
X157496Y45687D01*
X157436Y45652D01*
X157378Y45613D01*
X157323Y45571D01*
X157269Y45526D01*
X157219Y45478D01*
X157171Y45428D01*
X157126Y45374D01*
X157084Y45319D01*
X157045Y45261D01*
X157010Y45201D01*
X156978Y45139D01*
X156950Y45075D01*
X156925Y45010D01*
X156904Y44944D01*
X156886Y44876D01*
X156873Y44808D01*
X156863Y44739D01*
X156857Y44670D01*
X156855Y44600D01*
X156857Y44530D01*
X156863Y44461D01*
X156873Y44392D01*
X156886Y44324D01*
X156904Y44256D01*
X156925Y44190D01*
X156950Y44125D01*
X156978Y44061D01*
X157010Y43999D01*
X157045Y43939D01*
X157084Y43881D01*
X157126Y43826D01*
X157171Y43772D01*
X157219Y43722D01*
X157269Y43674D01*
X157323Y43629D01*
X157378Y43587D01*
X157436Y43548D01*
X157496Y43513D01*
X157558Y43481D01*
X157622Y43453D01*
X157687Y43428D01*
X157753Y43407D01*
X157821Y43389D01*
X157889Y43376D01*
X157958Y43366D01*
X158027Y43360D01*
X158097Y43358D01*
X159339Y43358D01*
X191480Y45066D02*
X191536Y44948D01*
X191588Y44828D01*
X191637Y44707D01*
X191682Y44585D01*
X191724Y44461D01*
X191762Y44336D01*
X191797Y44210D01*
X191828Y44083D01*
X191856Y43956D01*
X191880Y43828D01*
X191900Y43699D01*
X191916Y43569D01*
X191929Y43439D01*
X191939Y43309D01*
X191944Y43179D01*
X191946Y43048D01*
X191481Y45066D02*
X191458Y45126D01*
X191432Y45186D01*
X191403Y45243D01*
X191370Y45299D01*
X191334Y45353D01*
X191296Y45405D01*
X191254Y45455D01*
X191210Y45502D01*
X191163Y45547D01*
X191113Y45589D01*
X191062Y45628D01*
X191008Y45664D01*
X190952Y45697D01*
X190895Y45727D01*
X190836Y45754D01*
X190775Y45777D01*
X190714Y45797D01*
X190651Y45813D01*
X190587Y45826D01*
X190523Y45835D01*
X190459Y45840D01*
X190394Y45842D01*
X190329Y45840D01*
X190265Y45835D01*
X190201Y45826D01*
X190137Y45813D01*
X190074Y45797D01*
X190013Y45777D01*
X189952Y45754D01*
X189893Y45727D01*
X189836Y45697D01*
X189780Y45664D01*
X189726Y45628D01*
X189675Y45589D01*
X189625Y45547D01*
X189578Y45502D01*
X189534Y45455D01*
X189492Y45405D01*
X189454Y45353D01*
X189418Y45299D01*
X189385Y45243D01*
X189356Y45186D01*
X189330Y45126D01*
X189307Y45066D01*
X189251Y44948D01*
X189199Y44828D01*
X189150Y44707D01*
X189105Y44585D01*
X189063Y44461D01*
X189025Y44336D01*
X188990Y44210D01*
X188959Y44084D01*
X188931Y43956D01*
X188907Y43828D01*
X188887Y43699D01*
X188871Y43569D01*
X188858Y43439D01*
X188848Y43309D01*
X188843Y43179D01*
X188841Y43048D01*
X191946Y43048D02*
X191944Y42917D01*
X191939Y42787D01*
X191929Y42657D01*
X191916Y42527D01*
X191900Y42397D01*
X191880Y42269D01*
X191856Y42140D01*
X191828Y42013D01*
X191797Y41886D01*
X191762Y41760D01*
X191724Y41635D01*
X191682Y41512D01*
X191637Y41389D01*
X191588Y41268D01*
X191536Y41148D01*
X191480Y41030D01*
X191481Y41030D02*
X191458Y40970D01*
X191432Y40910D01*
X191403Y40853D01*
X191370Y40797D01*
X191334Y40743D01*
X191296Y40691D01*
X191254Y40641D01*
X191210Y40594D01*
X191163Y40549D01*
X191113Y40507D01*
X191062Y40468D01*
X191008Y40432D01*
X190952Y40399D01*
X190895Y40369D01*
X190836Y40342D01*
X190775Y40319D01*
X190714Y40299D01*
X190651Y40283D01*
X190587Y40270D01*
X190523Y40261D01*
X190459Y40256D01*
X190394Y40254D01*
X189307Y41030D02*
X189251Y41148D01*
X189199Y41268D01*
X189150Y41389D01*
X189105Y41511D01*
X189063Y41635D01*
X189025Y41760D01*
X188990Y41886D01*
X188959Y42012D01*
X188931Y42140D01*
X188907Y42268D01*
X188887Y42397D01*
X188871Y42527D01*
X188858Y42657D01*
X188848Y42787D01*
X188843Y42917D01*
X188841Y43048D01*
X189307Y41030D02*
X189330Y40970D01*
X189356Y40910D01*
X189385Y40853D01*
X189418Y40797D01*
X189454Y40743D01*
X189492Y40691D01*
X189534Y40641D01*
X189578Y40594D01*
X189625Y40549D01*
X189675Y40507D01*
X189726Y40468D01*
X189780Y40432D01*
X189836Y40399D01*
X189893Y40369D01*
X189952Y40342D01*
X190013Y40319D01*
X190074Y40299D01*
X190137Y40283D01*
X190201Y40270D01*
X190265Y40261D01*
X190329Y40256D01*
X190394Y40254D01*
X191636Y41496D02*
X189152Y44600D01*
X186460Y41496D02*
X185218Y45842D01*
X186460Y41496D02*
X183355Y41496D01*
X184287Y42738D02*
X184287Y40254D01*
X216580Y45166D02*
X216636Y45048D01*
X216688Y44928D01*
X216737Y44807D01*
X216782Y44685D01*
X216824Y44561D01*
X216862Y44436D01*
X216897Y44310D01*
X216928Y44183D01*
X216956Y44056D01*
X216980Y43928D01*
X217000Y43799D01*
X217016Y43669D01*
X217029Y43539D01*
X217039Y43409D01*
X217044Y43279D01*
X217046Y43148D01*
X216581Y45166D02*
X216558Y45226D01*
X216532Y45286D01*
X216503Y45343D01*
X216470Y45399D01*
X216434Y45453D01*
X216396Y45505D01*
X216354Y45555D01*
X216310Y45602D01*
X216263Y45647D01*
X216213Y45689D01*
X216162Y45728D01*
X216108Y45764D01*
X216052Y45797D01*
X215995Y45827D01*
X215936Y45854D01*
X215875Y45877D01*
X215814Y45897D01*
X215751Y45913D01*
X215687Y45926D01*
X215623Y45935D01*
X215559Y45940D01*
X215494Y45942D01*
X215429Y45940D01*
X215365Y45935D01*
X215301Y45926D01*
X215237Y45913D01*
X215174Y45897D01*
X215113Y45877D01*
X215052Y45854D01*
X214993Y45827D01*
X214936Y45797D01*
X214880Y45764D01*
X214826Y45728D01*
X214775Y45689D01*
X214725Y45647D01*
X214678Y45602D01*
X214634Y45555D01*
X214592Y45505D01*
X214554Y45453D01*
X214518Y45399D01*
X214485Y45343D01*
X214456Y45286D01*
X214430Y45226D01*
X214407Y45166D01*
X214351Y45048D01*
X214299Y44928D01*
X214250Y44807D01*
X214205Y44685D01*
X214163Y44561D01*
X214125Y44436D01*
X214090Y44310D01*
X214059Y44184D01*
X214031Y44056D01*
X214007Y43928D01*
X213987Y43799D01*
X213971Y43669D01*
X213958Y43539D01*
X213948Y43409D01*
X213943Y43279D01*
X213941Y43148D01*
X217046Y43148D02*
X217044Y43017D01*
X217039Y42887D01*
X217029Y42757D01*
X217016Y42627D01*
X217000Y42497D01*
X216980Y42369D01*
X216956Y42240D01*
X216928Y42113D01*
X216897Y41986D01*
X216862Y41860D01*
X216824Y41735D01*
X216782Y41612D01*
X216737Y41489D01*
X216688Y41368D01*
X216636Y41248D01*
X216580Y41130D01*
X216581Y41130D02*
X216558Y41070D01*
X216532Y41010D01*
X216503Y40953D01*
X216470Y40897D01*
X216434Y40843D01*
X216396Y40791D01*
X216354Y40741D01*
X216310Y40694D01*
X216263Y40649D01*
X216213Y40607D01*
X216162Y40568D01*
X216108Y40532D01*
X216052Y40499D01*
X215995Y40469D01*
X215936Y40442D01*
X215875Y40419D01*
X215814Y40399D01*
X215751Y40383D01*
X215687Y40370D01*
X215623Y40361D01*
X215559Y40356D01*
X215494Y40354D01*
X214407Y41130D02*
X214351Y41248D01*
X214299Y41368D01*
X214250Y41489D01*
X214205Y41611D01*
X214163Y41735D01*
X214125Y41860D01*
X214090Y41986D01*
X214059Y42112D01*
X214031Y42240D01*
X214007Y42368D01*
X213987Y42497D01*
X213971Y42627D01*
X213958Y42757D01*
X213948Y42887D01*
X213943Y43017D01*
X213941Y43148D01*
X214407Y41130D02*
X214430Y41070D01*
X214456Y41010D01*
X214485Y40953D01*
X214518Y40897D01*
X214554Y40843D01*
X214592Y40791D01*
X214634Y40741D01*
X214678Y40694D01*
X214725Y40649D01*
X214775Y40607D01*
X214826Y40568D01*
X214880Y40532D01*
X214936Y40499D01*
X214993Y40469D01*
X215052Y40442D01*
X215113Y40419D01*
X215174Y40399D01*
X215237Y40383D01*
X215301Y40370D01*
X215365Y40361D01*
X215429Y40356D01*
X215494Y40354D01*
X216736Y41596D02*
X214252Y44700D01*
X211560Y40354D02*
X209697Y40354D01*
X209627Y40356D01*
X209558Y40362D01*
X209489Y40372D01*
X209421Y40385D01*
X209353Y40403D01*
X209287Y40424D01*
X209222Y40449D01*
X209158Y40477D01*
X209096Y40509D01*
X209036Y40544D01*
X208978Y40583D01*
X208923Y40625D01*
X208869Y40670D01*
X208819Y40718D01*
X208771Y40768D01*
X208726Y40822D01*
X208684Y40877D01*
X208645Y40935D01*
X208610Y40995D01*
X208578Y41057D01*
X208550Y41121D01*
X208525Y41186D01*
X208504Y41252D01*
X208486Y41320D01*
X208473Y41388D01*
X208463Y41457D01*
X208457Y41526D01*
X208455Y41596D01*
X208455Y42217D01*
X208457Y42287D01*
X208463Y42356D01*
X208473Y42425D01*
X208486Y42493D01*
X208504Y42561D01*
X208525Y42627D01*
X208550Y42692D01*
X208578Y42756D01*
X208610Y42818D01*
X208645Y42878D01*
X208684Y42936D01*
X208726Y42991D01*
X208771Y43045D01*
X208819Y43095D01*
X208869Y43143D01*
X208923Y43188D01*
X208978Y43230D01*
X209036Y43269D01*
X209096Y43304D01*
X209158Y43336D01*
X209222Y43364D01*
X209287Y43389D01*
X209353Y43410D01*
X209421Y43428D01*
X209489Y43441D01*
X209558Y43451D01*
X209627Y43457D01*
X209697Y43459D01*
X209697Y43458D02*
X211560Y43458D01*
X211560Y45942D01*
X208455Y45942D01*
X241880Y45266D02*
X241936Y45148D01*
X241988Y45028D01*
X242037Y44907D01*
X242082Y44785D01*
X242124Y44661D01*
X242162Y44536D01*
X242197Y44410D01*
X242228Y44283D01*
X242256Y44156D01*
X242280Y44028D01*
X242300Y43899D01*
X242316Y43769D01*
X242329Y43639D01*
X242339Y43509D01*
X242344Y43379D01*
X242346Y43248D01*
X241881Y45266D02*
X241858Y45326D01*
X241832Y45386D01*
X241803Y45443D01*
X241770Y45499D01*
X241734Y45553D01*
X241696Y45605D01*
X241654Y45655D01*
X241610Y45702D01*
X241563Y45747D01*
X241513Y45789D01*
X241462Y45828D01*
X241408Y45864D01*
X241352Y45897D01*
X241295Y45927D01*
X241236Y45954D01*
X241175Y45977D01*
X241114Y45997D01*
X241051Y46013D01*
X240987Y46026D01*
X240923Y46035D01*
X240859Y46040D01*
X240794Y46042D01*
X240729Y46040D01*
X240665Y46035D01*
X240601Y46026D01*
X240537Y46013D01*
X240474Y45997D01*
X240413Y45977D01*
X240352Y45954D01*
X240293Y45927D01*
X240236Y45897D01*
X240180Y45864D01*
X240126Y45828D01*
X240075Y45789D01*
X240025Y45747D01*
X239978Y45702D01*
X239934Y45655D01*
X239892Y45605D01*
X239854Y45553D01*
X239818Y45499D01*
X239785Y45443D01*
X239756Y45386D01*
X239730Y45326D01*
X239707Y45266D01*
X239651Y45148D01*
X239599Y45028D01*
X239550Y44907D01*
X239505Y44785D01*
X239463Y44661D01*
X239425Y44536D01*
X239390Y44410D01*
X239359Y44284D01*
X239331Y44156D01*
X239307Y44028D01*
X239287Y43899D01*
X239271Y43769D01*
X239258Y43639D01*
X239248Y43509D01*
X239243Y43379D01*
X239241Y43248D01*
X242346Y43248D02*
X242344Y43117D01*
X242339Y42987D01*
X242329Y42857D01*
X242316Y42727D01*
X242300Y42597D01*
X242280Y42469D01*
X242256Y42340D01*
X242228Y42213D01*
X242197Y42086D01*
X242162Y41960D01*
X242124Y41835D01*
X242082Y41712D01*
X242037Y41589D01*
X241988Y41468D01*
X241936Y41348D01*
X241880Y41230D01*
X241881Y41230D02*
X241858Y41170D01*
X241832Y41110D01*
X241803Y41053D01*
X241770Y40997D01*
X241734Y40943D01*
X241696Y40891D01*
X241654Y40841D01*
X241610Y40794D01*
X241563Y40749D01*
X241513Y40707D01*
X241462Y40668D01*
X241408Y40632D01*
X241352Y40599D01*
X241295Y40569D01*
X241236Y40542D01*
X241175Y40519D01*
X241114Y40499D01*
X241051Y40483D01*
X240987Y40470D01*
X240923Y40461D01*
X240859Y40456D01*
X240794Y40454D01*
X239707Y41230D02*
X239651Y41348D01*
X239599Y41468D01*
X239550Y41589D01*
X239505Y41711D01*
X239463Y41835D01*
X239425Y41960D01*
X239390Y42086D01*
X239359Y42212D01*
X239331Y42340D01*
X239307Y42468D01*
X239287Y42597D01*
X239271Y42727D01*
X239258Y42857D01*
X239248Y42987D01*
X239243Y43117D01*
X239241Y43248D01*
X239707Y41230D02*
X239730Y41170D01*
X239756Y41110D01*
X239785Y41053D01*
X239818Y40997D01*
X239854Y40943D01*
X239892Y40891D01*
X239934Y40841D01*
X239978Y40794D01*
X240025Y40749D01*
X240075Y40707D01*
X240126Y40668D01*
X240180Y40632D01*
X240236Y40599D01*
X240293Y40569D01*
X240352Y40542D01*
X240413Y40519D01*
X240474Y40499D01*
X240537Y40483D01*
X240601Y40470D01*
X240665Y40461D01*
X240729Y40456D01*
X240794Y40454D01*
X242036Y41696D02*
X239552Y44800D01*
X236860Y43558D02*
X234997Y43558D01*
X234997Y43559D02*
X234927Y43557D01*
X234858Y43551D01*
X234789Y43541D01*
X234721Y43528D01*
X234653Y43510D01*
X234587Y43489D01*
X234522Y43464D01*
X234458Y43436D01*
X234396Y43404D01*
X234336Y43369D01*
X234278Y43330D01*
X234223Y43288D01*
X234169Y43243D01*
X234119Y43195D01*
X234071Y43145D01*
X234026Y43091D01*
X233984Y43036D01*
X233945Y42978D01*
X233910Y42918D01*
X233878Y42856D01*
X233850Y42792D01*
X233825Y42727D01*
X233804Y42661D01*
X233786Y42593D01*
X233773Y42525D01*
X233763Y42456D01*
X233757Y42387D01*
X233755Y42317D01*
X233755Y42006D01*
X233757Y41929D01*
X233763Y41851D01*
X233772Y41775D01*
X233786Y41698D01*
X233803Y41623D01*
X233824Y41549D01*
X233849Y41475D01*
X233877Y41403D01*
X233909Y41333D01*
X233944Y41264D01*
X233983Y41197D01*
X234025Y41132D01*
X234070Y41069D01*
X234118Y41008D01*
X234169Y40950D01*
X234223Y40895D01*
X234280Y40842D01*
X234339Y40793D01*
X234401Y40746D01*
X234465Y40702D01*
X234531Y40662D01*
X234599Y40625D01*
X234669Y40591D01*
X234740Y40561D01*
X234813Y40535D01*
X234887Y40512D01*
X234962Y40493D01*
X235037Y40478D01*
X235114Y40466D01*
X235191Y40458D01*
X235268Y40454D01*
X235346Y40454D01*
X235423Y40458D01*
X235500Y40466D01*
X235577Y40478D01*
X235652Y40493D01*
X235727Y40512D01*
X235801Y40535D01*
X235874Y40561D01*
X235945Y40591D01*
X236015Y40625D01*
X236083Y40662D01*
X236149Y40702D01*
X236213Y40746D01*
X236275Y40793D01*
X236334Y40842D01*
X236391Y40895D01*
X236445Y40950D01*
X236496Y41008D01*
X236544Y41069D01*
X236589Y41132D01*
X236631Y41197D01*
X236670Y41264D01*
X236705Y41333D01*
X236737Y41403D01*
X236765Y41475D01*
X236790Y41549D01*
X236811Y41623D01*
X236828Y41698D01*
X236842Y41775D01*
X236851Y41851D01*
X236857Y41929D01*
X236859Y42006D01*
X236860Y42006D02*
X236860Y43558D01*
X236858Y43656D01*
X236852Y43753D01*
X236843Y43850D01*
X236829Y43947D01*
X236812Y44043D01*
X236791Y44138D01*
X236767Y44232D01*
X236738Y44326D01*
X236706Y44418D01*
X236671Y44509D01*
X236632Y44598D01*
X236589Y44686D01*
X236543Y44772D01*
X236494Y44856D01*
X236441Y44938D01*
X236386Y45018D01*
X236327Y45096D01*
X236265Y45171D01*
X236200Y45244D01*
X236132Y45314D01*
X236062Y45382D01*
X235989Y45447D01*
X235914Y45509D01*
X235836Y45568D01*
X235756Y45623D01*
X235674Y45676D01*
X235590Y45725D01*
X235504Y45771D01*
X235416Y45814D01*
X235327Y45853D01*
X235236Y45888D01*
X235144Y45920D01*
X235050Y45949D01*
X234956Y45973D01*
X234861Y45994D01*
X234765Y46011D01*
X234668Y46025D01*
X234571Y46034D01*
X234474Y46040D01*
X234376Y46042D01*
X267380Y45166D02*
X267436Y45048D01*
X267488Y44928D01*
X267537Y44807D01*
X267582Y44685D01*
X267624Y44561D01*
X267662Y44436D01*
X267697Y44310D01*
X267728Y44183D01*
X267756Y44056D01*
X267780Y43928D01*
X267800Y43799D01*
X267816Y43669D01*
X267829Y43539D01*
X267839Y43409D01*
X267844Y43279D01*
X267846Y43148D01*
X267381Y45166D02*
X267358Y45226D01*
X267332Y45286D01*
X267303Y45343D01*
X267270Y45399D01*
X267234Y45453D01*
X267196Y45505D01*
X267154Y45555D01*
X267110Y45602D01*
X267063Y45647D01*
X267013Y45689D01*
X266962Y45728D01*
X266908Y45764D01*
X266852Y45797D01*
X266795Y45827D01*
X266736Y45854D01*
X266675Y45877D01*
X266614Y45897D01*
X266551Y45913D01*
X266487Y45926D01*
X266423Y45935D01*
X266359Y45940D01*
X266294Y45942D01*
X266229Y45940D01*
X266165Y45935D01*
X266101Y45926D01*
X266037Y45913D01*
X265974Y45897D01*
X265913Y45877D01*
X265852Y45854D01*
X265793Y45827D01*
X265736Y45797D01*
X265680Y45764D01*
X265626Y45728D01*
X265575Y45689D01*
X265525Y45647D01*
X265478Y45602D01*
X265434Y45555D01*
X265392Y45505D01*
X265354Y45453D01*
X265318Y45399D01*
X265285Y45343D01*
X265256Y45286D01*
X265230Y45226D01*
X265207Y45166D01*
X265151Y45048D01*
X265099Y44928D01*
X265050Y44807D01*
X265005Y44685D01*
X264963Y44561D01*
X264925Y44436D01*
X264890Y44310D01*
X264859Y44184D01*
X264831Y44056D01*
X264807Y43928D01*
X264787Y43799D01*
X264771Y43669D01*
X264758Y43539D01*
X264748Y43409D01*
X264743Y43279D01*
X264741Y43148D01*
X267846Y43148D02*
X267844Y43017D01*
X267839Y42887D01*
X267829Y42757D01*
X267816Y42627D01*
X267800Y42497D01*
X267780Y42369D01*
X267756Y42240D01*
X267728Y42113D01*
X267697Y41986D01*
X267662Y41860D01*
X267624Y41735D01*
X267582Y41612D01*
X267537Y41489D01*
X267488Y41368D01*
X267436Y41248D01*
X267380Y41130D01*
X267381Y41130D02*
X267358Y41070D01*
X267332Y41010D01*
X267303Y40953D01*
X267270Y40897D01*
X267234Y40843D01*
X267196Y40791D01*
X267154Y40741D01*
X267110Y40694D01*
X267063Y40649D01*
X267013Y40607D01*
X266962Y40568D01*
X266908Y40532D01*
X266852Y40499D01*
X266795Y40469D01*
X266736Y40442D01*
X266675Y40419D01*
X266614Y40399D01*
X266551Y40383D01*
X266487Y40370D01*
X266423Y40361D01*
X266359Y40356D01*
X266294Y40354D01*
X265207Y41130D02*
X265151Y41248D01*
X265099Y41368D01*
X265050Y41489D01*
X265005Y41611D01*
X264963Y41735D01*
X264925Y41860D01*
X264890Y41986D01*
X264859Y42112D01*
X264831Y42240D01*
X264807Y42368D01*
X264787Y42497D01*
X264771Y42627D01*
X264758Y42757D01*
X264748Y42887D01*
X264743Y43017D01*
X264741Y43148D01*
X265207Y41130D02*
X265230Y41070D01*
X265256Y41010D01*
X265285Y40953D01*
X265318Y40897D01*
X265354Y40843D01*
X265392Y40791D01*
X265434Y40741D01*
X265478Y40694D01*
X265525Y40649D01*
X265575Y40607D01*
X265626Y40568D01*
X265680Y40532D01*
X265736Y40499D01*
X265793Y40469D01*
X265852Y40442D01*
X265913Y40419D01*
X265974Y40399D01*
X266037Y40383D01*
X266101Y40370D01*
X266165Y40361D01*
X266229Y40356D01*
X266294Y40354D01*
X267536Y41596D02*
X265052Y44700D01*
X262360Y45321D02*
X262360Y45942D01*
X259255Y45942D01*
X260807Y40354D01*
X292680Y45266D02*
X292736Y45148D01*
X292788Y45028D01*
X292837Y44907D01*
X292882Y44785D01*
X292924Y44661D01*
X292962Y44536D01*
X292997Y44410D01*
X293028Y44283D01*
X293056Y44156D01*
X293080Y44028D01*
X293100Y43899D01*
X293116Y43769D01*
X293129Y43639D01*
X293139Y43509D01*
X293144Y43379D01*
X293146Y43248D01*
X292681Y45266D02*
X292658Y45326D01*
X292632Y45386D01*
X292603Y45443D01*
X292570Y45499D01*
X292534Y45553D01*
X292496Y45605D01*
X292454Y45655D01*
X292410Y45702D01*
X292363Y45747D01*
X292313Y45789D01*
X292262Y45828D01*
X292208Y45864D01*
X292152Y45897D01*
X292095Y45927D01*
X292036Y45954D01*
X291975Y45977D01*
X291914Y45997D01*
X291851Y46013D01*
X291787Y46026D01*
X291723Y46035D01*
X291659Y46040D01*
X291594Y46042D01*
X291529Y46040D01*
X291465Y46035D01*
X291401Y46026D01*
X291337Y46013D01*
X291274Y45997D01*
X291213Y45977D01*
X291152Y45954D01*
X291093Y45927D01*
X291036Y45897D01*
X290980Y45864D01*
X290926Y45828D01*
X290875Y45789D01*
X290825Y45747D01*
X290778Y45702D01*
X290734Y45655D01*
X290692Y45605D01*
X290654Y45553D01*
X290618Y45499D01*
X290585Y45443D01*
X290556Y45386D01*
X290530Y45326D01*
X290507Y45266D01*
X290451Y45148D01*
X290399Y45028D01*
X290350Y44907D01*
X290305Y44785D01*
X290263Y44661D01*
X290225Y44536D01*
X290190Y44410D01*
X290159Y44284D01*
X290131Y44156D01*
X290107Y44028D01*
X290087Y43899D01*
X290071Y43769D01*
X290058Y43639D01*
X290048Y43509D01*
X290043Y43379D01*
X290041Y43248D01*
X293146Y43248D02*
X293144Y43117D01*
X293139Y42987D01*
X293129Y42857D01*
X293116Y42727D01*
X293100Y42597D01*
X293080Y42469D01*
X293056Y42340D01*
X293028Y42213D01*
X292997Y42086D01*
X292962Y41960D01*
X292924Y41835D01*
X292882Y41712D01*
X292837Y41589D01*
X292788Y41468D01*
X292736Y41348D01*
X292680Y41230D01*
X292681Y41230D02*
X292658Y41170D01*
X292632Y41110D01*
X292603Y41053D01*
X292570Y40997D01*
X292534Y40943D01*
X292496Y40891D01*
X292454Y40841D01*
X292410Y40794D01*
X292363Y40749D01*
X292313Y40707D01*
X292262Y40668D01*
X292208Y40632D01*
X292152Y40599D01*
X292095Y40569D01*
X292036Y40542D01*
X291975Y40519D01*
X291914Y40499D01*
X291851Y40483D01*
X291787Y40470D01*
X291723Y40461D01*
X291659Y40456D01*
X291594Y40454D01*
X290507Y41230D02*
X290451Y41348D01*
X290399Y41468D01*
X290350Y41589D01*
X290305Y41711D01*
X290263Y41835D01*
X290225Y41960D01*
X290190Y42086D01*
X290159Y42212D01*
X290131Y42340D01*
X290107Y42468D01*
X290087Y42597D01*
X290071Y42727D01*
X290058Y42857D01*
X290048Y42987D01*
X290043Y43117D01*
X290041Y43248D01*
X290507Y41230D02*
X290530Y41170D01*
X290556Y41110D01*
X290585Y41053D01*
X290618Y40997D01*
X290654Y40943D01*
X290692Y40891D01*
X290734Y40841D01*
X290778Y40794D01*
X290825Y40749D01*
X290875Y40707D01*
X290926Y40668D01*
X290980Y40632D01*
X291036Y40599D01*
X291093Y40569D01*
X291152Y40542D01*
X291213Y40519D01*
X291274Y40499D01*
X291337Y40483D01*
X291401Y40470D01*
X291465Y40461D01*
X291529Y40456D01*
X291594Y40454D01*
X292836Y41696D02*
X290352Y44800D01*
X287659Y42006D02*
X287657Y42083D01*
X287651Y42161D01*
X287642Y42237D01*
X287628Y42314D01*
X287611Y42389D01*
X287590Y42463D01*
X287565Y42537D01*
X287537Y42609D01*
X287505Y42679D01*
X287470Y42748D01*
X287431Y42815D01*
X287389Y42880D01*
X287344Y42943D01*
X287296Y43004D01*
X287245Y43062D01*
X287191Y43117D01*
X287134Y43170D01*
X287075Y43219D01*
X287013Y43266D01*
X286949Y43310D01*
X286883Y43350D01*
X286815Y43387D01*
X286745Y43421D01*
X286674Y43451D01*
X286601Y43477D01*
X286527Y43500D01*
X286452Y43519D01*
X286377Y43534D01*
X286300Y43546D01*
X286223Y43554D01*
X286146Y43558D01*
X286068Y43558D01*
X285991Y43554D01*
X285914Y43546D01*
X285837Y43534D01*
X285762Y43519D01*
X285687Y43500D01*
X285613Y43477D01*
X285540Y43451D01*
X285469Y43421D01*
X285399Y43387D01*
X285331Y43350D01*
X285265Y43310D01*
X285201Y43266D01*
X285139Y43219D01*
X285080Y43170D01*
X285023Y43117D01*
X284969Y43062D01*
X284918Y43004D01*
X284870Y42943D01*
X284825Y42880D01*
X284783Y42815D01*
X284744Y42748D01*
X284709Y42679D01*
X284677Y42609D01*
X284649Y42537D01*
X284624Y42463D01*
X284603Y42389D01*
X284586Y42314D01*
X284572Y42237D01*
X284563Y42161D01*
X284557Y42083D01*
X284555Y42006D01*
X284557Y41929D01*
X284563Y41851D01*
X284572Y41775D01*
X284586Y41698D01*
X284603Y41623D01*
X284624Y41549D01*
X284649Y41475D01*
X284677Y41403D01*
X284709Y41333D01*
X284744Y41264D01*
X284783Y41197D01*
X284825Y41132D01*
X284870Y41069D01*
X284918Y41008D01*
X284969Y40950D01*
X285023Y40895D01*
X285080Y40842D01*
X285139Y40793D01*
X285201Y40746D01*
X285265Y40702D01*
X285331Y40662D01*
X285399Y40625D01*
X285469Y40591D01*
X285540Y40561D01*
X285613Y40535D01*
X285687Y40512D01*
X285762Y40493D01*
X285837Y40478D01*
X285914Y40466D01*
X285991Y40458D01*
X286068Y40454D01*
X286146Y40454D01*
X286223Y40458D01*
X286300Y40466D01*
X286377Y40478D01*
X286452Y40493D01*
X286527Y40512D01*
X286601Y40535D01*
X286674Y40561D01*
X286745Y40591D01*
X286815Y40625D01*
X286883Y40662D01*
X286949Y40702D01*
X287013Y40746D01*
X287075Y40793D01*
X287134Y40842D01*
X287191Y40895D01*
X287245Y40950D01*
X287296Y41008D01*
X287344Y41069D01*
X287389Y41132D01*
X287431Y41197D01*
X287470Y41264D01*
X287505Y41333D01*
X287537Y41403D01*
X287565Y41475D01*
X287590Y41549D01*
X287611Y41623D01*
X287628Y41698D01*
X287642Y41775D01*
X287651Y41851D01*
X287657Y41929D01*
X287659Y42006D01*
X287349Y44800D02*
X287347Y44870D01*
X287341Y44939D01*
X287331Y45008D01*
X287318Y45076D01*
X287300Y45144D01*
X287279Y45210D01*
X287254Y45275D01*
X287226Y45339D01*
X287194Y45401D01*
X287159Y45461D01*
X287120Y45519D01*
X287078Y45574D01*
X287033Y45628D01*
X286985Y45678D01*
X286935Y45726D01*
X286881Y45771D01*
X286826Y45813D01*
X286768Y45852D01*
X286708Y45887D01*
X286646Y45919D01*
X286582Y45947D01*
X286517Y45972D01*
X286451Y45993D01*
X286383Y46011D01*
X286315Y46024D01*
X286246Y46034D01*
X286177Y46040D01*
X286107Y46042D01*
X286037Y46040D01*
X285968Y46034D01*
X285899Y46024D01*
X285831Y46011D01*
X285763Y45993D01*
X285697Y45972D01*
X285632Y45947D01*
X285568Y45919D01*
X285506Y45887D01*
X285446Y45852D01*
X285388Y45813D01*
X285333Y45771D01*
X285279Y45726D01*
X285229Y45678D01*
X285181Y45628D01*
X285136Y45574D01*
X285094Y45519D01*
X285055Y45461D01*
X285020Y45401D01*
X284988Y45339D01*
X284960Y45275D01*
X284935Y45210D01*
X284914Y45144D01*
X284896Y45076D01*
X284883Y45008D01*
X284873Y44939D01*
X284867Y44870D01*
X284865Y44800D01*
X284867Y44730D01*
X284873Y44661D01*
X284883Y44592D01*
X284896Y44524D01*
X284914Y44456D01*
X284935Y44390D01*
X284960Y44325D01*
X284988Y44261D01*
X285020Y44199D01*
X285055Y44139D01*
X285094Y44081D01*
X285136Y44026D01*
X285181Y43972D01*
X285229Y43922D01*
X285279Y43874D01*
X285333Y43829D01*
X285388Y43787D01*
X285446Y43748D01*
X285506Y43713D01*
X285568Y43681D01*
X285632Y43653D01*
X285697Y43628D01*
X285763Y43607D01*
X285831Y43589D01*
X285899Y43576D01*
X285968Y43566D01*
X286037Y43560D01*
X286107Y43558D01*
X286177Y43560D01*
X286246Y43566D01*
X286315Y43576D01*
X286383Y43589D01*
X286451Y43607D01*
X286517Y43628D01*
X286582Y43653D01*
X286646Y43681D01*
X286708Y43713D01*
X286768Y43748D01*
X286826Y43787D01*
X286881Y43829D01*
X286935Y43874D01*
X286985Y43922D01*
X287033Y43972D01*
X287078Y44026D01*
X287120Y44081D01*
X287159Y44139D01*
X287194Y44199D01*
X287226Y44261D01*
X287254Y44325D01*
X287279Y44390D01*
X287300Y44456D01*
X287318Y44524D01*
X287331Y44592D01*
X287341Y44661D01*
X287347Y44730D01*
X287349Y44800D01*
D11*
X369492Y80508D02*
X369492Y92192D01*
X365597Y85701D01*
X361703Y92192D01*
X361703Y80508D01*
X356778Y80508D02*
X356778Y81157D01*
X356129Y81157D01*
X356129Y80508D01*
X356778Y80508D01*
X352347Y80508D02*
X348452Y92192D01*
X344558Y80508D01*
X345531Y83429D02*
X351373Y83429D01*
X340776Y81157D02*
X340776Y80508D01*
X340776Y81157D02*
X340127Y81157D01*
X340127Y80508D01*
X340776Y80508D01*
X335202Y80508D02*
X335202Y92192D01*
X331307Y85701D01*
X327413Y92192D01*
X327413Y80508D01*
X322488Y80508D02*
X322488Y81157D01*
X321839Y81157D01*
X321839Y80508D01*
X322488Y80508D01*
D12*
X105360Y233130D02*
X105360Y261070D01*
X85040Y233130D02*
X85042Y233030D01*
X85048Y232931D01*
X85058Y232831D01*
X85071Y232733D01*
X85089Y232634D01*
X85110Y232537D01*
X85135Y232441D01*
X85164Y232345D01*
X85197Y232251D01*
X85233Y232158D01*
X85273Y232067D01*
X85317Y231977D01*
X85364Y231889D01*
X85414Y231803D01*
X85468Y231719D01*
X85525Y231637D01*
X85585Y231558D01*
X85649Y231480D01*
X85715Y231406D01*
X85784Y231334D01*
X85856Y231265D01*
X85930Y231199D01*
X86008Y231135D01*
X86087Y231075D01*
X86169Y231018D01*
X86253Y230964D01*
X86339Y230914D01*
X86427Y230867D01*
X86517Y230823D01*
X86608Y230783D01*
X86701Y230747D01*
X86795Y230714D01*
X86891Y230685D01*
X86987Y230660D01*
X87084Y230639D01*
X87183Y230621D01*
X87281Y230608D01*
X87381Y230598D01*
X87480Y230592D01*
X87580Y230590D01*
X85040Y261070D02*
X85042Y261170D01*
X85048Y261269D01*
X85058Y261369D01*
X85071Y261467D01*
X85089Y261566D01*
X85110Y261663D01*
X85135Y261759D01*
X85164Y261855D01*
X85197Y261949D01*
X85233Y262042D01*
X85273Y262133D01*
X85317Y262223D01*
X85364Y262311D01*
X85414Y262397D01*
X85468Y262481D01*
X85525Y262563D01*
X85585Y262642D01*
X85649Y262720D01*
X85715Y262794D01*
X85784Y262866D01*
X85856Y262935D01*
X85930Y263001D01*
X86008Y263065D01*
X86087Y263125D01*
X86169Y263182D01*
X86253Y263236D01*
X86339Y263286D01*
X86427Y263333D01*
X86517Y263377D01*
X86608Y263417D01*
X86701Y263453D01*
X86795Y263486D01*
X86891Y263515D01*
X86987Y263540D01*
X87084Y263561D01*
X87183Y263579D01*
X87281Y263592D01*
X87381Y263602D01*
X87480Y263608D01*
X87580Y263610D01*
X102820Y263610D02*
X102920Y263608D01*
X103019Y263602D01*
X103119Y263592D01*
X103217Y263579D01*
X103316Y263561D01*
X103413Y263540D01*
X103509Y263515D01*
X103605Y263486D01*
X103699Y263453D01*
X103792Y263417D01*
X103883Y263377D01*
X103973Y263333D01*
X104061Y263286D01*
X104147Y263236D01*
X104231Y263182D01*
X104313Y263125D01*
X104392Y263065D01*
X104470Y263001D01*
X104544Y262935D01*
X104616Y262866D01*
X104685Y262794D01*
X104751Y262720D01*
X104815Y262642D01*
X104875Y262563D01*
X104932Y262481D01*
X104986Y262397D01*
X105036Y262311D01*
X105083Y262223D01*
X105127Y262133D01*
X105167Y262042D01*
X105203Y261949D01*
X105236Y261855D01*
X105265Y261759D01*
X105290Y261663D01*
X105311Y261566D01*
X105329Y261467D01*
X105342Y261369D01*
X105352Y261269D01*
X105358Y261170D01*
X105360Y261070D01*
X105360Y233130D02*
X105358Y233030D01*
X105352Y232931D01*
X105342Y232831D01*
X105329Y232733D01*
X105311Y232634D01*
X105290Y232537D01*
X105265Y232441D01*
X105236Y232345D01*
X105203Y232251D01*
X105167Y232158D01*
X105127Y232067D01*
X105083Y231977D01*
X105036Y231889D01*
X104986Y231803D01*
X104932Y231719D01*
X104875Y231637D01*
X104815Y231558D01*
X104751Y231480D01*
X104685Y231406D01*
X104616Y231334D01*
X104544Y231265D01*
X104470Y231199D01*
X104392Y231135D01*
X104313Y231075D01*
X104231Y231018D01*
X104147Y230964D01*
X104061Y230914D01*
X103973Y230867D01*
X103883Y230823D01*
X103792Y230783D01*
X103699Y230747D01*
X103605Y230714D01*
X103509Y230685D01*
X103413Y230660D01*
X103316Y230639D01*
X103217Y230621D01*
X103119Y230608D01*
X103019Y230598D01*
X102920Y230592D01*
X102820Y230590D01*
X87580Y230590D01*
X87580Y263610D02*
X102820Y263610D01*
X85040Y261070D02*
X85040Y233130D01*
D10*
X102656Y265884D02*
X101471Y269440D01*
X100285Y265884D01*
X100582Y266773D02*
X102360Y266773D01*
X98679Y265884D02*
X98679Y269440D01*
X97691Y269440D01*
X97629Y269438D01*
X97567Y269432D01*
X97506Y269423D01*
X97445Y269409D01*
X97386Y269392D01*
X97327Y269371D01*
X97270Y269346D01*
X97215Y269318D01*
X97162Y269286D01*
X97110Y269251D01*
X97061Y269213D01*
X97015Y269172D01*
X96971Y269128D01*
X96930Y269082D01*
X96892Y269033D01*
X96857Y268981D01*
X96825Y268928D01*
X96797Y268873D01*
X96772Y268816D01*
X96751Y268757D01*
X96734Y268698D01*
X96721Y268637D01*
X96711Y268576D01*
X96705Y268514D01*
X96703Y268452D01*
X96703Y266872D01*
X96705Y266810D01*
X96711Y266748D01*
X96721Y266687D01*
X96734Y266626D01*
X96751Y266567D01*
X96772Y266508D01*
X96797Y266451D01*
X96825Y266396D01*
X96857Y266343D01*
X96892Y266291D01*
X96930Y266242D01*
X96971Y266196D01*
X97015Y266152D01*
X97061Y266111D01*
X97110Y266073D01*
X97162Y266038D01*
X97215Y266006D01*
X97270Y265978D01*
X97327Y265953D01*
X97386Y265932D01*
X97445Y265915D01*
X97506Y265901D01*
X97567Y265892D01*
X97629Y265886D01*
X97691Y265884D01*
X98679Y265884D01*
X94747Y265884D02*
X94747Y269440D01*
X93760Y269440D01*
X93698Y269438D01*
X93636Y269432D01*
X93575Y269422D01*
X93514Y269409D01*
X93455Y269392D01*
X93396Y269371D01*
X93339Y269346D01*
X93284Y269318D01*
X93231Y269286D01*
X93179Y269251D01*
X93130Y269213D01*
X93084Y269172D01*
X93040Y269128D01*
X92999Y269082D01*
X92961Y269033D01*
X92926Y268981D01*
X92894Y268928D01*
X92866Y268873D01*
X92841Y268816D01*
X92820Y268757D01*
X92803Y268698D01*
X92790Y268637D01*
X92780Y268576D01*
X92774Y268514D01*
X92772Y268452D01*
X92774Y268390D01*
X92780Y268328D01*
X92790Y268267D01*
X92803Y268206D01*
X92820Y268147D01*
X92841Y268088D01*
X92866Y268031D01*
X92894Y267976D01*
X92926Y267923D01*
X92961Y267871D01*
X92999Y267822D01*
X93040Y267776D01*
X93084Y267732D01*
X93130Y267691D01*
X93179Y267653D01*
X93231Y267618D01*
X93284Y267586D01*
X93339Y267558D01*
X93396Y267533D01*
X93455Y267512D01*
X93514Y267495D01*
X93575Y267482D01*
X93636Y267472D01*
X93698Y267466D01*
X93760Y267464D01*
X94747Y267464D01*
X93562Y267464D02*
X92772Y265884D01*
X91120Y267662D02*
X91118Y267764D01*
X91113Y267866D01*
X91104Y267968D01*
X91092Y268070D01*
X91076Y268171D01*
X91056Y268271D01*
X91033Y268371D01*
X91007Y268469D01*
X90977Y268567D01*
X90943Y268664D01*
X90907Y268759D01*
X90867Y268853D01*
X90824Y268946D01*
X90823Y268946D02*
X90804Y268996D01*
X90782Y269044D01*
X90755Y269091D01*
X90726Y269135D01*
X90693Y269177D01*
X90658Y269217D01*
X90619Y269254D01*
X90578Y269288D01*
X90535Y269319D01*
X90489Y269347D01*
X90442Y269371D01*
X90393Y269392D01*
X90342Y269409D01*
X90291Y269423D01*
X90238Y269432D01*
X90185Y269438D01*
X90132Y269440D01*
X90079Y269438D01*
X90026Y269432D01*
X89973Y269423D01*
X89922Y269409D01*
X89871Y269392D01*
X89822Y269371D01*
X89775Y269347D01*
X89729Y269319D01*
X89686Y269288D01*
X89645Y269254D01*
X89606Y269217D01*
X89571Y269177D01*
X89538Y269135D01*
X89509Y269091D01*
X89482Y269044D01*
X89460Y268996D01*
X89441Y268946D01*
X89398Y268853D01*
X89358Y268759D01*
X89322Y268664D01*
X89288Y268567D01*
X89258Y268469D01*
X89232Y268371D01*
X89209Y268271D01*
X89189Y268171D01*
X89173Y268070D01*
X89161Y267968D01*
X89152Y267866D01*
X89147Y267764D01*
X89145Y267662D01*
X91120Y267662D02*
X91118Y267560D01*
X91113Y267458D01*
X91104Y267356D01*
X91092Y267254D01*
X91076Y267153D01*
X91056Y267053D01*
X91033Y266953D01*
X91007Y266854D01*
X90977Y266757D01*
X90943Y266660D01*
X90907Y266565D01*
X90867Y266470D01*
X90824Y266378D01*
X90823Y266378D02*
X90804Y266328D01*
X90782Y266280D01*
X90755Y266233D01*
X90726Y266189D01*
X90693Y266147D01*
X90658Y266107D01*
X90619Y266070D01*
X90578Y266036D01*
X90535Y266005D01*
X90489Y265977D01*
X90442Y265953D01*
X90393Y265932D01*
X90342Y265915D01*
X90291Y265901D01*
X90238Y265892D01*
X90185Y265886D01*
X90132Y265884D01*
X89440Y266378D02*
X89397Y266470D01*
X89357Y266565D01*
X89321Y266660D01*
X89287Y266757D01*
X89257Y266854D01*
X89231Y266953D01*
X89208Y267053D01*
X89188Y267153D01*
X89172Y267254D01*
X89160Y267356D01*
X89151Y267458D01*
X89146Y267560D01*
X89144Y267662D01*
X89441Y266378D02*
X89460Y266328D01*
X89482Y266280D01*
X89509Y266233D01*
X89538Y266189D01*
X89571Y266147D01*
X89606Y266107D01*
X89645Y266070D01*
X89686Y266036D01*
X89729Y266005D01*
X89775Y265977D01*
X89822Y265953D01*
X89871Y265932D01*
X89922Y265915D01*
X89973Y265901D01*
X90026Y265892D01*
X90079Y265886D01*
X90132Y265884D01*
X90922Y266674D02*
X89342Y268650D01*
D12*
X131760Y261170D02*
X131760Y233230D01*
X113980Y230690D02*
X113880Y230692D01*
X113781Y230698D01*
X113681Y230708D01*
X113583Y230721D01*
X113484Y230739D01*
X113387Y230760D01*
X113291Y230785D01*
X113195Y230814D01*
X113101Y230847D01*
X113008Y230883D01*
X112917Y230923D01*
X112827Y230967D01*
X112739Y231014D01*
X112653Y231064D01*
X112569Y231118D01*
X112487Y231175D01*
X112408Y231235D01*
X112330Y231299D01*
X112256Y231365D01*
X112184Y231434D01*
X112115Y231506D01*
X112049Y231580D01*
X111985Y231658D01*
X111925Y231737D01*
X111868Y231819D01*
X111814Y231903D01*
X111764Y231989D01*
X111717Y232077D01*
X111673Y232167D01*
X111633Y232258D01*
X111597Y232351D01*
X111564Y232445D01*
X111535Y232541D01*
X111510Y232637D01*
X111489Y232734D01*
X111471Y232833D01*
X111458Y232931D01*
X111448Y233031D01*
X111442Y233130D01*
X111440Y233230D01*
X111440Y261170D02*
X111442Y261270D01*
X111448Y261369D01*
X111458Y261469D01*
X111471Y261567D01*
X111489Y261666D01*
X111510Y261763D01*
X111535Y261859D01*
X111564Y261955D01*
X111597Y262049D01*
X111633Y262142D01*
X111673Y262233D01*
X111717Y262323D01*
X111764Y262411D01*
X111814Y262497D01*
X111868Y262581D01*
X111925Y262663D01*
X111985Y262742D01*
X112049Y262820D01*
X112115Y262894D01*
X112184Y262966D01*
X112256Y263035D01*
X112330Y263101D01*
X112408Y263165D01*
X112487Y263225D01*
X112569Y263282D01*
X112653Y263336D01*
X112739Y263386D01*
X112827Y263433D01*
X112917Y263477D01*
X113008Y263517D01*
X113101Y263553D01*
X113195Y263586D01*
X113291Y263615D01*
X113387Y263640D01*
X113484Y263661D01*
X113583Y263679D01*
X113681Y263692D01*
X113781Y263702D01*
X113880Y263708D01*
X113980Y263710D01*
X129220Y263710D02*
X129320Y263708D01*
X129419Y263702D01*
X129519Y263692D01*
X129617Y263679D01*
X129716Y263661D01*
X129813Y263640D01*
X129909Y263615D01*
X130005Y263586D01*
X130099Y263553D01*
X130192Y263517D01*
X130283Y263477D01*
X130373Y263433D01*
X130461Y263386D01*
X130547Y263336D01*
X130631Y263282D01*
X130713Y263225D01*
X130792Y263165D01*
X130870Y263101D01*
X130944Y263035D01*
X131016Y262966D01*
X131085Y262894D01*
X131151Y262820D01*
X131215Y262742D01*
X131275Y262663D01*
X131332Y262581D01*
X131386Y262497D01*
X131436Y262411D01*
X131483Y262323D01*
X131527Y262233D01*
X131567Y262142D01*
X131603Y262049D01*
X131636Y261955D01*
X131665Y261859D01*
X131690Y261763D01*
X131711Y261666D01*
X131729Y261567D01*
X131742Y261469D01*
X131752Y261369D01*
X131758Y261270D01*
X131760Y261170D01*
X131760Y233230D02*
X131758Y233130D01*
X131752Y233031D01*
X131742Y232931D01*
X131729Y232833D01*
X131711Y232734D01*
X131690Y232637D01*
X131665Y232541D01*
X131636Y232445D01*
X131603Y232351D01*
X131567Y232258D01*
X131527Y232167D01*
X131483Y232077D01*
X131436Y231989D01*
X131386Y231903D01*
X131332Y231819D01*
X131275Y231737D01*
X131215Y231658D01*
X131151Y231580D01*
X131085Y231506D01*
X131016Y231434D01*
X130944Y231365D01*
X130870Y231299D01*
X130792Y231235D01*
X130713Y231175D01*
X130631Y231118D01*
X130547Y231064D01*
X130461Y231014D01*
X130373Y230967D01*
X130283Y230923D01*
X130192Y230883D01*
X130099Y230847D01*
X130005Y230814D01*
X129909Y230785D01*
X129813Y230760D01*
X129716Y230739D01*
X129617Y230721D01*
X129519Y230708D01*
X129419Y230698D01*
X129320Y230692D01*
X129220Y230690D01*
X113980Y230690D01*
X113980Y263710D02*
X129220Y263710D01*
X111440Y261170D02*
X111440Y233230D01*
D10*
X127156Y266084D02*
X125971Y269640D01*
X124785Y266084D01*
X125082Y266973D02*
X126860Y266973D01*
X123179Y266084D02*
X123179Y269640D01*
X122191Y269640D01*
X122129Y269638D01*
X122067Y269632D01*
X122006Y269623D01*
X121945Y269609D01*
X121886Y269592D01*
X121827Y269571D01*
X121770Y269546D01*
X121715Y269518D01*
X121662Y269486D01*
X121610Y269451D01*
X121561Y269413D01*
X121515Y269372D01*
X121471Y269328D01*
X121430Y269282D01*
X121392Y269233D01*
X121357Y269181D01*
X121325Y269128D01*
X121297Y269073D01*
X121272Y269016D01*
X121251Y268957D01*
X121234Y268898D01*
X121221Y268837D01*
X121211Y268776D01*
X121205Y268714D01*
X121203Y268652D01*
X121203Y267072D01*
X121205Y267010D01*
X121211Y266948D01*
X121221Y266887D01*
X121234Y266826D01*
X121251Y266767D01*
X121272Y266708D01*
X121297Y266651D01*
X121325Y266596D01*
X121357Y266543D01*
X121392Y266491D01*
X121430Y266442D01*
X121471Y266396D01*
X121515Y266352D01*
X121561Y266311D01*
X121610Y266273D01*
X121662Y266238D01*
X121715Y266206D01*
X121770Y266178D01*
X121827Y266153D01*
X121886Y266132D01*
X121945Y266115D01*
X122006Y266101D01*
X122067Y266092D01*
X122129Y266086D01*
X122191Y266084D01*
X123179Y266084D01*
X119247Y266084D02*
X119247Y269640D01*
X118260Y269640D01*
X118198Y269638D01*
X118136Y269632D01*
X118075Y269622D01*
X118014Y269609D01*
X117955Y269592D01*
X117896Y269571D01*
X117839Y269546D01*
X117784Y269518D01*
X117731Y269486D01*
X117679Y269451D01*
X117630Y269413D01*
X117584Y269372D01*
X117540Y269328D01*
X117499Y269282D01*
X117461Y269233D01*
X117426Y269181D01*
X117394Y269128D01*
X117366Y269073D01*
X117341Y269016D01*
X117320Y268957D01*
X117303Y268898D01*
X117290Y268837D01*
X117280Y268776D01*
X117274Y268714D01*
X117272Y268652D01*
X117274Y268590D01*
X117280Y268528D01*
X117290Y268467D01*
X117303Y268406D01*
X117320Y268347D01*
X117341Y268288D01*
X117366Y268231D01*
X117394Y268176D01*
X117426Y268123D01*
X117461Y268071D01*
X117499Y268022D01*
X117540Y267976D01*
X117584Y267932D01*
X117630Y267891D01*
X117679Y267853D01*
X117731Y267818D01*
X117784Y267786D01*
X117839Y267758D01*
X117896Y267733D01*
X117955Y267712D01*
X118014Y267695D01*
X118075Y267682D01*
X118136Y267672D01*
X118198Y267666D01*
X118260Y267664D01*
X119247Y267664D01*
X118062Y267664D02*
X117272Y266084D01*
X115620Y268850D02*
X114632Y269640D01*
X114632Y266084D01*
X115620Y266084D02*
X113644Y266084D01*
D12*
X158760Y261140D02*
X158760Y233200D01*
X140980Y230660D02*
X140880Y230662D01*
X140781Y230668D01*
X140681Y230678D01*
X140583Y230691D01*
X140484Y230709D01*
X140387Y230730D01*
X140291Y230755D01*
X140195Y230784D01*
X140101Y230817D01*
X140008Y230853D01*
X139917Y230893D01*
X139827Y230937D01*
X139739Y230984D01*
X139653Y231034D01*
X139569Y231088D01*
X139487Y231145D01*
X139408Y231205D01*
X139330Y231269D01*
X139256Y231335D01*
X139184Y231404D01*
X139115Y231476D01*
X139049Y231550D01*
X138985Y231628D01*
X138925Y231707D01*
X138868Y231789D01*
X138814Y231873D01*
X138764Y231959D01*
X138717Y232047D01*
X138673Y232137D01*
X138633Y232228D01*
X138597Y232321D01*
X138564Y232415D01*
X138535Y232511D01*
X138510Y232607D01*
X138489Y232704D01*
X138471Y232803D01*
X138458Y232901D01*
X138448Y233001D01*
X138442Y233100D01*
X138440Y233200D01*
X138440Y261140D02*
X138442Y261240D01*
X138448Y261339D01*
X138458Y261439D01*
X138471Y261537D01*
X138489Y261636D01*
X138510Y261733D01*
X138535Y261829D01*
X138564Y261925D01*
X138597Y262019D01*
X138633Y262112D01*
X138673Y262203D01*
X138717Y262293D01*
X138764Y262381D01*
X138814Y262467D01*
X138868Y262551D01*
X138925Y262633D01*
X138985Y262712D01*
X139049Y262790D01*
X139115Y262864D01*
X139184Y262936D01*
X139256Y263005D01*
X139330Y263071D01*
X139408Y263135D01*
X139487Y263195D01*
X139569Y263252D01*
X139653Y263306D01*
X139739Y263356D01*
X139827Y263403D01*
X139917Y263447D01*
X140008Y263487D01*
X140101Y263523D01*
X140195Y263556D01*
X140291Y263585D01*
X140387Y263610D01*
X140484Y263631D01*
X140583Y263649D01*
X140681Y263662D01*
X140781Y263672D01*
X140880Y263678D01*
X140980Y263680D01*
X156220Y263680D02*
X156320Y263678D01*
X156419Y263672D01*
X156519Y263662D01*
X156617Y263649D01*
X156716Y263631D01*
X156813Y263610D01*
X156909Y263585D01*
X157005Y263556D01*
X157099Y263523D01*
X157192Y263487D01*
X157283Y263447D01*
X157373Y263403D01*
X157461Y263356D01*
X157547Y263306D01*
X157631Y263252D01*
X157713Y263195D01*
X157792Y263135D01*
X157870Y263071D01*
X157944Y263005D01*
X158016Y262936D01*
X158085Y262864D01*
X158151Y262790D01*
X158215Y262712D01*
X158275Y262633D01*
X158332Y262551D01*
X158386Y262467D01*
X158436Y262381D01*
X158483Y262293D01*
X158527Y262203D01*
X158567Y262112D01*
X158603Y262019D01*
X158636Y261925D01*
X158665Y261829D01*
X158690Y261733D01*
X158711Y261636D01*
X158729Y261537D01*
X158742Y261439D01*
X158752Y261339D01*
X158758Y261240D01*
X158760Y261140D01*
X158760Y233200D02*
X158758Y233100D01*
X158752Y233001D01*
X158742Y232901D01*
X158729Y232803D01*
X158711Y232704D01*
X158690Y232607D01*
X158665Y232511D01*
X158636Y232415D01*
X158603Y232321D01*
X158567Y232228D01*
X158527Y232137D01*
X158483Y232047D01*
X158436Y231959D01*
X158386Y231873D01*
X158332Y231789D01*
X158275Y231707D01*
X158215Y231628D01*
X158151Y231550D01*
X158085Y231476D01*
X158016Y231404D01*
X157944Y231335D01*
X157870Y231269D01*
X157792Y231205D01*
X157713Y231145D01*
X157631Y231088D01*
X157547Y231034D01*
X157461Y230984D01*
X157373Y230937D01*
X157283Y230893D01*
X157192Y230853D01*
X157099Y230817D01*
X157005Y230784D01*
X156909Y230755D01*
X156813Y230730D01*
X156716Y230709D01*
X156617Y230691D01*
X156519Y230678D01*
X156419Y230668D01*
X156320Y230662D01*
X156220Y230660D01*
X140980Y230660D01*
X140980Y263680D02*
X156220Y263680D01*
X138440Y261140D02*
X138440Y233200D01*
D10*
X156686Y266324D02*
X155501Y269880D01*
X154315Y266324D01*
X154612Y267213D02*
X156390Y267213D01*
X152709Y266324D02*
X152709Y269880D01*
X151721Y269880D01*
X151659Y269878D01*
X151597Y269872D01*
X151536Y269863D01*
X151475Y269849D01*
X151416Y269832D01*
X151357Y269811D01*
X151300Y269786D01*
X151245Y269758D01*
X151192Y269726D01*
X151140Y269691D01*
X151091Y269653D01*
X151045Y269612D01*
X151001Y269568D01*
X150960Y269522D01*
X150922Y269473D01*
X150887Y269421D01*
X150855Y269368D01*
X150827Y269313D01*
X150802Y269256D01*
X150781Y269197D01*
X150764Y269138D01*
X150751Y269077D01*
X150741Y269016D01*
X150735Y268954D01*
X150733Y268892D01*
X150733Y267312D01*
X150735Y267250D01*
X150741Y267188D01*
X150751Y267127D01*
X150764Y267066D01*
X150781Y267007D01*
X150802Y266948D01*
X150827Y266891D01*
X150855Y266836D01*
X150887Y266783D01*
X150922Y266731D01*
X150960Y266682D01*
X151001Y266636D01*
X151045Y266592D01*
X151091Y266551D01*
X151140Y266513D01*
X151192Y266478D01*
X151245Y266446D01*
X151300Y266418D01*
X151357Y266393D01*
X151416Y266372D01*
X151475Y266355D01*
X151536Y266341D01*
X151597Y266332D01*
X151659Y266326D01*
X151721Y266324D01*
X152709Y266324D01*
X148777Y266324D02*
X148777Y269880D01*
X147790Y269880D01*
X147728Y269878D01*
X147666Y269872D01*
X147605Y269862D01*
X147544Y269849D01*
X147485Y269832D01*
X147426Y269811D01*
X147369Y269786D01*
X147314Y269758D01*
X147261Y269726D01*
X147209Y269691D01*
X147160Y269653D01*
X147114Y269612D01*
X147070Y269568D01*
X147029Y269522D01*
X146991Y269473D01*
X146956Y269421D01*
X146924Y269368D01*
X146896Y269313D01*
X146871Y269256D01*
X146850Y269197D01*
X146833Y269138D01*
X146820Y269077D01*
X146810Y269016D01*
X146804Y268954D01*
X146802Y268892D01*
X146804Y268830D01*
X146810Y268768D01*
X146820Y268707D01*
X146833Y268646D01*
X146850Y268587D01*
X146871Y268528D01*
X146896Y268471D01*
X146924Y268416D01*
X146956Y268363D01*
X146991Y268311D01*
X147029Y268262D01*
X147070Y268216D01*
X147114Y268172D01*
X147160Y268131D01*
X147209Y268093D01*
X147261Y268058D01*
X147314Y268026D01*
X147369Y267998D01*
X147426Y267973D01*
X147485Y267952D01*
X147544Y267935D01*
X147605Y267922D01*
X147666Y267912D01*
X147728Y267906D01*
X147790Y267904D01*
X148777Y267904D01*
X147592Y267904D02*
X146802Y266324D01*
X144063Y269880D02*
X144005Y269878D01*
X143947Y269872D01*
X143890Y269863D01*
X143833Y269850D01*
X143777Y269833D01*
X143723Y269812D01*
X143670Y269788D01*
X143619Y269761D01*
X143569Y269730D01*
X143522Y269696D01*
X143477Y269659D01*
X143434Y269620D01*
X143395Y269577D01*
X143358Y269532D01*
X143324Y269485D01*
X143293Y269436D01*
X143266Y269384D01*
X143242Y269331D01*
X143221Y269277D01*
X143204Y269221D01*
X143191Y269164D01*
X143182Y269107D01*
X143176Y269049D01*
X143174Y268991D01*
X144063Y269880D02*
X144128Y269878D01*
X144193Y269873D01*
X144258Y269863D01*
X144322Y269850D01*
X144385Y269834D01*
X144447Y269813D01*
X144508Y269790D01*
X144567Y269763D01*
X144625Y269732D01*
X144681Y269698D01*
X144735Y269662D01*
X144786Y269622D01*
X144836Y269579D01*
X144882Y269533D01*
X144927Y269485D01*
X144968Y269435D01*
X145006Y269382D01*
X145041Y269327D01*
X145073Y269270D01*
X145102Y269211D01*
X145128Y269151D01*
X145149Y269090D01*
X143470Y268300D02*
X143429Y268342D01*
X143389Y268387D01*
X143353Y268434D01*
X143320Y268483D01*
X143290Y268535D01*
X143263Y268588D01*
X143240Y268642D01*
X143220Y268698D01*
X143203Y268756D01*
X143191Y268814D01*
X143181Y268872D01*
X143176Y268932D01*
X143174Y268991D01*
X143471Y268300D02*
X145150Y266324D01*
X143174Y266324D01*
D12*
X256360Y261070D02*
X256360Y233130D01*
X238580Y230590D02*
X238480Y230592D01*
X238381Y230598D01*
X238281Y230608D01*
X238183Y230621D01*
X238084Y230639D01*
X237987Y230660D01*
X237891Y230685D01*
X237795Y230714D01*
X237701Y230747D01*
X237608Y230783D01*
X237517Y230823D01*
X237427Y230867D01*
X237339Y230914D01*
X237253Y230964D01*
X237169Y231018D01*
X237087Y231075D01*
X237008Y231135D01*
X236930Y231199D01*
X236856Y231265D01*
X236784Y231334D01*
X236715Y231406D01*
X236649Y231480D01*
X236585Y231558D01*
X236525Y231637D01*
X236468Y231719D01*
X236414Y231803D01*
X236364Y231889D01*
X236317Y231977D01*
X236273Y232067D01*
X236233Y232158D01*
X236197Y232251D01*
X236164Y232345D01*
X236135Y232441D01*
X236110Y232537D01*
X236089Y232634D01*
X236071Y232733D01*
X236058Y232831D01*
X236048Y232931D01*
X236042Y233030D01*
X236040Y233130D01*
X236040Y261070D02*
X236042Y261170D01*
X236048Y261269D01*
X236058Y261369D01*
X236071Y261467D01*
X236089Y261566D01*
X236110Y261663D01*
X236135Y261759D01*
X236164Y261855D01*
X236197Y261949D01*
X236233Y262042D01*
X236273Y262133D01*
X236317Y262223D01*
X236364Y262311D01*
X236414Y262397D01*
X236468Y262481D01*
X236525Y262563D01*
X236585Y262642D01*
X236649Y262720D01*
X236715Y262794D01*
X236784Y262866D01*
X236856Y262935D01*
X236930Y263001D01*
X237008Y263065D01*
X237087Y263125D01*
X237169Y263182D01*
X237253Y263236D01*
X237339Y263286D01*
X237427Y263333D01*
X237517Y263377D01*
X237608Y263417D01*
X237701Y263453D01*
X237795Y263486D01*
X237891Y263515D01*
X237987Y263540D01*
X238084Y263561D01*
X238183Y263579D01*
X238281Y263592D01*
X238381Y263602D01*
X238480Y263608D01*
X238580Y263610D01*
X253820Y263610D02*
X253920Y263608D01*
X254019Y263602D01*
X254119Y263592D01*
X254217Y263579D01*
X254316Y263561D01*
X254413Y263540D01*
X254509Y263515D01*
X254605Y263486D01*
X254699Y263453D01*
X254792Y263417D01*
X254883Y263377D01*
X254973Y263333D01*
X255061Y263286D01*
X255147Y263236D01*
X255231Y263182D01*
X255313Y263125D01*
X255392Y263065D01*
X255470Y263001D01*
X255544Y262935D01*
X255616Y262866D01*
X255685Y262794D01*
X255751Y262720D01*
X255815Y262642D01*
X255875Y262563D01*
X255932Y262481D01*
X255986Y262397D01*
X256036Y262311D01*
X256083Y262223D01*
X256127Y262133D01*
X256167Y262042D01*
X256203Y261949D01*
X256236Y261855D01*
X256265Y261759D01*
X256290Y261663D01*
X256311Y261566D01*
X256329Y261467D01*
X256342Y261369D01*
X256352Y261269D01*
X256358Y261170D01*
X256360Y261070D01*
X256360Y233130D02*
X256358Y233030D01*
X256352Y232931D01*
X256342Y232831D01*
X256329Y232733D01*
X256311Y232634D01*
X256290Y232537D01*
X256265Y232441D01*
X256236Y232345D01*
X256203Y232251D01*
X256167Y232158D01*
X256127Y232067D01*
X256083Y231977D01*
X256036Y231889D01*
X255986Y231803D01*
X255932Y231719D01*
X255875Y231637D01*
X255815Y231558D01*
X255751Y231480D01*
X255685Y231406D01*
X255616Y231334D01*
X255544Y231265D01*
X255470Y231199D01*
X255392Y231135D01*
X255313Y231075D01*
X255231Y231018D01*
X255147Y230964D01*
X255061Y230914D01*
X254973Y230867D01*
X254883Y230823D01*
X254792Y230783D01*
X254699Y230747D01*
X254605Y230714D01*
X254509Y230685D01*
X254413Y230660D01*
X254316Y230639D01*
X254217Y230621D01*
X254119Y230608D01*
X254019Y230598D01*
X253920Y230592D01*
X253820Y230590D01*
X238580Y230590D01*
X238580Y263610D02*
X253820Y263610D01*
X236040Y261070D02*
X236040Y233130D01*
D10*
X253556Y266084D02*
X252371Y269640D01*
X251185Y266084D01*
X251482Y266973D02*
X253260Y266973D01*
X249579Y266084D02*
X249579Y269640D01*
X248591Y269640D01*
X248529Y269638D01*
X248467Y269632D01*
X248406Y269623D01*
X248345Y269609D01*
X248286Y269592D01*
X248227Y269571D01*
X248170Y269546D01*
X248115Y269518D01*
X248062Y269486D01*
X248010Y269451D01*
X247961Y269413D01*
X247915Y269372D01*
X247871Y269328D01*
X247830Y269282D01*
X247792Y269233D01*
X247757Y269181D01*
X247725Y269128D01*
X247697Y269073D01*
X247672Y269016D01*
X247651Y268957D01*
X247634Y268898D01*
X247621Y268837D01*
X247611Y268776D01*
X247605Y268714D01*
X247603Y268652D01*
X247603Y267072D01*
X247605Y267010D01*
X247611Y266948D01*
X247621Y266887D01*
X247634Y266826D01*
X247651Y266767D01*
X247672Y266708D01*
X247697Y266651D01*
X247725Y266596D01*
X247757Y266543D01*
X247792Y266491D01*
X247830Y266442D01*
X247871Y266396D01*
X247915Y266352D01*
X247961Y266311D01*
X248010Y266273D01*
X248062Y266238D01*
X248115Y266206D01*
X248170Y266178D01*
X248227Y266153D01*
X248286Y266132D01*
X248345Y266115D01*
X248406Y266101D01*
X248467Y266092D01*
X248529Y266086D01*
X248591Y266084D01*
X249579Y266084D01*
X245647Y266084D02*
X245647Y269640D01*
X244660Y269640D01*
X244598Y269638D01*
X244536Y269632D01*
X244475Y269622D01*
X244414Y269609D01*
X244355Y269592D01*
X244296Y269571D01*
X244239Y269546D01*
X244184Y269518D01*
X244131Y269486D01*
X244079Y269451D01*
X244030Y269413D01*
X243984Y269372D01*
X243940Y269328D01*
X243899Y269282D01*
X243861Y269233D01*
X243826Y269181D01*
X243794Y269128D01*
X243766Y269073D01*
X243741Y269016D01*
X243720Y268957D01*
X243703Y268898D01*
X243690Y268837D01*
X243680Y268776D01*
X243674Y268714D01*
X243672Y268652D01*
X243674Y268590D01*
X243680Y268528D01*
X243690Y268467D01*
X243703Y268406D01*
X243720Y268347D01*
X243741Y268288D01*
X243766Y268231D01*
X243794Y268176D01*
X243826Y268123D01*
X243861Y268071D01*
X243899Y268022D01*
X243940Y267976D01*
X243984Y267932D01*
X244030Y267891D01*
X244079Y267853D01*
X244131Y267818D01*
X244184Y267786D01*
X244239Y267758D01*
X244296Y267733D01*
X244355Y267712D01*
X244414Y267695D01*
X244475Y267682D01*
X244536Y267672D01*
X244598Y267666D01*
X244660Y267664D01*
X245647Y267664D01*
X244462Y267664D02*
X243672Y266084D01*
X242020Y266084D02*
X241032Y266084D01*
X240970Y266086D01*
X240908Y266092D01*
X240847Y266102D01*
X240786Y266115D01*
X240727Y266132D01*
X240668Y266153D01*
X240611Y266178D01*
X240556Y266206D01*
X240503Y266238D01*
X240451Y266273D01*
X240402Y266311D01*
X240356Y266352D01*
X240312Y266396D01*
X240271Y266442D01*
X240233Y266491D01*
X240198Y266543D01*
X240166Y266596D01*
X240138Y266651D01*
X240113Y266708D01*
X240092Y266767D01*
X240075Y266826D01*
X240062Y266887D01*
X240052Y266948D01*
X240046Y267010D01*
X240044Y267072D01*
X240046Y267134D01*
X240052Y267196D01*
X240062Y267257D01*
X240075Y267318D01*
X240092Y267377D01*
X240113Y267436D01*
X240138Y267493D01*
X240166Y267548D01*
X240198Y267601D01*
X240233Y267653D01*
X240271Y267702D01*
X240312Y267748D01*
X240356Y267792D01*
X240402Y267833D01*
X240451Y267871D01*
X240503Y267906D01*
X240556Y267938D01*
X240611Y267966D01*
X240668Y267991D01*
X240727Y268012D01*
X240786Y268029D01*
X240847Y268042D01*
X240908Y268052D01*
X240970Y268058D01*
X241032Y268060D01*
X240835Y269640D02*
X242020Y269640D01*
X240835Y269640D02*
X240780Y269638D01*
X240725Y269632D01*
X240671Y269623D01*
X240617Y269609D01*
X240565Y269592D01*
X240514Y269572D01*
X240464Y269548D01*
X240416Y269520D01*
X240371Y269489D01*
X240327Y269455D01*
X240286Y269418D01*
X240248Y269379D01*
X240212Y269336D01*
X240180Y269292D01*
X240151Y269245D01*
X240125Y269196D01*
X240103Y269146D01*
X240084Y269094D01*
X240068Y269041D01*
X240057Y268987D01*
X240049Y268933D01*
X240045Y268878D01*
X240045Y268822D01*
X240049Y268767D01*
X240057Y268713D01*
X240068Y268659D01*
X240084Y268606D01*
X240103Y268554D01*
X240125Y268504D01*
X240151Y268455D01*
X240180Y268408D01*
X240212Y268364D01*
X240248Y268321D01*
X240286Y268282D01*
X240327Y268245D01*
X240371Y268211D01*
X240416Y268180D01*
X240464Y268152D01*
X240514Y268128D01*
X240565Y268108D01*
X240617Y268091D01*
X240671Y268077D01*
X240725Y268068D01*
X240780Y268062D01*
X240835Y268060D01*
X241625Y268060D01*
D12*
X283560Y261870D02*
X283560Y233930D01*
X265780Y231390D02*
X265680Y231392D01*
X265581Y231398D01*
X265481Y231408D01*
X265383Y231421D01*
X265284Y231439D01*
X265187Y231460D01*
X265091Y231485D01*
X264995Y231514D01*
X264901Y231547D01*
X264808Y231583D01*
X264717Y231623D01*
X264627Y231667D01*
X264539Y231714D01*
X264453Y231764D01*
X264369Y231818D01*
X264287Y231875D01*
X264208Y231935D01*
X264130Y231999D01*
X264056Y232065D01*
X263984Y232134D01*
X263915Y232206D01*
X263849Y232280D01*
X263785Y232358D01*
X263725Y232437D01*
X263668Y232519D01*
X263614Y232603D01*
X263564Y232689D01*
X263517Y232777D01*
X263473Y232867D01*
X263433Y232958D01*
X263397Y233051D01*
X263364Y233145D01*
X263335Y233241D01*
X263310Y233337D01*
X263289Y233434D01*
X263271Y233533D01*
X263258Y233631D01*
X263248Y233731D01*
X263242Y233830D01*
X263240Y233930D01*
X263240Y261870D02*
X263242Y261970D01*
X263248Y262069D01*
X263258Y262169D01*
X263271Y262267D01*
X263289Y262366D01*
X263310Y262463D01*
X263335Y262559D01*
X263364Y262655D01*
X263397Y262749D01*
X263433Y262842D01*
X263473Y262933D01*
X263517Y263023D01*
X263564Y263111D01*
X263614Y263197D01*
X263668Y263281D01*
X263725Y263363D01*
X263785Y263442D01*
X263849Y263520D01*
X263915Y263594D01*
X263984Y263666D01*
X264056Y263735D01*
X264130Y263801D01*
X264208Y263865D01*
X264287Y263925D01*
X264369Y263982D01*
X264453Y264036D01*
X264539Y264086D01*
X264627Y264133D01*
X264717Y264177D01*
X264808Y264217D01*
X264901Y264253D01*
X264995Y264286D01*
X265091Y264315D01*
X265187Y264340D01*
X265284Y264361D01*
X265383Y264379D01*
X265481Y264392D01*
X265581Y264402D01*
X265680Y264408D01*
X265780Y264410D01*
X281020Y264410D02*
X281120Y264408D01*
X281219Y264402D01*
X281319Y264392D01*
X281417Y264379D01*
X281516Y264361D01*
X281613Y264340D01*
X281709Y264315D01*
X281805Y264286D01*
X281899Y264253D01*
X281992Y264217D01*
X282083Y264177D01*
X282173Y264133D01*
X282261Y264086D01*
X282347Y264036D01*
X282431Y263982D01*
X282513Y263925D01*
X282592Y263865D01*
X282670Y263801D01*
X282744Y263735D01*
X282816Y263666D01*
X282885Y263594D01*
X282951Y263520D01*
X283015Y263442D01*
X283075Y263363D01*
X283132Y263281D01*
X283186Y263197D01*
X283236Y263111D01*
X283283Y263023D01*
X283327Y262933D01*
X283367Y262842D01*
X283403Y262749D01*
X283436Y262655D01*
X283465Y262559D01*
X283490Y262463D01*
X283511Y262366D01*
X283529Y262267D01*
X283542Y262169D01*
X283552Y262069D01*
X283558Y261970D01*
X283560Y261870D01*
X283560Y233930D02*
X283558Y233830D01*
X283552Y233731D01*
X283542Y233631D01*
X283529Y233533D01*
X283511Y233434D01*
X283490Y233337D01*
X283465Y233241D01*
X283436Y233145D01*
X283403Y233051D01*
X283367Y232958D01*
X283327Y232867D01*
X283283Y232777D01*
X283236Y232689D01*
X283186Y232603D01*
X283132Y232519D01*
X283075Y232437D01*
X283015Y232358D01*
X282951Y232280D01*
X282885Y232206D01*
X282816Y232134D01*
X282744Y232065D01*
X282670Y231999D01*
X282592Y231935D01*
X282513Y231875D01*
X282431Y231818D01*
X282347Y231764D01*
X282261Y231714D01*
X282173Y231667D01*
X282083Y231623D01*
X281992Y231583D01*
X281899Y231547D01*
X281805Y231514D01*
X281709Y231485D01*
X281613Y231460D01*
X281516Y231439D01*
X281417Y231421D01*
X281319Y231408D01*
X281219Y231398D01*
X281120Y231392D01*
X281020Y231390D01*
X265780Y231390D01*
X265780Y264410D02*
X281020Y264410D01*
X263240Y261870D02*
X263240Y233930D01*
D10*
X280656Y266584D02*
X279471Y270140D01*
X278285Y266584D01*
X278582Y267473D02*
X280360Y267473D01*
X276679Y266584D02*
X276679Y270140D01*
X275691Y270140D01*
X275629Y270138D01*
X275567Y270132D01*
X275506Y270123D01*
X275445Y270109D01*
X275386Y270092D01*
X275327Y270071D01*
X275270Y270046D01*
X275215Y270018D01*
X275162Y269986D01*
X275110Y269951D01*
X275061Y269913D01*
X275015Y269872D01*
X274971Y269828D01*
X274930Y269782D01*
X274892Y269733D01*
X274857Y269681D01*
X274825Y269628D01*
X274797Y269573D01*
X274772Y269516D01*
X274751Y269457D01*
X274734Y269398D01*
X274721Y269337D01*
X274711Y269276D01*
X274705Y269214D01*
X274703Y269152D01*
X274703Y267572D01*
X274705Y267510D01*
X274711Y267448D01*
X274721Y267387D01*
X274734Y267326D01*
X274751Y267267D01*
X274772Y267208D01*
X274797Y267151D01*
X274825Y267096D01*
X274857Y267043D01*
X274892Y266991D01*
X274930Y266942D01*
X274971Y266896D01*
X275015Y266852D01*
X275061Y266811D01*
X275110Y266773D01*
X275162Y266738D01*
X275215Y266706D01*
X275270Y266678D01*
X275327Y266653D01*
X275386Y266632D01*
X275445Y266615D01*
X275506Y266601D01*
X275567Y266592D01*
X275629Y266586D01*
X275691Y266584D01*
X276679Y266584D01*
X272747Y266584D02*
X272747Y270140D01*
X271760Y270140D01*
X271698Y270138D01*
X271636Y270132D01*
X271575Y270122D01*
X271514Y270109D01*
X271455Y270092D01*
X271396Y270071D01*
X271339Y270046D01*
X271284Y270018D01*
X271231Y269986D01*
X271179Y269951D01*
X271130Y269913D01*
X271084Y269872D01*
X271040Y269828D01*
X270999Y269782D01*
X270961Y269733D01*
X270926Y269681D01*
X270894Y269628D01*
X270866Y269573D01*
X270841Y269516D01*
X270820Y269457D01*
X270803Y269398D01*
X270790Y269337D01*
X270780Y269276D01*
X270774Y269214D01*
X270772Y269152D01*
X270774Y269090D01*
X270780Y269028D01*
X270790Y268967D01*
X270803Y268906D01*
X270820Y268847D01*
X270841Y268788D01*
X270866Y268731D01*
X270894Y268676D01*
X270926Y268623D01*
X270961Y268571D01*
X270999Y268522D01*
X271040Y268476D01*
X271084Y268432D01*
X271130Y268391D01*
X271179Y268353D01*
X271231Y268318D01*
X271284Y268286D01*
X271339Y268258D01*
X271396Y268233D01*
X271455Y268212D01*
X271514Y268195D01*
X271575Y268182D01*
X271636Y268172D01*
X271698Y268166D01*
X271760Y268164D01*
X272747Y268164D01*
X271562Y268164D02*
X270772Y266584D01*
X269120Y267374D02*
X268330Y270140D01*
X269120Y267374D02*
X267144Y267374D01*
X267737Y268164D02*
X267737Y266584D01*
D12*
X310160Y261470D02*
X310160Y233530D01*
X292380Y230990D02*
X292280Y230992D01*
X292181Y230998D01*
X292081Y231008D01*
X291983Y231021D01*
X291884Y231039D01*
X291787Y231060D01*
X291691Y231085D01*
X291595Y231114D01*
X291501Y231147D01*
X291408Y231183D01*
X291317Y231223D01*
X291227Y231267D01*
X291139Y231314D01*
X291053Y231364D01*
X290969Y231418D01*
X290887Y231475D01*
X290808Y231535D01*
X290730Y231599D01*
X290656Y231665D01*
X290584Y231734D01*
X290515Y231806D01*
X290449Y231880D01*
X290385Y231958D01*
X290325Y232037D01*
X290268Y232119D01*
X290214Y232203D01*
X290164Y232289D01*
X290117Y232377D01*
X290073Y232467D01*
X290033Y232558D01*
X289997Y232651D01*
X289964Y232745D01*
X289935Y232841D01*
X289910Y232937D01*
X289889Y233034D01*
X289871Y233133D01*
X289858Y233231D01*
X289848Y233331D01*
X289842Y233430D01*
X289840Y233530D01*
X289840Y261470D02*
X289842Y261570D01*
X289848Y261669D01*
X289858Y261769D01*
X289871Y261867D01*
X289889Y261966D01*
X289910Y262063D01*
X289935Y262159D01*
X289964Y262255D01*
X289997Y262349D01*
X290033Y262442D01*
X290073Y262533D01*
X290117Y262623D01*
X290164Y262711D01*
X290214Y262797D01*
X290268Y262881D01*
X290325Y262963D01*
X290385Y263042D01*
X290449Y263120D01*
X290515Y263194D01*
X290584Y263266D01*
X290656Y263335D01*
X290730Y263401D01*
X290808Y263465D01*
X290887Y263525D01*
X290969Y263582D01*
X291053Y263636D01*
X291139Y263686D01*
X291227Y263733D01*
X291317Y263777D01*
X291408Y263817D01*
X291501Y263853D01*
X291595Y263886D01*
X291691Y263915D01*
X291787Y263940D01*
X291884Y263961D01*
X291983Y263979D01*
X292081Y263992D01*
X292181Y264002D01*
X292280Y264008D01*
X292380Y264010D01*
X307620Y264010D02*
X307720Y264008D01*
X307819Y264002D01*
X307919Y263992D01*
X308017Y263979D01*
X308116Y263961D01*
X308213Y263940D01*
X308309Y263915D01*
X308405Y263886D01*
X308499Y263853D01*
X308592Y263817D01*
X308683Y263777D01*
X308773Y263733D01*
X308861Y263686D01*
X308947Y263636D01*
X309031Y263582D01*
X309113Y263525D01*
X309192Y263465D01*
X309270Y263401D01*
X309344Y263335D01*
X309416Y263266D01*
X309485Y263194D01*
X309551Y263120D01*
X309615Y263042D01*
X309675Y262963D01*
X309732Y262881D01*
X309786Y262797D01*
X309836Y262711D01*
X309883Y262623D01*
X309927Y262533D01*
X309967Y262442D01*
X310003Y262349D01*
X310036Y262255D01*
X310065Y262159D01*
X310090Y262063D01*
X310111Y261966D01*
X310129Y261867D01*
X310142Y261769D01*
X310152Y261669D01*
X310158Y261570D01*
X310160Y261470D01*
X310160Y233530D02*
X310158Y233430D01*
X310152Y233331D01*
X310142Y233231D01*
X310129Y233133D01*
X310111Y233034D01*
X310090Y232937D01*
X310065Y232841D01*
X310036Y232745D01*
X310003Y232651D01*
X309967Y232558D01*
X309927Y232467D01*
X309883Y232377D01*
X309836Y232289D01*
X309786Y232203D01*
X309732Y232119D01*
X309675Y232037D01*
X309615Y231958D01*
X309551Y231880D01*
X309485Y231806D01*
X309416Y231734D01*
X309344Y231665D01*
X309270Y231599D01*
X309192Y231535D01*
X309113Y231475D01*
X309031Y231418D01*
X308947Y231364D01*
X308861Y231314D01*
X308773Y231267D01*
X308683Y231223D01*
X308592Y231183D01*
X308499Y231147D01*
X308405Y231114D01*
X308309Y231085D01*
X308213Y231060D01*
X308116Y231039D01*
X308017Y231021D01*
X307919Y231008D01*
X307819Y230998D01*
X307720Y230992D01*
X307620Y230990D01*
X292380Y230990D01*
X292380Y264010D02*
X307620Y264010D01*
X289840Y261470D02*
X289840Y233530D01*
D10*
X306756Y266184D02*
X305571Y269740D01*
X304385Y266184D01*
X304682Y267073D02*
X306460Y267073D01*
X302779Y266184D02*
X302779Y269740D01*
X301791Y269740D01*
X301729Y269738D01*
X301667Y269732D01*
X301606Y269723D01*
X301545Y269709D01*
X301486Y269692D01*
X301427Y269671D01*
X301370Y269646D01*
X301315Y269618D01*
X301262Y269586D01*
X301210Y269551D01*
X301161Y269513D01*
X301115Y269472D01*
X301071Y269428D01*
X301030Y269382D01*
X300992Y269333D01*
X300957Y269281D01*
X300925Y269228D01*
X300897Y269173D01*
X300872Y269116D01*
X300851Y269057D01*
X300834Y268998D01*
X300821Y268937D01*
X300811Y268876D01*
X300805Y268814D01*
X300803Y268752D01*
X300803Y267172D01*
X300805Y267110D01*
X300811Y267048D01*
X300821Y266987D01*
X300834Y266926D01*
X300851Y266867D01*
X300872Y266808D01*
X300897Y266751D01*
X300925Y266696D01*
X300957Y266643D01*
X300992Y266591D01*
X301030Y266542D01*
X301071Y266496D01*
X301115Y266452D01*
X301161Y266411D01*
X301210Y266373D01*
X301262Y266338D01*
X301315Y266306D01*
X301370Y266278D01*
X301427Y266253D01*
X301486Y266232D01*
X301545Y266215D01*
X301606Y266201D01*
X301667Y266192D01*
X301729Y266186D01*
X301791Y266184D01*
X302779Y266184D01*
X298847Y266184D02*
X298847Y269740D01*
X297860Y269740D01*
X297798Y269738D01*
X297736Y269732D01*
X297675Y269722D01*
X297614Y269709D01*
X297555Y269692D01*
X297496Y269671D01*
X297439Y269646D01*
X297384Y269618D01*
X297331Y269586D01*
X297279Y269551D01*
X297230Y269513D01*
X297184Y269472D01*
X297140Y269428D01*
X297099Y269382D01*
X297061Y269333D01*
X297026Y269281D01*
X296994Y269228D01*
X296966Y269173D01*
X296941Y269116D01*
X296920Y269057D01*
X296903Y268998D01*
X296890Y268937D01*
X296880Y268876D01*
X296874Y268814D01*
X296872Y268752D01*
X296874Y268690D01*
X296880Y268628D01*
X296890Y268567D01*
X296903Y268506D01*
X296920Y268447D01*
X296941Y268388D01*
X296966Y268331D01*
X296994Y268276D01*
X297026Y268223D01*
X297061Y268171D01*
X297099Y268122D01*
X297140Y268076D01*
X297184Y268032D01*
X297230Y267991D01*
X297279Y267953D01*
X297331Y267918D01*
X297384Y267886D01*
X297439Y267858D01*
X297496Y267833D01*
X297555Y267812D01*
X297614Y267795D01*
X297675Y267782D01*
X297736Y267772D01*
X297798Y267766D01*
X297860Y267764D01*
X298847Y267764D01*
X297662Y267764D02*
X296872Y266184D01*
X295220Y266184D02*
X294035Y266184D01*
X293981Y266186D01*
X293927Y266191D01*
X293874Y266201D01*
X293822Y266213D01*
X293770Y266230D01*
X293720Y266249D01*
X293672Y266273D01*
X293625Y266299D01*
X293579Y266329D01*
X293536Y266361D01*
X293496Y266397D01*
X293458Y266435D01*
X293422Y266475D01*
X293390Y266518D01*
X293360Y266564D01*
X293334Y266611D01*
X293310Y266659D01*
X293291Y266709D01*
X293274Y266761D01*
X293262Y266813D01*
X293252Y266866D01*
X293247Y266920D01*
X293245Y266974D01*
X293244Y266974D02*
X293244Y267369D01*
X293245Y267369D02*
X293247Y267423D01*
X293252Y267477D01*
X293262Y267530D01*
X293274Y267582D01*
X293291Y267634D01*
X293310Y267684D01*
X293334Y267732D01*
X293360Y267779D01*
X293390Y267825D01*
X293422Y267868D01*
X293458Y267908D01*
X293496Y267946D01*
X293536Y267982D01*
X293579Y268014D01*
X293625Y268044D01*
X293672Y268070D01*
X293720Y268094D01*
X293770Y268113D01*
X293822Y268130D01*
X293874Y268142D01*
X293927Y268152D01*
X293981Y268157D01*
X294035Y268159D01*
X294035Y268160D02*
X295220Y268160D01*
X295220Y269740D01*
X293244Y269740D01*
M02*
