G04 EAGLE Gerber RS-274X export*
G75*
%MOMM*%
%FSLAX34Y34*%
%LPD*%
%INSilkscreen Top*%
%IPPOS*%
%AMOC8*
5,1,8,0,0,1.08239X$1,22.5*%
G01*
%ADD10C,0.254000*%
%ADD11C,0.076200*%
%ADD12C,0.127000*%
%ADD13C,0.050800*%
%ADD14C,0.152400*%
%ADD15C,0.762000*%
%ADD16R,0.762000X0.508000*%
%ADD17R,0.762000X1.016000*%
%ADD18R,0.508000X0.762000*%
%ADD19R,1.016000X0.762000*%
%ADD20C,0.200000*%
%ADD21C,0.101600*%


D10*
X86270Y250320D02*
X89657Y260480D01*
X93043Y250320D01*
X92197Y252860D02*
X87117Y252860D01*
X98645Y250320D02*
X98645Y260480D01*
X104290Y250320D01*
X104290Y260480D01*
X110993Y260480D02*
X110993Y250320D01*
X109864Y250320D02*
X112122Y250320D01*
X112122Y260480D02*
X109864Y260480D01*
X120320Y250320D02*
X120413Y250322D01*
X120506Y250328D01*
X120599Y250337D01*
X120692Y250351D01*
X120783Y250368D01*
X120874Y250389D01*
X120964Y250414D01*
X121053Y250442D01*
X121141Y250474D01*
X121227Y250510D01*
X121312Y250549D01*
X121395Y250592D01*
X121476Y250638D01*
X121555Y250688D01*
X121632Y250740D01*
X121707Y250796D01*
X121779Y250855D01*
X121849Y250917D01*
X121917Y250981D01*
X121981Y251049D01*
X122043Y251119D01*
X122102Y251191D01*
X122158Y251266D01*
X122210Y251343D01*
X122260Y251422D01*
X122306Y251503D01*
X122349Y251586D01*
X122388Y251671D01*
X122424Y251757D01*
X122456Y251845D01*
X122484Y251934D01*
X122509Y252024D01*
X122530Y252115D01*
X122547Y252206D01*
X122561Y252299D01*
X122570Y252392D01*
X122576Y252485D01*
X122578Y252578D01*
X120320Y250320D02*
X120186Y250322D01*
X120051Y250328D01*
X119917Y250337D01*
X119783Y250350D01*
X119650Y250367D01*
X119517Y250388D01*
X119385Y250413D01*
X119253Y250441D01*
X119122Y250473D01*
X118993Y250508D01*
X118864Y250548D01*
X118737Y250591D01*
X118610Y250637D01*
X118485Y250687D01*
X118362Y250740D01*
X118240Y250797D01*
X118120Y250858D01*
X118001Y250921D01*
X117885Y250988D01*
X117770Y251059D01*
X117658Y251132D01*
X117547Y251209D01*
X117439Y251289D01*
X117333Y251371D01*
X117229Y251457D01*
X117128Y251546D01*
X117029Y251637D01*
X116933Y251731D01*
X117215Y258222D02*
X117217Y258315D01*
X117223Y258408D01*
X117232Y258501D01*
X117246Y258594D01*
X117263Y258685D01*
X117284Y258776D01*
X117309Y258866D01*
X117337Y258955D01*
X117369Y259043D01*
X117405Y259129D01*
X117444Y259214D01*
X117487Y259297D01*
X117533Y259378D01*
X117583Y259457D01*
X117635Y259534D01*
X117691Y259609D01*
X117750Y259681D01*
X117812Y259751D01*
X117876Y259819D01*
X117944Y259883D01*
X118014Y259945D01*
X118086Y260004D01*
X118161Y260060D01*
X118238Y260112D01*
X118317Y260162D01*
X118398Y260208D01*
X118481Y260251D01*
X118566Y260290D01*
X118652Y260326D01*
X118740Y260358D01*
X118829Y260386D01*
X118919Y260411D01*
X119010Y260432D01*
X119101Y260449D01*
X119194Y260463D01*
X119287Y260472D01*
X119380Y260478D01*
X119473Y260480D01*
X119603Y260478D01*
X119732Y260472D01*
X119862Y260462D01*
X119991Y260448D01*
X120119Y260430D01*
X120247Y260409D01*
X120374Y260383D01*
X120500Y260353D01*
X120626Y260320D01*
X120750Y260283D01*
X120873Y260242D01*
X120995Y260197D01*
X121115Y260149D01*
X121234Y260096D01*
X121351Y260041D01*
X121466Y259981D01*
X121580Y259919D01*
X121691Y259852D01*
X121801Y259783D01*
X121908Y259710D01*
X122013Y259633D01*
X118345Y256247D02*
X118264Y256297D01*
X118185Y256350D01*
X118108Y256406D01*
X118034Y256466D01*
X117963Y256529D01*
X117894Y256595D01*
X117827Y256663D01*
X117764Y256734D01*
X117704Y256808D01*
X117647Y256884D01*
X117593Y256963D01*
X117542Y257043D01*
X117495Y257126D01*
X117451Y257211D01*
X117411Y257297D01*
X117374Y257385D01*
X117341Y257474D01*
X117312Y257565D01*
X117287Y257657D01*
X117265Y257749D01*
X117248Y257843D01*
X117234Y257937D01*
X117224Y258032D01*
X117218Y258127D01*
X117216Y258222D01*
X121449Y254554D02*
X121530Y254503D01*
X121609Y254450D01*
X121686Y254394D01*
X121760Y254334D01*
X121831Y254271D01*
X121900Y254205D01*
X121967Y254137D01*
X122030Y254066D01*
X122090Y253992D01*
X122147Y253916D01*
X122201Y253837D01*
X122252Y253757D01*
X122299Y253674D01*
X122343Y253589D01*
X122383Y253503D01*
X122420Y253415D01*
X122453Y253326D01*
X122482Y253235D01*
X122507Y253144D01*
X122529Y253051D01*
X122546Y252957D01*
X122560Y252863D01*
X122570Y252768D01*
X122576Y252673D01*
X122578Y252578D01*
X121449Y254553D02*
X118345Y256247D01*
X128561Y260480D02*
X128561Y250320D01*
X131948Y254836D02*
X128561Y260480D01*
X131948Y254836D02*
X135334Y260480D01*
X135334Y250320D01*
X141134Y250320D02*
X144521Y260480D01*
X147907Y250320D01*
X147061Y252860D02*
X141981Y252860D01*
X86270Y241430D02*
X86270Y231270D01*
X86270Y241430D02*
X89092Y241430D01*
X89198Y241428D01*
X89303Y241422D01*
X89408Y241412D01*
X89513Y241398D01*
X89617Y241381D01*
X89720Y241359D01*
X89822Y241334D01*
X89924Y241305D01*
X90024Y241272D01*
X90123Y241235D01*
X90221Y241195D01*
X90316Y241151D01*
X90411Y241103D01*
X90503Y241052D01*
X90593Y240997D01*
X90682Y240940D01*
X90768Y240879D01*
X90851Y240814D01*
X90933Y240747D01*
X91011Y240677D01*
X91087Y240603D01*
X91161Y240527D01*
X91231Y240449D01*
X91298Y240367D01*
X91363Y240284D01*
X91424Y240198D01*
X91481Y240109D01*
X91536Y240019D01*
X91587Y239927D01*
X91635Y239832D01*
X91679Y239736D01*
X91719Y239639D01*
X91756Y239540D01*
X91789Y239440D01*
X91818Y239338D01*
X91843Y239236D01*
X91865Y239133D01*
X91882Y239029D01*
X91896Y238924D01*
X91906Y238819D01*
X91912Y238713D01*
X91914Y238608D01*
X91914Y234092D01*
X91912Y233986D01*
X91906Y233881D01*
X91896Y233776D01*
X91882Y233671D01*
X91865Y233567D01*
X91843Y233464D01*
X91818Y233362D01*
X91789Y233260D01*
X91756Y233160D01*
X91719Y233061D01*
X91679Y232964D01*
X91635Y232868D01*
X91587Y232773D01*
X91536Y232681D01*
X91481Y232591D01*
X91424Y232502D01*
X91363Y232416D01*
X91298Y232333D01*
X91231Y232251D01*
X91161Y232173D01*
X91087Y232097D01*
X91011Y232023D01*
X90933Y231953D01*
X90852Y231886D01*
X90768Y231821D01*
X90682Y231760D01*
X90593Y231703D01*
X90503Y231648D01*
X90411Y231597D01*
X90316Y231549D01*
X90221Y231505D01*
X90123Y231465D01*
X90024Y231428D01*
X89924Y231395D01*
X89822Y231366D01*
X89720Y231341D01*
X89617Y231319D01*
X89513Y231302D01*
X89408Y231288D01*
X89303Y231278D01*
X89198Y231272D01*
X89092Y231270D01*
X86270Y231270D01*
X98381Y231270D02*
X98381Y238043D01*
X101767Y238043D01*
X101767Y236914D01*
X105475Y238043D02*
X105475Y231270D01*
X105193Y240866D02*
X105193Y241430D01*
X105757Y241430D01*
X105757Y240866D01*
X105193Y240866D01*
X110075Y238043D02*
X112333Y231270D01*
X114591Y238043D01*
X121294Y231270D02*
X124116Y231270D01*
X121294Y231270D02*
X121213Y231272D01*
X121133Y231278D01*
X121053Y231287D01*
X120974Y231301D01*
X120895Y231318D01*
X120817Y231339D01*
X120740Y231363D01*
X120665Y231391D01*
X120591Y231423D01*
X120518Y231458D01*
X120448Y231497D01*
X120379Y231539D01*
X120312Y231584D01*
X120247Y231632D01*
X120185Y231684D01*
X120126Y231738D01*
X120069Y231795D01*
X120015Y231854D01*
X119963Y231916D01*
X119915Y231981D01*
X119870Y232048D01*
X119828Y232117D01*
X119789Y232187D01*
X119754Y232260D01*
X119722Y232334D01*
X119694Y232409D01*
X119670Y232486D01*
X119649Y232564D01*
X119632Y232643D01*
X119618Y232722D01*
X119609Y232802D01*
X119603Y232882D01*
X119601Y232963D01*
X119600Y232963D02*
X119600Y235786D01*
X119602Y235879D01*
X119608Y235972D01*
X119617Y236065D01*
X119631Y236158D01*
X119648Y236249D01*
X119669Y236340D01*
X119694Y236430D01*
X119722Y236519D01*
X119754Y236607D01*
X119790Y236693D01*
X119829Y236778D01*
X119872Y236861D01*
X119918Y236942D01*
X119968Y237021D01*
X120020Y237098D01*
X120076Y237173D01*
X120135Y237245D01*
X120197Y237315D01*
X120261Y237383D01*
X120329Y237447D01*
X120399Y237509D01*
X120471Y237568D01*
X120546Y237624D01*
X120623Y237676D01*
X120702Y237726D01*
X120783Y237772D01*
X120866Y237815D01*
X120951Y237854D01*
X121037Y237890D01*
X121125Y237922D01*
X121214Y237950D01*
X121304Y237975D01*
X121395Y237996D01*
X121486Y238013D01*
X121579Y238027D01*
X121672Y238036D01*
X121765Y238042D01*
X121858Y238044D01*
X121951Y238042D01*
X122044Y238036D01*
X122137Y238027D01*
X122230Y238013D01*
X122321Y237996D01*
X122412Y237975D01*
X122502Y237950D01*
X122591Y237922D01*
X122679Y237890D01*
X122765Y237854D01*
X122850Y237815D01*
X122933Y237772D01*
X123014Y237726D01*
X123093Y237676D01*
X123170Y237624D01*
X123245Y237568D01*
X123317Y237509D01*
X123387Y237447D01*
X123455Y237383D01*
X123519Y237315D01*
X123581Y237245D01*
X123640Y237173D01*
X123696Y237098D01*
X123748Y237021D01*
X123798Y236942D01*
X123844Y236861D01*
X123887Y236778D01*
X123926Y236693D01*
X123962Y236607D01*
X123994Y236519D01*
X124022Y236430D01*
X124047Y236340D01*
X124068Y236249D01*
X124085Y236158D01*
X124099Y236065D01*
X124108Y235972D01*
X124114Y235879D01*
X124116Y235786D01*
X124116Y234657D01*
X119600Y234657D01*
X130004Y231270D02*
X130004Y238043D01*
X133390Y238043D01*
X133390Y236914D01*
X144478Y236914D02*
X147300Y236914D01*
X147406Y236912D01*
X147511Y236906D01*
X147616Y236896D01*
X147721Y236882D01*
X147825Y236865D01*
X147928Y236843D01*
X148030Y236818D01*
X148132Y236789D01*
X148232Y236756D01*
X148331Y236719D01*
X148428Y236679D01*
X148524Y236635D01*
X148619Y236587D01*
X148711Y236536D01*
X148801Y236481D01*
X148890Y236424D01*
X148976Y236363D01*
X149059Y236298D01*
X149141Y236231D01*
X149219Y236161D01*
X149295Y236087D01*
X149369Y236011D01*
X149439Y235933D01*
X149506Y235851D01*
X149571Y235768D01*
X149632Y235682D01*
X149689Y235593D01*
X149744Y235503D01*
X149795Y235411D01*
X149843Y235316D01*
X149887Y235220D01*
X149927Y235123D01*
X149964Y235024D01*
X149997Y234924D01*
X150026Y234822D01*
X150051Y234720D01*
X150073Y234617D01*
X150090Y234513D01*
X150104Y234408D01*
X150114Y234303D01*
X150120Y234198D01*
X150122Y234092D01*
X150120Y233986D01*
X150114Y233881D01*
X150104Y233776D01*
X150090Y233671D01*
X150073Y233567D01*
X150051Y233464D01*
X150026Y233362D01*
X149997Y233260D01*
X149964Y233160D01*
X149927Y233061D01*
X149887Y232964D01*
X149843Y232868D01*
X149795Y232773D01*
X149744Y232681D01*
X149689Y232591D01*
X149632Y232502D01*
X149571Y232416D01*
X149506Y232333D01*
X149439Y232251D01*
X149369Y232173D01*
X149295Y232097D01*
X149219Y232023D01*
X149141Y231953D01*
X149059Y231886D01*
X148976Y231821D01*
X148890Y231760D01*
X148801Y231703D01*
X148711Y231648D01*
X148619Y231597D01*
X148524Y231549D01*
X148428Y231505D01*
X148331Y231465D01*
X148232Y231428D01*
X148132Y231395D01*
X148030Y231366D01*
X147928Y231341D01*
X147825Y231319D01*
X147721Y231302D01*
X147616Y231288D01*
X147511Y231278D01*
X147406Y231272D01*
X147300Y231270D01*
X144478Y231270D01*
X144478Y241430D01*
X147300Y241430D01*
X147393Y241428D01*
X147486Y241422D01*
X147579Y241413D01*
X147672Y241399D01*
X147763Y241382D01*
X147854Y241361D01*
X147944Y241336D01*
X148033Y241308D01*
X148121Y241276D01*
X148207Y241240D01*
X148292Y241201D01*
X148375Y241158D01*
X148456Y241112D01*
X148535Y241062D01*
X148612Y241010D01*
X148687Y240954D01*
X148759Y240895D01*
X148829Y240833D01*
X148897Y240769D01*
X148961Y240701D01*
X149023Y240631D01*
X149082Y240559D01*
X149138Y240484D01*
X149190Y240407D01*
X149240Y240328D01*
X149286Y240247D01*
X149329Y240164D01*
X149368Y240079D01*
X149404Y239993D01*
X149436Y239905D01*
X149464Y239816D01*
X149489Y239726D01*
X149510Y239635D01*
X149527Y239544D01*
X149541Y239451D01*
X149550Y239358D01*
X149556Y239265D01*
X149558Y239172D01*
X149556Y239079D01*
X149550Y238986D01*
X149541Y238893D01*
X149527Y238800D01*
X149510Y238709D01*
X149489Y238618D01*
X149464Y238528D01*
X149436Y238439D01*
X149404Y238351D01*
X149368Y238265D01*
X149329Y238180D01*
X149286Y238097D01*
X149240Y238016D01*
X149190Y237937D01*
X149138Y237860D01*
X149082Y237785D01*
X149023Y237713D01*
X148961Y237643D01*
X148897Y237575D01*
X148829Y237511D01*
X148759Y237449D01*
X148687Y237390D01*
X148612Y237334D01*
X148535Y237282D01*
X148456Y237232D01*
X148375Y237186D01*
X148292Y237143D01*
X148207Y237104D01*
X148121Y237068D01*
X148033Y237036D01*
X147944Y237008D01*
X147854Y236983D01*
X147763Y236962D01*
X147672Y236945D01*
X147579Y236931D01*
X147486Y236922D01*
X147393Y236916D01*
X147300Y236914D01*
X155033Y235786D02*
X155033Y233528D01*
X155033Y235786D02*
X155035Y235879D01*
X155041Y235972D01*
X155050Y236065D01*
X155064Y236158D01*
X155081Y236249D01*
X155102Y236340D01*
X155127Y236430D01*
X155155Y236519D01*
X155187Y236607D01*
X155223Y236693D01*
X155262Y236778D01*
X155305Y236861D01*
X155351Y236942D01*
X155401Y237021D01*
X155453Y237098D01*
X155509Y237173D01*
X155568Y237245D01*
X155630Y237315D01*
X155694Y237383D01*
X155762Y237447D01*
X155832Y237509D01*
X155904Y237568D01*
X155979Y237624D01*
X156056Y237676D01*
X156135Y237726D01*
X156216Y237772D01*
X156299Y237815D01*
X156384Y237854D01*
X156470Y237890D01*
X156558Y237922D01*
X156647Y237950D01*
X156737Y237975D01*
X156828Y237996D01*
X156919Y238013D01*
X157012Y238027D01*
X157105Y238036D01*
X157198Y238042D01*
X157291Y238044D01*
X157384Y238042D01*
X157477Y238036D01*
X157570Y238027D01*
X157663Y238013D01*
X157754Y237996D01*
X157845Y237975D01*
X157935Y237950D01*
X158024Y237922D01*
X158112Y237890D01*
X158198Y237854D01*
X158283Y237815D01*
X158366Y237772D01*
X158447Y237726D01*
X158526Y237676D01*
X158603Y237624D01*
X158678Y237568D01*
X158750Y237509D01*
X158820Y237447D01*
X158888Y237383D01*
X158952Y237315D01*
X159014Y237245D01*
X159073Y237173D01*
X159129Y237098D01*
X159181Y237021D01*
X159231Y236942D01*
X159277Y236861D01*
X159320Y236778D01*
X159359Y236693D01*
X159395Y236607D01*
X159427Y236519D01*
X159455Y236430D01*
X159480Y236340D01*
X159501Y236249D01*
X159518Y236158D01*
X159532Y236065D01*
X159541Y235972D01*
X159547Y235879D01*
X159549Y235786D01*
X159549Y233528D01*
X159547Y233435D01*
X159541Y233342D01*
X159532Y233249D01*
X159518Y233156D01*
X159501Y233065D01*
X159480Y232974D01*
X159455Y232884D01*
X159427Y232795D01*
X159395Y232707D01*
X159359Y232621D01*
X159320Y232536D01*
X159277Y232453D01*
X159231Y232372D01*
X159181Y232293D01*
X159129Y232216D01*
X159073Y232141D01*
X159014Y232069D01*
X158952Y231999D01*
X158888Y231931D01*
X158820Y231867D01*
X158750Y231805D01*
X158678Y231746D01*
X158603Y231690D01*
X158526Y231638D01*
X158447Y231588D01*
X158366Y231542D01*
X158283Y231499D01*
X158198Y231460D01*
X158112Y231424D01*
X158024Y231392D01*
X157935Y231364D01*
X157845Y231339D01*
X157754Y231318D01*
X157663Y231301D01*
X157570Y231287D01*
X157477Y231278D01*
X157384Y231272D01*
X157291Y231270D01*
X157198Y231272D01*
X157105Y231278D01*
X157012Y231287D01*
X156919Y231301D01*
X156828Y231318D01*
X156737Y231339D01*
X156647Y231364D01*
X156558Y231392D01*
X156470Y231424D01*
X156384Y231460D01*
X156299Y231499D01*
X156216Y231542D01*
X156135Y231588D01*
X156056Y231638D01*
X155979Y231690D01*
X155904Y231746D01*
X155832Y231805D01*
X155762Y231867D01*
X155694Y231931D01*
X155630Y231999D01*
X155568Y232069D01*
X155509Y232141D01*
X155453Y232216D01*
X155401Y232293D01*
X155351Y232372D01*
X155305Y232453D01*
X155262Y232536D01*
X155223Y232621D01*
X155187Y232707D01*
X155155Y232795D01*
X155127Y232884D01*
X155102Y232974D01*
X155081Y233065D01*
X155064Y233156D01*
X155050Y233249D01*
X155041Y233342D01*
X155035Y233435D01*
X155033Y233528D01*
X166812Y235221D02*
X169352Y235221D01*
X166812Y235222D02*
X166725Y235220D01*
X166637Y235214D01*
X166550Y235205D01*
X166464Y235191D01*
X166378Y235174D01*
X166294Y235153D01*
X166210Y235128D01*
X166127Y235099D01*
X166046Y235067D01*
X165966Y235032D01*
X165888Y234993D01*
X165811Y234950D01*
X165737Y234904D01*
X165665Y234855D01*
X165595Y234803D01*
X165527Y234747D01*
X165462Y234689D01*
X165399Y234628D01*
X165340Y234564D01*
X165283Y234497D01*
X165229Y234429D01*
X165178Y234357D01*
X165131Y234284D01*
X165086Y234209D01*
X165045Y234131D01*
X165008Y234052D01*
X164974Y233972D01*
X164944Y233890D01*
X164917Y233807D01*
X164894Y233722D01*
X164875Y233637D01*
X164860Y233551D01*
X164848Y233464D01*
X164840Y233377D01*
X164836Y233290D01*
X164836Y233202D01*
X164840Y233115D01*
X164848Y233028D01*
X164860Y232941D01*
X164875Y232855D01*
X164894Y232770D01*
X164917Y232685D01*
X164944Y232602D01*
X164974Y232520D01*
X165008Y232440D01*
X165045Y232361D01*
X165086Y232283D01*
X165131Y232208D01*
X165178Y232135D01*
X165229Y232063D01*
X165283Y231995D01*
X165340Y231928D01*
X165399Y231864D01*
X165462Y231803D01*
X165527Y231745D01*
X165595Y231689D01*
X165665Y231637D01*
X165737Y231588D01*
X165811Y231542D01*
X165888Y231499D01*
X165966Y231460D01*
X166046Y231425D01*
X166127Y231393D01*
X166210Y231364D01*
X166294Y231339D01*
X166378Y231318D01*
X166464Y231301D01*
X166550Y231287D01*
X166637Y231278D01*
X166725Y231272D01*
X166812Y231270D01*
X169352Y231270D01*
X169352Y236350D01*
X169351Y236350D02*
X169349Y236431D01*
X169343Y236511D01*
X169334Y236591D01*
X169320Y236670D01*
X169303Y236749D01*
X169282Y236827D01*
X169258Y236904D01*
X169230Y236979D01*
X169198Y237053D01*
X169163Y237126D01*
X169124Y237197D01*
X169082Y237265D01*
X169037Y237332D01*
X168989Y237397D01*
X168937Y237459D01*
X168883Y237518D01*
X168826Y237575D01*
X168767Y237629D01*
X168705Y237681D01*
X168640Y237729D01*
X168573Y237774D01*
X168505Y237816D01*
X168434Y237855D01*
X168361Y237890D01*
X168287Y237922D01*
X168212Y237950D01*
X168135Y237974D01*
X168057Y237995D01*
X167978Y238012D01*
X167899Y238026D01*
X167819Y238035D01*
X167739Y238041D01*
X167658Y238043D01*
X165401Y238043D01*
X175723Y238043D02*
X175723Y231270D01*
X175723Y238043D02*
X179110Y238043D01*
X179110Y236914D01*
X187640Y241430D02*
X187640Y231270D01*
X184817Y231270D01*
X184736Y231272D01*
X184656Y231278D01*
X184576Y231287D01*
X184497Y231301D01*
X184418Y231318D01*
X184340Y231339D01*
X184263Y231363D01*
X184188Y231391D01*
X184114Y231423D01*
X184041Y231458D01*
X183971Y231497D01*
X183902Y231539D01*
X183835Y231584D01*
X183770Y231632D01*
X183708Y231684D01*
X183649Y231738D01*
X183592Y231795D01*
X183538Y231854D01*
X183486Y231916D01*
X183438Y231981D01*
X183393Y232048D01*
X183351Y232117D01*
X183312Y232187D01*
X183277Y232260D01*
X183245Y232334D01*
X183217Y232409D01*
X183193Y232486D01*
X183172Y232564D01*
X183155Y232643D01*
X183141Y232722D01*
X183132Y232802D01*
X183126Y232882D01*
X183124Y232963D01*
X183124Y236350D01*
X183126Y236431D01*
X183132Y236511D01*
X183141Y236591D01*
X183155Y236670D01*
X183172Y236749D01*
X183193Y236827D01*
X183217Y236904D01*
X183245Y236979D01*
X183277Y237053D01*
X183312Y237126D01*
X183351Y237197D01*
X183393Y237265D01*
X183438Y237332D01*
X183486Y237397D01*
X183538Y237459D01*
X183592Y237518D01*
X183649Y237575D01*
X183708Y237629D01*
X183770Y237681D01*
X183835Y237729D01*
X183902Y237774D01*
X183971Y237816D01*
X184041Y237855D01*
X184114Y237890D01*
X184188Y237922D01*
X184263Y237950D01*
X184340Y237974D01*
X184418Y237995D01*
X184497Y238012D01*
X184576Y238026D01*
X184656Y238035D01*
X184736Y238041D01*
X184817Y238043D01*
X187640Y238043D01*
X199229Y238043D02*
X201487Y231270D01*
X203745Y238043D01*
X208951Y236350D02*
X208953Y236550D01*
X208961Y236750D01*
X208972Y236949D01*
X208989Y237148D01*
X209011Y237347D01*
X209037Y237545D01*
X209068Y237743D01*
X209103Y237939D01*
X209144Y238135D01*
X209188Y238330D01*
X209238Y238524D01*
X209292Y238716D01*
X209351Y238907D01*
X209414Y239097D01*
X209482Y239285D01*
X209554Y239471D01*
X209631Y239656D01*
X209712Y239838D01*
X209798Y240019D01*
X209799Y240019D02*
X209830Y240103D01*
X209864Y240185D01*
X209902Y240266D01*
X209943Y240346D01*
X209988Y240423D01*
X210035Y240498D01*
X210086Y240572D01*
X210141Y240643D01*
X210198Y240711D01*
X210258Y240778D01*
X210321Y240841D01*
X210386Y240902D01*
X210454Y240960D01*
X210524Y241015D01*
X210597Y241067D01*
X210672Y241115D01*
X210749Y241161D01*
X210827Y241203D01*
X210908Y241242D01*
X210990Y241277D01*
X211073Y241309D01*
X211158Y241337D01*
X211244Y241362D01*
X211331Y241382D01*
X211418Y241400D01*
X211507Y241413D01*
X211596Y241422D01*
X211685Y241428D01*
X211774Y241430D01*
X211863Y241428D01*
X211952Y241422D01*
X212041Y241413D01*
X212130Y241400D01*
X212217Y241382D01*
X212304Y241362D01*
X212390Y241337D01*
X212475Y241309D01*
X212558Y241277D01*
X212640Y241242D01*
X212721Y241203D01*
X212799Y241161D01*
X212876Y241115D01*
X212951Y241067D01*
X213024Y241015D01*
X213094Y240960D01*
X213162Y240902D01*
X213228Y240841D01*
X213290Y240777D01*
X213350Y240711D01*
X213407Y240643D01*
X213462Y240572D01*
X213513Y240498D01*
X213560Y240423D01*
X213605Y240346D01*
X213646Y240266D01*
X213684Y240185D01*
X213718Y240103D01*
X213749Y240019D01*
X213835Y239838D01*
X213916Y239655D01*
X213993Y239471D01*
X214065Y239284D01*
X214133Y239096D01*
X214196Y238907D01*
X214255Y238716D01*
X214309Y238523D01*
X214359Y238330D01*
X214403Y238135D01*
X214444Y237939D01*
X214479Y237743D01*
X214510Y237545D01*
X214536Y237347D01*
X214558Y237148D01*
X214575Y236949D01*
X214586Y236750D01*
X214594Y236550D01*
X214596Y236350D01*
X208951Y236350D02*
X208953Y236150D01*
X208961Y235950D01*
X208972Y235751D01*
X208989Y235552D01*
X209011Y235353D01*
X209037Y235155D01*
X209068Y234957D01*
X209103Y234761D01*
X209144Y234565D01*
X209188Y234370D01*
X209238Y234176D01*
X209292Y233984D01*
X209351Y233793D01*
X209414Y233603D01*
X209482Y233415D01*
X209554Y233229D01*
X209631Y233044D01*
X209712Y232862D01*
X209798Y232681D01*
X209799Y232681D02*
X209830Y232597D01*
X209864Y232515D01*
X209902Y232434D01*
X209943Y232354D01*
X209988Y232277D01*
X210035Y232202D01*
X210087Y232128D01*
X210141Y232057D01*
X210198Y231989D01*
X210258Y231922D01*
X210321Y231859D01*
X210386Y231798D01*
X210454Y231740D01*
X210524Y231685D01*
X210597Y231633D01*
X210672Y231585D01*
X210749Y231539D01*
X210827Y231497D01*
X210908Y231458D01*
X210990Y231423D01*
X211073Y231391D01*
X211158Y231363D01*
X211244Y231338D01*
X211331Y231318D01*
X211418Y231300D01*
X211507Y231287D01*
X211596Y231278D01*
X211685Y231272D01*
X211774Y231270D01*
X213750Y232681D02*
X213836Y232862D01*
X213917Y233044D01*
X213994Y233229D01*
X214066Y233415D01*
X214134Y233603D01*
X214197Y233793D01*
X214256Y233984D01*
X214310Y234176D01*
X214360Y234370D01*
X214404Y234565D01*
X214445Y234761D01*
X214480Y234957D01*
X214511Y235155D01*
X214537Y235353D01*
X214559Y235552D01*
X214576Y235751D01*
X214587Y235950D01*
X214595Y236150D01*
X214597Y236350D01*
X213749Y232681D02*
X213718Y232597D01*
X213684Y232515D01*
X213646Y232434D01*
X213605Y232354D01*
X213560Y232277D01*
X213513Y232202D01*
X213462Y232128D01*
X213407Y232057D01*
X213350Y231989D01*
X213290Y231922D01*
X213227Y231859D01*
X213162Y231798D01*
X213094Y231740D01*
X213024Y231685D01*
X212951Y231633D01*
X212876Y231585D01*
X212799Y231539D01*
X212721Y231497D01*
X212640Y231458D01*
X212558Y231423D01*
X212475Y231391D01*
X212390Y231363D01*
X212304Y231338D01*
X212217Y231318D01*
X212130Y231300D01*
X212041Y231287D01*
X211952Y231278D01*
X211863Y231272D01*
X211774Y231270D01*
X209516Y233528D02*
X214032Y239172D01*
X219493Y231834D02*
X219493Y231270D01*
X219493Y231834D02*
X220057Y231834D01*
X220057Y231270D01*
X219493Y231270D01*
X224954Y231270D02*
X227776Y231270D01*
X227882Y231272D01*
X227987Y231278D01*
X228092Y231288D01*
X228197Y231302D01*
X228301Y231319D01*
X228404Y231341D01*
X228506Y231366D01*
X228608Y231395D01*
X228708Y231428D01*
X228807Y231465D01*
X228904Y231505D01*
X229000Y231549D01*
X229095Y231597D01*
X229187Y231648D01*
X229277Y231703D01*
X229366Y231760D01*
X229452Y231821D01*
X229535Y231886D01*
X229617Y231953D01*
X229695Y232023D01*
X229771Y232097D01*
X229845Y232173D01*
X229915Y232251D01*
X229982Y232333D01*
X230047Y232416D01*
X230108Y232502D01*
X230165Y232591D01*
X230220Y232681D01*
X230271Y232773D01*
X230319Y232868D01*
X230363Y232964D01*
X230403Y233061D01*
X230440Y233160D01*
X230473Y233260D01*
X230502Y233362D01*
X230527Y233464D01*
X230549Y233567D01*
X230566Y233671D01*
X230580Y233776D01*
X230590Y233881D01*
X230596Y233986D01*
X230598Y234092D01*
X230596Y234198D01*
X230590Y234303D01*
X230580Y234408D01*
X230566Y234513D01*
X230549Y234617D01*
X230527Y234720D01*
X230502Y234822D01*
X230473Y234924D01*
X230440Y235024D01*
X230403Y235123D01*
X230363Y235220D01*
X230319Y235316D01*
X230271Y235411D01*
X230220Y235503D01*
X230165Y235593D01*
X230108Y235682D01*
X230047Y235768D01*
X229982Y235851D01*
X229915Y235933D01*
X229845Y236011D01*
X229771Y236087D01*
X229695Y236161D01*
X229617Y236231D01*
X229535Y236298D01*
X229452Y236363D01*
X229366Y236424D01*
X229277Y236481D01*
X229187Y236536D01*
X229095Y236587D01*
X229000Y236635D01*
X228904Y236679D01*
X228807Y236719D01*
X228708Y236756D01*
X228608Y236789D01*
X228506Y236818D01*
X228404Y236843D01*
X228301Y236865D01*
X228197Y236882D01*
X228092Y236896D01*
X227987Y236906D01*
X227882Y236912D01*
X227776Y236914D01*
X228340Y241430D02*
X224954Y241430D01*
X228340Y241430D02*
X228433Y241428D01*
X228526Y241422D01*
X228619Y241413D01*
X228712Y241399D01*
X228803Y241382D01*
X228894Y241361D01*
X228984Y241336D01*
X229073Y241308D01*
X229161Y241276D01*
X229247Y241240D01*
X229332Y241201D01*
X229415Y241158D01*
X229496Y241112D01*
X229575Y241062D01*
X229652Y241010D01*
X229727Y240954D01*
X229799Y240895D01*
X229869Y240833D01*
X229937Y240769D01*
X230001Y240701D01*
X230063Y240631D01*
X230122Y240559D01*
X230178Y240484D01*
X230230Y240407D01*
X230280Y240328D01*
X230326Y240247D01*
X230369Y240164D01*
X230408Y240079D01*
X230444Y239993D01*
X230476Y239905D01*
X230504Y239816D01*
X230529Y239726D01*
X230550Y239635D01*
X230567Y239544D01*
X230581Y239451D01*
X230590Y239358D01*
X230596Y239265D01*
X230598Y239172D01*
X230596Y239079D01*
X230590Y238986D01*
X230581Y238893D01*
X230567Y238800D01*
X230550Y238709D01*
X230529Y238618D01*
X230504Y238528D01*
X230476Y238439D01*
X230444Y238351D01*
X230408Y238265D01*
X230369Y238180D01*
X230326Y238097D01*
X230280Y238016D01*
X230230Y237937D01*
X230178Y237860D01*
X230122Y237785D01*
X230063Y237713D01*
X230001Y237643D01*
X229937Y237575D01*
X229869Y237511D01*
X229799Y237449D01*
X229727Y237390D01*
X229652Y237334D01*
X229575Y237282D01*
X229496Y237232D01*
X229415Y237186D01*
X229332Y237143D01*
X229247Y237104D01*
X229161Y237068D01*
X229073Y237036D01*
X228984Y237008D01*
X228894Y236983D01*
X228803Y236962D01*
X228712Y236945D01*
X228619Y236931D01*
X228526Y236922D01*
X228433Y236916D01*
X228340Y236914D01*
X226083Y236914D01*
D11*
X103936Y95079D02*
X103936Y85681D01*
X103936Y95079D02*
X106546Y95079D01*
X106647Y95077D01*
X106748Y95071D01*
X106849Y95061D01*
X106949Y95048D01*
X107049Y95030D01*
X107148Y95009D01*
X107246Y94983D01*
X107343Y94954D01*
X107439Y94922D01*
X107533Y94885D01*
X107626Y94845D01*
X107718Y94801D01*
X107807Y94754D01*
X107895Y94703D01*
X107981Y94649D01*
X108064Y94592D01*
X108146Y94532D01*
X108224Y94468D01*
X108301Y94402D01*
X108374Y94332D01*
X108445Y94260D01*
X108513Y94185D01*
X108578Y94107D01*
X108640Y94027D01*
X108699Y93945D01*
X108755Y93860D01*
X108807Y93773D01*
X108856Y93685D01*
X108902Y93594D01*
X108943Y93502D01*
X108982Y93408D01*
X109016Y93313D01*
X109047Y93217D01*
X109074Y93119D01*
X109098Y93021D01*
X109117Y92921D01*
X109133Y92821D01*
X109145Y92721D01*
X109153Y92620D01*
X109157Y92519D01*
X109157Y92417D01*
X109153Y92316D01*
X109145Y92215D01*
X109133Y92115D01*
X109117Y92015D01*
X109098Y91915D01*
X109074Y91817D01*
X109047Y91719D01*
X109016Y91623D01*
X108982Y91528D01*
X108943Y91434D01*
X108902Y91342D01*
X108856Y91251D01*
X108807Y91162D01*
X108755Y91076D01*
X108699Y90991D01*
X108640Y90909D01*
X108578Y90829D01*
X108513Y90751D01*
X108445Y90676D01*
X108374Y90604D01*
X108301Y90534D01*
X108224Y90468D01*
X108146Y90404D01*
X108064Y90344D01*
X107981Y90287D01*
X107895Y90233D01*
X107807Y90182D01*
X107718Y90135D01*
X107626Y90091D01*
X107533Y90051D01*
X107439Y90014D01*
X107343Y89982D01*
X107246Y89953D01*
X107148Y89927D01*
X107049Y89906D01*
X106949Y89888D01*
X106849Y89875D01*
X106748Y89865D01*
X106647Y89859D01*
X106546Y89857D01*
X106546Y89858D02*
X103936Y89858D01*
X112643Y92991D02*
X115254Y95079D01*
X115254Y85681D01*
X112643Y85681D02*
X117865Y85681D01*
X129536Y85381D02*
X129536Y94779D01*
X132146Y94779D01*
X132247Y94777D01*
X132348Y94771D01*
X132449Y94761D01*
X132549Y94748D01*
X132649Y94730D01*
X132748Y94709D01*
X132846Y94683D01*
X132943Y94654D01*
X133039Y94622D01*
X133133Y94585D01*
X133226Y94545D01*
X133318Y94501D01*
X133407Y94454D01*
X133495Y94403D01*
X133581Y94349D01*
X133664Y94292D01*
X133746Y94232D01*
X133824Y94168D01*
X133901Y94102D01*
X133974Y94032D01*
X134045Y93960D01*
X134113Y93885D01*
X134178Y93807D01*
X134240Y93727D01*
X134299Y93645D01*
X134355Y93560D01*
X134407Y93473D01*
X134456Y93385D01*
X134502Y93294D01*
X134543Y93202D01*
X134582Y93108D01*
X134616Y93013D01*
X134647Y92917D01*
X134674Y92819D01*
X134698Y92721D01*
X134717Y92621D01*
X134733Y92521D01*
X134745Y92421D01*
X134753Y92320D01*
X134757Y92219D01*
X134757Y92117D01*
X134753Y92016D01*
X134745Y91915D01*
X134733Y91815D01*
X134717Y91715D01*
X134698Y91615D01*
X134674Y91517D01*
X134647Y91419D01*
X134616Y91323D01*
X134582Y91228D01*
X134543Y91134D01*
X134502Y91042D01*
X134456Y90951D01*
X134407Y90862D01*
X134355Y90776D01*
X134299Y90691D01*
X134240Y90609D01*
X134178Y90529D01*
X134113Y90451D01*
X134045Y90376D01*
X133974Y90304D01*
X133901Y90234D01*
X133824Y90168D01*
X133746Y90104D01*
X133664Y90044D01*
X133581Y89987D01*
X133495Y89933D01*
X133407Y89882D01*
X133318Y89835D01*
X133226Y89791D01*
X133133Y89751D01*
X133039Y89714D01*
X132943Y89682D01*
X132846Y89653D01*
X132748Y89627D01*
X132649Y89606D01*
X132549Y89588D01*
X132449Y89575D01*
X132348Y89565D01*
X132247Y89559D01*
X132146Y89557D01*
X132146Y89558D02*
X129536Y89558D01*
X141115Y94780D02*
X141210Y94778D01*
X141304Y94772D01*
X141398Y94763D01*
X141492Y94750D01*
X141585Y94733D01*
X141677Y94712D01*
X141769Y94687D01*
X141859Y94659D01*
X141948Y94627D01*
X142036Y94592D01*
X142122Y94553D01*
X142207Y94511D01*
X142290Y94465D01*
X142371Y94416D01*
X142450Y94364D01*
X142527Y94309D01*
X142601Y94250D01*
X142673Y94189D01*
X142743Y94125D01*
X142810Y94058D01*
X142874Y93988D01*
X142935Y93916D01*
X142994Y93842D01*
X143049Y93765D01*
X143101Y93686D01*
X143150Y93605D01*
X143196Y93522D01*
X143238Y93437D01*
X143277Y93351D01*
X143312Y93263D01*
X143344Y93174D01*
X143372Y93084D01*
X143397Y92992D01*
X143418Y92900D01*
X143435Y92807D01*
X143448Y92713D01*
X143457Y92619D01*
X143463Y92525D01*
X143465Y92430D01*
X141115Y94779D02*
X141007Y94777D01*
X140898Y94771D01*
X140790Y94761D01*
X140683Y94748D01*
X140576Y94730D01*
X140469Y94709D01*
X140364Y94684D01*
X140259Y94655D01*
X140156Y94623D01*
X140054Y94586D01*
X139953Y94546D01*
X139854Y94503D01*
X139756Y94456D01*
X139660Y94405D01*
X139566Y94351D01*
X139474Y94294D01*
X139384Y94233D01*
X139296Y94169D01*
X139211Y94103D01*
X139128Y94033D01*
X139048Y93960D01*
X138970Y93884D01*
X138895Y93806D01*
X138823Y93725D01*
X138754Y93641D01*
X138688Y93555D01*
X138625Y93467D01*
X138566Y93376D01*
X138509Y93284D01*
X138456Y93189D01*
X138407Y93093D01*
X138361Y92994D01*
X138318Y92895D01*
X138279Y92793D01*
X138244Y92691D01*
X142682Y90602D02*
X142751Y90671D01*
X142817Y90742D01*
X142881Y90815D01*
X142942Y90891D01*
X143000Y90970D01*
X143054Y91050D01*
X143106Y91133D01*
X143154Y91217D01*
X143200Y91303D01*
X143241Y91391D01*
X143280Y91481D01*
X143315Y91572D01*
X143346Y91664D01*
X143374Y91757D01*
X143398Y91851D01*
X143418Y91946D01*
X143435Y92042D01*
X143448Y92139D01*
X143457Y92236D01*
X143463Y92333D01*
X143465Y92430D01*
X142681Y90602D02*
X138243Y85381D01*
X143465Y85381D01*
X155036Y85381D02*
X155036Y94779D01*
X157646Y94779D01*
X157747Y94777D01*
X157848Y94771D01*
X157949Y94761D01*
X158049Y94748D01*
X158149Y94730D01*
X158248Y94709D01*
X158346Y94683D01*
X158443Y94654D01*
X158539Y94622D01*
X158633Y94585D01*
X158726Y94545D01*
X158818Y94501D01*
X158907Y94454D01*
X158995Y94403D01*
X159081Y94349D01*
X159164Y94292D01*
X159246Y94232D01*
X159324Y94168D01*
X159401Y94102D01*
X159474Y94032D01*
X159545Y93960D01*
X159613Y93885D01*
X159678Y93807D01*
X159740Y93727D01*
X159799Y93645D01*
X159855Y93560D01*
X159907Y93473D01*
X159956Y93385D01*
X160002Y93294D01*
X160043Y93202D01*
X160082Y93108D01*
X160116Y93013D01*
X160147Y92917D01*
X160174Y92819D01*
X160198Y92721D01*
X160217Y92621D01*
X160233Y92521D01*
X160245Y92421D01*
X160253Y92320D01*
X160257Y92219D01*
X160257Y92117D01*
X160253Y92016D01*
X160245Y91915D01*
X160233Y91815D01*
X160217Y91715D01*
X160198Y91615D01*
X160174Y91517D01*
X160147Y91419D01*
X160116Y91323D01*
X160082Y91228D01*
X160043Y91134D01*
X160002Y91042D01*
X159956Y90951D01*
X159907Y90862D01*
X159855Y90776D01*
X159799Y90691D01*
X159740Y90609D01*
X159678Y90529D01*
X159613Y90451D01*
X159545Y90376D01*
X159474Y90304D01*
X159401Y90234D01*
X159324Y90168D01*
X159246Y90104D01*
X159164Y90044D01*
X159081Y89987D01*
X158995Y89933D01*
X158907Y89882D01*
X158818Y89835D01*
X158726Y89791D01*
X158633Y89751D01*
X158539Y89714D01*
X158443Y89682D01*
X158346Y89653D01*
X158248Y89627D01*
X158149Y89606D01*
X158049Y89588D01*
X157949Y89575D01*
X157848Y89565D01*
X157747Y89559D01*
X157646Y89557D01*
X157646Y89558D02*
X155036Y89558D01*
X163743Y85381D02*
X166354Y85381D01*
X166455Y85383D01*
X166556Y85389D01*
X166657Y85399D01*
X166757Y85412D01*
X166857Y85430D01*
X166956Y85451D01*
X167054Y85477D01*
X167151Y85506D01*
X167247Y85538D01*
X167341Y85575D01*
X167434Y85615D01*
X167526Y85659D01*
X167615Y85706D01*
X167703Y85757D01*
X167789Y85811D01*
X167872Y85868D01*
X167954Y85928D01*
X168032Y85992D01*
X168109Y86058D01*
X168182Y86128D01*
X168253Y86200D01*
X168321Y86275D01*
X168386Y86353D01*
X168448Y86433D01*
X168507Y86515D01*
X168563Y86600D01*
X168615Y86686D01*
X168664Y86775D01*
X168710Y86866D01*
X168751Y86958D01*
X168790Y87052D01*
X168824Y87147D01*
X168855Y87243D01*
X168882Y87341D01*
X168906Y87439D01*
X168925Y87539D01*
X168941Y87639D01*
X168953Y87739D01*
X168961Y87840D01*
X168965Y87941D01*
X168965Y88043D01*
X168961Y88144D01*
X168953Y88245D01*
X168941Y88345D01*
X168925Y88445D01*
X168906Y88545D01*
X168882Y88643D01*
X168855Y88741D01*
X168824Y88837D01*
X168790Y88932D01*
X168751Y89026D01*
X168710Y89118D01*
X168664Y89209D01*
X168615Y89297D01*
X168563Y89384D01*
X168507Y89469D01*
X168448Y89551D01*
X168386Y89631D01*
X168321Y89709D01*
X168253Y89784D01*
X168182Y89856D01*
X168109Y89926D01*
X168032Y89992D01*
X167954Y90056D01*
X167872Y90116D01*
X167789Y90173D01*
X167703Y90227D01*
X167615Y90278D01*
X167526Y90325D01*
X167434Y90369D01*
X167341Y90409D01*
X167247Y90446D01*
X167151Y90478D01*
X167054Y90507D01*
X166956Y90533D01*
X166857Y90554D01*
X166757Y90572D01*
X166657Y90585D01*
X166556Y90595D01*
X166455Y90601D01*
X166354Y90603D01*
X166876Y94779D02*
X163743Y94779D01*
X166876Y94779D02*
X166966Y94777D01*
X167055Y94771D01*
X167145Y94762D01*
X167234Y94748D01*
X167322Y94731D01*
X167409Y94710D01*
X167496Y94685D01*
X167581Y94656D01*
X167665Y94624D01*
X167747Y94589D01*
X167828Y94549D01*
X167907Y94507D01*
X167984Y94461D01*
X168059Y94411D01*
X168132Y94359D01*
X168203Y94303D01*
X168271Y94245D01*
X168336Y94183D01*
X168399Y94119D01*
X168459Y94052D01*
X168516Y93983D01*
X168570Y93911D01*
X168621Y93837D01*
X168669Y93761D01*
X168713Y93683D01*
X168754Y93603D01*
X168792Y93521D01*
X168826Y93438D01*
X168856Y93353D01*
X168883Y93267D01*
X168906Y93181D01*
X168925Y93093D01*
X168940Y93004D01*
X168952Y92915D01*
X168960Y92826D01*
X168964Y92736D01*
X168964Y92646D01*
X168960Y92556D01*
X168952Y92467D01*
X168940Y92378D01*
X168925Y92289D01*
X168906Y92201D01*
X168883Y92115D01*
X168856Y92029D01*
X168826Y91944D01*
X168792Y91861D01*
X168754Y91779D01*
X168713Y91699D01*
X168669Y91621D01*
X168621Y91545D01*
X168570Y91471D01*
X168516Y91399D01*
X168459Y91330D01*
X168399Y91263D01*
X168336Y91199D01*
X168271Y91137D01*
X168203Y91079D01*
X168132Y91023D01*
X168059Y90971D01*
X167984Y90921D01*
X167907Y90875D01*
X167828Y90833D01*
X167747Y90793D01*
X167665Y90758D01*
X167581Y90726D01*
X167496Y90697D01*
X167409Y90672D01*
X167322Y90651D01*
X167234Y90634D01*
X167145Y90620D01*
X167055Y90611D01*
X166966Y90605D01*
X166876Y90603D01*
X166876Y90602D02*
X164788Y90602D01*
X180236Y94779D02*
X180236Y85381D01*
X180236Y94779D02*
X182846Y94779D01*
X182947Y94777D01*
X183048Y94771D01*
X183149Y94761D01*
X183249Y94748D01*
X183349Y94730D01*
X183448Y94709D01*
X183546Y94683D01*
X183643Y94654D01*
X183739Y94622D01*
X183833Y94585D01*
X183926Y94545D01*
X184018Y94501D01*
X184107Y94454D01*
X184195Y94403D01*
X184281Y94349D01*
X184364Y94292D01*
X184446Y94232D01*
X184524Y94168D01*
X184601Y94102D01*
X184674Y94032D01*
X184745Y93960D01*
X184813Y93885D01*
X184878Y93807D01*
X184940Y93727D01*
X184999Y93645D01*
X185055Y93560D01*
X185107Y93473D01*
X185156Y93385D01*
X185202Y93294D01*
X185243Y93202D01*
X185282Y93108D01*
X185316Y93013D01*
X185347Y92917D01*
X185374Y92819D01*
X185398Y92721D01*
X185417Y92621D01*
X185433Y92521D01*
X185445Y92421D01*
X185453Y92320D01*
X185457Y92219D01*
X185457Y92117D01*
X185453Y92016D01*
X185445Y91915D01*
X185433Y91815D01*
X185417Y91715D01*
X185398Y91615D01*
X185374Y91517D01*
X185347Y91419D01*
X185316Y91323D01*
X185282Y91228D01*
X185243Y91134D01*
X185202Y91042D01*
X185156Y90951D01*
X185107Y90862D01*
X185055Y90776D01*
X184999Y90691D01*
X184940Y90609D01*
X184878Y90529D01*
X184813Y90451D01*
X184745Y90376D01*
X184674Y90304D01*
X184601Y90234D01*
X184524Y90168D01*
X184446Y90104D01*
X184364Y90044D01*
X184281Y89987D01*
X184195Y89933D01*
X184107Y89882D01*
X184018Y89835D01*
X183926Y89791D01*
X183833Y89751D01*
X183739Y89714D01*
X183643Y89682D01*
X183546Y89653D01*
X183448Y89627D01*
X183349Y89606D01*
X183249Y89588D01*
X183149Y89575D01*
X183048Y89565D01*
X182947Y89559D01*
X182846Y89557D01*
X182846Y89558D02*
X180236Y89558D01*
X188943Y87469D02*
X191032Y94779D01*
X188943Y87469D02*
X194165Y87469D01*
X192598Y85381D02*
X192598Y89558D01*
X205436Y85581D02*
X205436Y94979D01*
X208046Y94979D01*
X208147Y94977D01*
X208248Y94971D01*
X208349Y94961D01*
X208449Y94948D01*
X208549Y94930D01*
X208648Y94909D01*
X208746Y94883D01*
X208843Y94854D01*
X208939Y94822D01*
X209033Y94785D01*
X209126Y94745D01*
X209218Y94701D01*
X209307Y94654D01*
X209395Y94603D01*
X209481Y94549D01*
X209564Y94492D01*
X209646Y94432D01*
X209724Y94368D01*
X209801Y94302D01*
X209874Y94232D01*
X209945Y94160D01*
X210013Y94085D01*
X210078Y94007D01*
X210140Y93927D01*
X210199Y93845D01*
X210255Y93760D01*
X210307Y93673D01*
X210356Y93585D01*
X210402Y93494D01*
X210443Y93402D01*
X210482Y93308D01*
X210516Y93213D01*
X210547Y93117D01*
X210574Y93019D01*
X210598Y92921D01*
X210617Y92821D01*
X210633Y92721D01*
X210645Y92621D01*
X210653Y92520D01*
X210657Y92419D01*
X210657Y92317D01*
X210653Y92216D01*
X210645Y92115D01*
X210633Y92015D01*
X210617Y91915D01*
X210598Y91815D01*
X210574Y91717D01*
X210547Y91619D01*
X210516Y91523D01*
X210482Y91428D01*
X210443Y91334D01*
X210402Y91242D01*
X210356Y91151D01*
X210307Y91062D01*
X210255Y90976D01*
X210199Y90891D01*
X210140Y90809D01*
X210078Y90729D01*
X210013Y90651D01*
X209945Y90576D01*
X209874Y90504D01*
X209801Y90434D01*
X209724Y90368D01*
X209646Y90304D01*
X209564Y90244D01*
X209481Y90187D01*
X209395Y90133D01*
X209307Y90082D01*
X209218Y90035D01*
X209126Y89991D01*
X209033Y89951D01*
X208939Y89914D01*
X208843Y89882D01*
X208746Y89853D01*
X208648Y89827D01*
X208549Y89806D01*
X208449Y89788D01*
X208349Y89775D01*
X208248Y89765D01*
X208147Y89759D01*
X208046Y89757D01*
X208046Y89758D02*
X205436Y89758D01*
X214143Y85581D02*
X217276Y85581D01*
X217365Y85583D01*
X217453Y85589D01*
X217541Y85598D01*
X217629Y85611D01*
X217716Y85628D01*
X217802Y85648D01*
X217887Y85673D01*
X217972Y85700D01*
X218055Y85732D01*
X218136Y85766D01*
X218216Y85805D01*
X218294Y85846D01*
X218371Y85891D01*
X218445Y85939D01*
X218518Y85990D01*
X218588Y86044D01*
X218655Y86102D01*
X218721Y86162D01*
X218783Y86224D01*
X218843Y86290D01*
X218901Y86357D01*
X218955Y86427D01*
X219006Y86500D01*
X219054Y86574D01*
X219099Y86651D01*
X219140Y86729D01*
X219179Y86809D01*
X219213Y86890D01*
X219245Y86973D01*
X219272Y87058D01*
X219297Y87143D01*
X219317Y87229D01*
X219334Y87316D01*
X219347Y87404D01*
X219356Y87492D01*
X219362Y87580D01*
X219364Y87669D01*
X219365Y87669D02*
X219365Y88714D01*
X219364Y88714D02*
X219362Y88803D01*
X219356Y88891D01*
X219347Y88979D01*
X219334Y89067D01*
X219317Y89154D01*
X219297Y89240D01*
X219272Y89325D01*
X219245Y89410D01*
X219213Y89493D01*
X219179Y89574D01*
X219140Y89654D01*
X219099Y89732D01*
X219054Y89809D01*
X219006Y89883D01*
X218955Y89956D01*
X218901Y90026D01*
X218843Y90093D01*
X218783Y90159D01*
X218721Y90221D01*
X218655Y90281D01*
X218588Y90339D01*
X218518Y90393D01*
X218445Y90444D01*
X218371Y90492D01*
X218294Y90537D01*
X218216Y90578D01*
X218136Y90617D01*
X218055Y90651D01*
X217972Y90683D01*
X217887Y90710D01*
X217802Y90735D01*
X217716Y90755D01*
X217629Y90772D01*
X217541Y90785D01*
X217453Y90794D01*
X217365Y90800D01*
X217276Y90802D01*
X214143Y90802D01*
X214143Y94979D01*
X219365Y94979D01*
X231036Y94579D02*
X231036Y85181D01*
X231036Y94579D02*
X233646Y94579D01*
X233747Y94577D01*
X233848Y94571D01*
X233949Y94561D01*
X234049Y94548D01*
X234149Y94530D01*
X234248Y94509D01*
X234346Y94483D01*
X234443Y94454D01*
X234539Y94422D01*
X234633Y94385D01*
X234726Y94345D01*
X234818Y94301D01*
X234907Y94254D01*
X234995Y94203D01*
X235081Y94149D01*
X235164Y94092D01*
X235246Y94032D01*
X235324Y93968D01*
X235401Y93902D01*
X235474Y93832D01*
X235545Y93760D01*
X235613Y93685D01*
X235678Y93607D01*
X235740Y93527D01*
X235799Y93445D01*
X235855Y93360D01*
X235907Y93273D01*
X235956Y93185D01*
X236002Y93094D01*
X236043Y93002D01*
X236082Y92908D01*
X236116Y92813D01*
X236147Y92717D01*
X236174Y92619D01*
X236198Y92521D01*
X236217Y92421D01*
X236233Y92321D01*
X236245Y92221D01*
X236253Y92120D01*
X236257Y92019D01*
X236257Y91917D01*
X236253Y91816D01*
X236245Y91715D01*
X236233Y91615D01*
X236217Y91515D01*
X236198Y91415D01*
X236174Y91317D01*
X236147Y91219D01*
X236116Y91123D01*
X236082Y91028D01*
X236043Y90934D01*
X236002Y90842D01*
X235956Y90751D01*
X235907Y90662D01*
X235855Y90576D01*
X235799Y90491D01*
X235740Y90409D01*
X235678Y90329D01*
X235613Y90251D01*
X235545Y90176D01*
X235474Y90104D01*
X235401Y90034D01*
X235324Y89968D01*
X235246Y89904D01*
X235164Y89844D01*
X235081Y89787D01*
X234995Y89733D01*
X234907Y89682D01*
X234818Y89635D01*
X234726Y89591D01*
X234633Y89551D01*
X234539Y89514D01*
X234443Y89482D01*
X234346Y89453D01*
X234248Y89427D01*
X234149Y89406D01*
X234049Y89388D01*
X233949Y89375D01*
X233848Y89365D01*
X233747Y89359D01*
X233646Y89357D01*
X233646Y89358D02*
X231036Y89358D01*
X239743Y90402D02*
X242876Y90402D01*
X242965Y90400D01*
X243053Y90394D01*
X243141Y90385D01*
X243229Y90372D01*
X243316Y90355D01*
X243402Y90335D01*
X243487Y90310D01*
X243572Y90283D01*
X243655Y90251D01*
X243736Y90217D01*
X243816Y90178D01*
X243894Y90137D01*
X243971Y90092D01*
X244045Y90044D01*
X244118Y89993D01*
X244188Y89939D01*
X244255Y89881D01*
X244321Y89821D01*
X244383Y89759D01*
X244443Y89693D01*
X244501Y89626D01*
X244555Y89556D01*
X244606Y89483D01*
X244654Y89409D01*
X244699Y89332D01*
X244740Y89254D01*
X244779Y89174D01*
X244813Y89093D01*
X244845Y89010D01*
X244872Y88925D01*
X244897Y88840D01*
X244917Y88754D01*
X244934Y88667D01*
X244947Y88579D01*
X244956Y88491D01*
X244962Y88403D01*
X244964Y88314D01*
X244965Y88314D02*
X244965Y87792D01*
X244963Y87691D01*
X244957Y87590D01*
X244947Y87489D01*
X244934Y87389D01*
X244916Y87289D01*
X244895Y87190D01*
X244869Y87092D01*
X244840Y86995D01*
X244808Y86899D01*
X244771Y86805D01*
X244731Y86712D01*
X244687Y86620D01*
X244640Y86531D01*
X244589Y86443D01*
X244535Y86357D01*
X244478Y86274D01*
X244418Y86192D01*
X244354Y86114D01*
X244288Y86037D01*
X244218Y85964D01*
X244146Y85893D01*
X244071Y85825D01*
X243993Y85760D01*
X243913Y85698D01*
X243831Y85639D01*
X243746Y85583D01*
X243659Y85531D01*
X243571Y85482D01*
X243480Y85436D01*
X243388Y85395D01*
X243294Y85356D01*
X243199Y85322D01*
X243103Y85291D01*
X243005Y85264D01*
X242907Y85240D01*
X242807Y85221D01*
X242707Y85205D01*
X242607Y85193D01*
X242506Y85185D01*
X242405Y85181D01*
X242303Y85181D01*
X242202Y85185D01*
X242101Y85193D01*
X242001Y85205D01*
X241901Y85221D01*
X241801Y85240D01*
X241703Y85264D01*
X241605Y85291D01*
X241509Y85322D01*
X241414Y85356D01*
X241320Y85395D01*
X241228Y85436D01*
X241137Y85482D01*
X241049Y85531D01*
X240962Y85583D01*
X240877Y85639D01*
X240795Y85698D01*
X240715Y85760D01*
X240637Y85825D01*
X240562Y85893D01*
X240490Y85964D01*
X240420Y86037D01*
X240354Y86114D01*
X240290Y86192D01*
X240230Y86274D01*
X240173Y86357D01*
X240119Y86443D01*
X240068Y86531D01*
X240021Y86620D01*
X239977Y86712D01*
X239937Y86805D01*
X239900Y86899D01*
X239868Y86995D01*
X239839Y87092D01*
X239813Y87190D01*
X239792Y87289D01*
X239774Y87389D01*
X239761Y87489D01*
X239751Y87590D01*
X239745Y87691D01*
X239743Y87792D01*
X239743Y90402D01*
X239745Y90531D01*
X239751Y90659D01*
X239761Y90787D01*
X239775Y90915D01*
X239792Y91043D01*
X239814Y91170D01*
X239840Y91296D01*
X239869Y91421D01*
X239902Y91545D01*
X239940Y91668D01*
X239980Y91790D01*
X240025Y91911D01*
X240073Y92030D01*
X240125Y92148D01*
X240181Y92264D01*
X240240Y92378D01*
X240303Y92490D01*
X240369Y92601D01*
X240438Y92709D01*
X240511Y92815D01*
X240587Y92919D01*
X240666Y93021D01*
X240748Y93120D01*
X240833Y93216D01*
X240921Y93310D01*
X241012Y93401D01*
X241106Y93489D01*
X241202Y93574D01*
X241301Y93656D01*
X241403Y93735D01*
X241507Y93811D01*
X241613Y93884D01*
X241721Y93953D01*
X241831Y94019D01*
X241944Y94082D01*
X242058Y94141D01*
X242174Y94197D01*
X242292Y94249D01*
X242411Y94297D01*
X242532Y94342D01*
X242654Y94382D01*
X242777Y94420D01*
X242901Y94453D01*
X243026Y94482D01*
X243152Y94508D01*
X243279Y94530D01*
X243407Y94547D01*
X243535Y94561D01*
X243663Y94571D01*
X243791Y94577D01*
X243920Y94579D01*
X256536Y94679D02*
X256536Y85281D01*
X256536Y94679D02*
X259146Y94679D01*
X259247Y94677D01*
X259348Y94671D01*
X259449Y94661D01*
X259549Y94648D01*
X259649Y94630D01*
X259748Y94609D01*
X259846Y94583D01*
X259943Y94554D01*
X260039Y94522D01*
X260133Y94485D01*
X260226Y94445D01*
X260318Y94401D01*
X260407Y94354D01*
X260495Y94303D01*
X260581Y94249D01*
X260664Y94192D01*
X260746Y94132D01*
X260824Y94068D01*
X260901Y94002D01*
X260974Y93932D01*
X261045Y93860D01*
X261113Y93785D01*
X261178Y93707D01*
X261240Y93627D01*
X261299Y93545D01*
X261355Y93460D01*
X261407Y93373D01*
X261456Y93285D01*
X261502Y93194D01*
X261543Y93102D01*
X261582Y93008D01*
X261616Y92913D01*
X261647Y92817D01*
X261674Y92719D01*
X261698Y92621D01*
X261717Y92521D01*
X261733Y92421D01*
X261745Y92321D01*
X261753Y92220D01*
X261757Y92119D01*
X261757Y92017D01*
X261753Y91916D01*
X261745Y91815D01*
X261733Y91715D01*
X261717Y91615D01*
X261698Y91515D01*
X261674Y91417D01*
X261647Y91319D01*
X261616Y91223D01*
X261582Y91128D01*
X261543Y91034D01*
X261502Y90942D01*
X261456Y90851D01*
X261407Y90762D01*
X261355Y90676D01*
X261299Y90591D01*
X261240Y90509D01*
X261178Y90429D01*
X261113Y90351D01*
X261045Y90276D01*
X260974Y90204D01*
X260901Y90134D01*
X260824Y90068D01*
X260746Y90004D01*
X260664Y89944D01*
X260581Y89887D01*
X260495Y89833D01*
X260407Y89782D01*
X260318Y89735D01*
X260226Y89691D01*
X260133Y89651D01*
X260039Y89614D01*
X259943Y89582D01*
X259846Y89553D01*
X259748Y89527D01*
X259649Y89506D01*
X259549Y89488D01*
X259449Y89475D01*
X259348Y89465D01*
X259247Y89459D01*
X259146Y89457D01*
X259146Y89458D02*
X256536Y89458D01*
X265243Y93635D02*
X265243Y94679D01*
X270465Y94679D01*
X267854Y85281D01*
X281736Y84981D02*
X281736Y94379D01*
X284346Y94379D01*
X284447Y94377D01*
X284548Y94371D01*
X284649Y94361D01*
X284749Y94348D01*
X284849Y94330D01*
X284948Y94309D01*
X285046Y94283D01*
X285143Y94254D01*
X285239Y94222D01*
X285333Y94185D01*
X285426Y94145D01*
X285518Y94101D01*
X285607Y94054D01*
X285695Y94003D01*
X285781Y93949D01*
X285864Y93892D01*
X285946Y93832D01*
X286024Y93768D01*
X286101Y93702D01*
X286174Y93632D01*
X286245Y93560D01*
X286313Y93485D01*
X286378Y93407D01*
X286440Y93327D01*
X286499Y93245D01*
X286555Y93160D01*
X286607Y93073D01*
X286656Y92985D01*
X286702Y92894D01*
X286743Y92802D01*
X286782Y92708D01*
X286816Y92613D01*
X286847Y92517D01*
X286874Y92419D01*
X286898Y92321D01*
X286917Y92221D01*
X286933Y92121D01*
X286945Y92021D01*
X286953Y91920D01*
X286957Y91819D01*
X286957Y91717D01*
X286953Y91616D01*
X286945Y91515D01*
X286933Y91415D01*
X286917Y91315D01*
X286898Y91215D01*
X286874Y91117D01*
X286847Y91019D01*
X286816Y90923D01*
X286782Y90828D01*
X286743Y90734D01*
X286702Y90642D01*
X286656Y90551D01*
X286607Y90462D01*
X286555Y90376D01*
X286499Y90291D01*
X286440Y90209D01*
X286378Y90129D01*
X286313Y90051D01*
X286245Y89976D01*
X286174Y89904D01*
X286101Y89834D01*
X286024Y89768D01*
X285946Y89704D01*
X285864Y89644D01*
X285781Y89587D01*
X285695Y89533D01*
X285607Y89482D01*
X285518Y89435D01*
X285426Y89391D01*
X285333Y89351D01*
X285239Y89314D01*
X285143Y89282D01*
X285046Y89253D01*
X284948Y89227D01*
X284849Y89206D01*
X284749Y89188D01*
X284649Y89175D01*
X284548Y89165D01*
X284447Y89159D01*
X284346Y89157D01*
X284346Y89158D02*
X281736Y89158D01*
X290443Y87592D02*
X290445Y87693D01*
X290451Y87794D01*
X290461Y87895D01*
X290474Y87995D01*
X290492Y88095D01*
X290513Y88194D01*
X290539Y88292D01*
X290568Y88389D01*
X290600Y88485D01*
X290637Y88579D01*
X290677Y88672D01*
X290721Y88764D01*
X290768Y88853D01*
X290819Y88941D01*
X290873Y89027D01*
X290930Y89110D01*
X290990Y89192D01*
X291054Y89270D01*
X291120Y89347D01*
X291190Y89420D01*
X291262Y89491D01*
X291337Y89559D01*
X291415Y89624D01*
X291495Y89686D01*
X291577Y89745D01*
X291662Y89801D01*
X291749Y89853D01*
X291837Y89902D01*
X291928Y89948D01*
X292020Y89989D01*
X292114Y90028D01*
X292209Y90062D01*
X292305Y90093D01*
X292403Y90120D01*
X292501Y90144D01*
X292601Y90163D01*
X292701Y90179D01*
X292801Y90191D01*
X292902Y90199D01*
X293003Y90203D01*
X293105Y90203D01*
X293206Y90199D01*
X293307Y90191D01*
X293407Y90179D01*
X293507Y90163D01*
X293607Y90144D01*
X293705Y90120D01*
X293803Y90093D01*
X293899Y90062D01*
X293994Y90028D01*
X294088Y89989D01*
X294180Y89948D01*
X294271Y89902D01*
X294360Y89853D01*
X294446Y89801D01*
X294531Y89745D01*
X294613Y89686D01*
X294693Y89624D01*
X294771Y89559D01*
X294846Y89491D01*
X294918Y89420D01*
X294988Y89347D01*
X295054Y89270D01*
X295118Y89192D01*
X295178Y89110D01*
X295235Y89027D01*
X295289Y88941D01*
X295340Y88853D01*
X295387Y88764D01*
X295431Y88672D01*
X295471Y88579D01*
X295508Y88485D01*
X295540Y88389D01*
X295569Y88292D01*
X295595Y88194D01*
X295616Y88095D01*
X295634Y87995D01*
X295647Y87895D01*
X295657Y87794D01*
X295663Y87693D01*
X295665Y87592D01*
X295663Y87491D01*
X295657Y87390D01*
X295647Y87289D01*
X295634Y87189D01*
X295616Y87089D01*
X295595Y86990D01*
X295569Y86892D01*
X295540Y86795D01*
X295508Y86699D01*
X295471Y86605D01*
X295431Y86512D01*
X295387Y86420D01*
X295340Y86331D01*
X295289Y86243D01*
X295235Y86157D01*
X295178Y86074D01*
X295118Y85992D01*
X295054Y85914D01*
X294988Y85837D01*
X294918Y85764D01*
X294846Y85693D01*
X294771Y85625D01*
X294693Y85560D01*
X294613Y85498D01*
X294531Y85439D01*
X294446Y85383D01*
X294359Y85331D01*
X294271Y85282D01*
X294180Y85236D01*
X294088Y85195D01*
X293994Y85156D01*
X293899Y85122D01*
X293803Y85091D01*
X293705Y85064D01*
X293607Y85040D01*
X293507Y85021D01*
X293407Y85005D01*
X293307Y84993D01*
X293206Y84985D01*
X293105Y84981D01*
X293003Y84981D01*
X292902Y84985D01*
X292801Y84993D01*
X292701Y85005D01*
X292601Y85021D01*
X292501Y85040D01*
X292403Y85064D01*
X292305Y85091D01*
X292209Y85122D01*
X292114Y85156D01*
X292020Y85195D01*
X291928Y85236D01*
X291837Y85282D01*
X291749Y85331D01*
X291662Y85383D01*
X291577Y85439D01*
X291495Y85498D01*
X291415Y85560D01*
X291337Y85625D01*
X291262Y85693D01*
X291190Y85764D01*
X291120Y85837D01*
X291054Y85914D01*
X290990Y85992D01*
X290930Y86074D01*
X290873Y86157D01*
X290819Y86243D01*
X290768Y86331D01*
X290721Y86420D01*
X290677Y86512D01*
X290637Y86605D01*
X290600Y86699D01*
X290568Y86795D01*
X290539Y86892D01*
X290513Y86990D01*
X290492Y87089D01*
X290474Y87189D01*
X290461Y87289D01*
X290451Y87390D01*
X290445Y87491D01*
X290443Y87592D01*
X290966Y92291D02*
X290968Y92381D01*
X290974Y92470D01*
X290983Y92560D01*
X290997Y92649D01*
X291014Y92737D01*
X291035Y92824D01*
X291060Y92911D01*
X291089Y92996D01*
X291121Y93080D01*
X291156Y93162D01*
X291196Y93243D01*
X291238Y93322D01*
X291284Y93399D01*
X291334Y93474D01*
X291386Y93547D01*
X291442Y93618D01*
X291500Y93686D01*
X291562Y93751D01*
X291626Y93814D01*
X291693Y93874D01*
X291762Y93931D01*
X291834Y93985D01*
X291908Y94036D01*
X291984Y94084D01*
X292062Y94128D01*
X292142Y94169D01*
X292224Y94207D01*
X292307Y94241D01*
X292392Y94271D01*
X292478Y94298D01*
X292564Y94321D01*
X292652Y94340D01*
X292741Y94355D01*
X292830Y94367D01*
X292919Y94375D01*
X293009Y94379D01*
X293099Y94379D01*
X293189Y94375D01*
X293278Y94367D01*
X293367Y94355D01*
X293456Y94340D01*
X293544Y94321D01*
X293630Y94298D01*
X293716Y94271D01*
X293801Y94241D01*
X293884Y94207D01*
X293966Y94169D01*
X294046Y94128D01*
X294124Y94084D01*
X294200Y94036D01*
X294274Y93985D01*
X294346Y93931D01*
X294415Y93874D01*
X294482Y93814D01*
X294546Y93751D01*
X294608Y93686D01*
X294666Y93618D01*
X294722Y93547D01*
X294774Y93474D01*
X294824Y93399D01*
X294870Y93322D01*
X294912Y93243D01*
X294952Y93162D01*
X294987Y93080D01*
X295019Y92996D01*
X295048Y92911D01*
X295073Y92824D01*
X295094Y92737D01*
X295111Y92649D01*
X295125Y92560D01*
X295134Y92470D01*
X295140Y92381D01*
X295142Y92291D01*
X295140Y92201D01*
X295134Y92112D01*
X295125Y92022D01*
X295111Y91933D01*
X295094Y91845D01*
X295073Y91758D01*
X295048Y91671D01*
X295019Y91586D01*
X294987Y91502D01*
X294952Y91420D01*
X294912Y91339D01*
X294870Y91260D01*
X294824Y91183D01*
X294774Y91108D01*
X294722Y91035D01*
X294666Y90964D01*
X294608Y90896D01*
X294546Y90831D01*
X294482Y90768D01*
X294415Y90708D01*
X294346Y90651D01*
X294274Y90597D01*
X294200Y90546D01*
X294124Y90498D01*
X294046Y90454D01*
X293966Y90413D01*
X293884Y90375D01*
X293801Y90341D01*
X293716Y90311D01*
X293630Y90284D01*
X293544Y90261D01*
X293456Y90242D01*
X293367Y90227D01*
X293278Y90215D01*
X293189Y90207D01*
X293099Y90203D01*
X293009Y90203D01*
X292919Y90207D01*
X292830Y90215D01*
X292741Y90227D01*
X292652Y90242D01*
X292564Y90261D01*
X292478Y90284D01*
X292392Y90311D01*
X292307Y90341D01*
X292224Y90375D01*
X292142Y90413D01*
X292062Y90454D01*
X291984Y90498D01*
X291908Y90546D01*
X291834Y90597D01*
X291762Y90651D01*
X291693Y90708D01*
X291626Y90768D01*
X291562Y90831D01*
X291500Y90896D01*
X291442Y90964D01*
X291386Y91035D01*
X291334Y91108D01*
X291284Y91183D01*
X291238Y91260D01*
X291196Y91339D01*
X291156Y91420D01*
X291121Y91502D01*
X291089Y91586D01*
X291060Y91671D01*
X291035Y91758D01*
X291014Y91845D01*
X290997Y91933D01*
X290983Y92022D01*
X290974Y92112D01*
X290968Y92201D01*
X290966Y92291D01*
D12*
X307900Y101600D02*
X307900Y131600D01*
X277900Y131600D01*
X277900Y101600D01*
X307900Y101600D01*
X301486Y106600D02*
X301488Y106675D01*
X301494Y106749D01*
X301504Y106823D01*
X301517Y106896D01*
X301535Y106969D01*
X301556Y107040D01*
X301581Y107111D01*
X301610Y107180D01*
X301643Y107247D01*
X301679Y107312D01*
X301718Y107376D01*
X301760Y107437D01*
X301806Y107496D01*
X301855Y107553D01*
X301907Y107606D01*
X301961Y107657D01*
X302018Y107706D01*
X302078Y107750D01*
X302140Y107792D01*
X302204Y107831D01*
X302270Y107866D01*
X302337Y107897D01*
X302407Y107925D01*
X302477Y107949D01*
X302549Y107970D01*
X302622Y107986D01*
X302695Y107999D01*
X302770Y108008D01*
X302844Y108013D01*
X302919Y108014D01*
X302993Y108011D01*
X303068Y108004D01*
X303141Y107993D01*
X303215Y107979D01*
X303287Y107960D01*
X303358Y107938D01*
X303428Y107912D01*
X303497Y107882D01*
X303563Y107849D01*
X303628Y107812D01*
X303691Y107772D01*
X303752Y107728D01*
X303810Y107682D01*
X303866Y107632D01*
X303919Y107580D01*
X303970Y107525D01*
X304017Y107467D01*
X304061Y107407D01*
X304102Y107344D01*
X304140Y107280D01*
X304174Y107214D01*
X304205Y107145D01*
X304232Y107076D01*
X304255Y107005D01*
X304274Y106933D01*
X304290Y106860D01*
X304302Y106786D01*
X304310Y106712D01*
X304314Y106637D01*
X304314Y106563D01*
X304310Y106488D01*
X304302Y106414D01*
X304290Y106340D01*
X304274Y106267D01*
X304255Y106195D01*
X304232Y106124D01*
X304205Y106055D01*
X304174Y105986D01*
X304140Y105920D01*
X304102Y105856D01*
X304061Y105793D01*
X304017Y105733D01*
X303970Y105675D01*
X303919Y105620D01*
X303866Y105568D01*
X303810Y105518D01*
X303752Y105472D01*
X303691Y105428D01*
X303628Y105388D01*
X303563Y105351D01*
X303497Y105318D01*
X303428Y105288D01*
X303358Y105262D01*
X303287Y105240D01*
X303215Y105221D01*
X303141Y105207D01*
X303068Y105196D01*
X302993Y105189D01*
X302919Y105186D01*
X302844Y105187D01*
X302770Y105192D01*
X302695Y105201D01*
X302622Y105214D01*
X302549Y105230D01*
X302477Y105251D01*
X302407Y105275D01*
X302337Y105303D01*
X302270Y105334D01*
X302204Y105369D01*
X302140Y105408D01*
X302078Y105450D01*
X302018Y105494D01*
X301961Y105543D01*
X301907Y105594D01*
X301855Y105647D01*
X301806Y105704D01*
X301760Y105763D01*
X301718Y105824D01*
X301679Y105888D01*
X301643Y105953D01*
X301610Y106020D01*
X301581Y106089D01*
X301556Y106160D01*
X301535Y106231D01*
X301517Y106304D01*
X301504Y106377D01*
X301494Y106451D01*
X301488Y106525D01*
X301486Y106600D01*
D13*
X281144Y138494D02*
X281144Y143066D01*
X282414Y143066D01*
X282483Y143064D01*
X282551Y143059D01*
X282619Y143049D01*
X282687Y143036D01*
X282754Y143020D01*
X282820Y143000D01*
X282884Y142976D01*
X282947Y142949D01*
X283009Y142918D01*
X283069Y142884D01*
X283127Y142847D01*
X283183Y142807D01*
X283236Y142764D01*
X283287Y142718D01*
X283336Y142669D01*
X283382Y142618D01*
X283425Y142565D01*
X283465Y142509D01*
X283502Y142451D01*
X283536Y142391D01*
X283567Y142329D01*
X283594Y142266D01*
X283618Y142202D01*
X283638Y142136D01*
X283654Y142069D01*
X283667Y142001D01*
X283677Y141933D01*
X283682Y141865D01*
X283684Y141796D01*
X283684Y139764D01*
X283682Y139695D01*
X283677Y139627D01*
X283667Y139559D01*
X283654Y139491D01*
X283638Y139424D01*
X283618Y139358D01*
X283594Y139294D01*
X283567Y139231D01*
X283536Y139169D01*
X283502Y139109D01*
X283465Y139051D01*
X283425Y138995D01*
X283382Y138942D01*
X283336Y138891D01*
X283287Y138842D01*
X283236Y138796D01*
X283183Y138753D01*
X283127Y138713D01*
X283069Y138676D01*
X283009Y138642D01*
X282947Y138611D01*
X282884Y138584D01*
X282820Y138560D01*
X282754Y138540D01*
X282687Y138524D01*
X282619Y138511D01*
X282551Y138501D01*
X282483Y138496D01*
X282414Y138494D01*
X281144Y138494D01*
X286054Y138494D02*
X286054Y143066D01*
X287324Y143066D01*
X287394Y143064D01*
X287464Y143058D01*
X287533Y143049D01*
X287602Y143035D01*
X287670Y143018D01*
X287736Y142997D01*
X287802Y142973D01*
X287866Y142945D01*
X287928Y142913D01*
X287989Y142878D01*
X288048Y142840D01*
X288104Y142798D01*
X288158Y142754D01*
X288210Y142706D01*
X288258Y142656D01*
X288304Y142603D01*
X288347Y142548D01*
X288387Y142491D01*
X288424Y142431D01*
X288457Y142369D01*
X288487Y142306D01*
X288513Y142241D01*
X288536Y142175D01*
X288555Y142108D01*
X288570Y142039D01*
X288582Y141970D01*
X288590Y141901D01*
X288594Y141831D01*
X288594Y141761D01*
X288590Y141691D01*
X288582Y141622D01*
X288570Y141553D01*
X288555Y141484D01*
X288536Y141417D01*
X288513Y141351D01*
X288487Y141286D01*
X288457Y141223D01*
X288424Y141161D01*
X288387Y141101D01*
X288347Y141044D01*
X288304Y140989D01*
X288258Y140936D01*
X288210Y140886D01*
X288158Y140838D01*
X288104Y140794D01*
X288048Y140752D01*
X287989Y140714D01*
X287928Y140679D01*
X287866Y140647D01*
X287802Y140619D01*
X287736Y140595D01*
X287670Y140574D01*
X287602Y140557D01*
X287533Y140543D01*
X287464Y140534D01*
X287394Y140528D01*
X287324Y140526D01*
X286054Y140526D01*
X287578Y140526D02*
X288594Y138494D01*
X291862Y138494D02*
X290338Y143066D01*
X293386Y143066D02*
X291862Y138494D01*
X295215Y140272D02*
X298263Y140272D01*
X300346Y142050D02*
X301616Y143066D01*
X301616Y138494D01*
X300346Y138494D02*
X302886Y138494D01*
X273901Y137106D02*
X273901Y132534D01*
X275425Y134566D02*
X273901Y137106D01*
X275425Y134566D02*
X276949Y137106D01*
X276949Y132534D01*
X278930Y132534D02*
X280454Y137106D01*
X281978Y132534D01*
X281597Y133677D02*
X279311Y133677D01*
X283502Y132534D02*
X286550Y137106D01*
X283502Y137106D02*
X286550Y132534D01*
X288328Y136090D02*
X289598Y137106D01*
X289598Y132534D01*
X288328Y132534D02*
X290868Y132534D01*
X292900Y133550D02*
X293916Y137106D01*
X292900Y133550D02*
X295440Y133550D01*
X294678Y134566D02*
X294678Y132534D01*
X297472Y133804D02*
X297474Y133874D01*
X297480Y133944D01*
X297489Y134013D01*
X297503Y134082D01*
X297520Y134150D01*
X297541Y134216D01*
X297565Y134282D01*
X297593Y134346D01*
X297625Y134408D01*
X297660Y134469D01*
X297698Y134528D01*
X297740Y134584D01*
X297784Y134638D01*
X297832Y134690D01*
X297882Y134738D01*
X297935Y134784D01*
X297990Y134827D01*
X298047Y134867D01*
X298107Y134904D01*
X298169Y134937D01*
X298232Y134967D01*
X298297Y134993D01*
X298363Y135016D01*
X298430Y135035D01*
X298499Y135050D01*
X298568Y135062D01*
X298637Y135070D01*
X298707Y135074D01*
X298777Y135074D01*
X298847Y135070D01*
X298916Y135062D01*
X298985Y135050D01*
X299054Y135035D01*
X299121Y135016D01*
X299187Y134993D01*
X299252Y134967D01*
X299315Y134937D01*
X299377Y134904D01*
X299437Y134867D01*
X299494Y134827D01*
X299549Y134784D01*
X299602Y134738D01*
X299652Y134690D01*
X299700Y134638D01*
X299744Y134584D01*
X299786Y134528D01*
X299824Y134469D01*
X299859Y134408D01*
X299891Y134346D01*
X299919Y134282D01*
X299943Y134216D01*
X299964Y134150D01*
X299981Y134082D01*
X299995Y134013D01*
X300004Y133944D01*
X300010Y133874D01*
X300012Y133804D01*
X300010Y133734D01*
X300004Y133664D01*
X299995Y133595D01*
X299981Y133526D01*
X299964Y133458D01*
X299943Y133392D01*
X299919Y133326D01*
X299891Y133262D01*
X299859Y133200D01*
X299824Y133139D01*
X299786Y133080D01*
X299744Y133024D01*
X299700Y132970D01*
X299652Y132918D01*
X299602Y132870D01*
X299549Y132824D01*
X299494Y132781D01*
X299437Y132741D01*
X299377Y132704D01*
X299315Y132671D01*
X299252Y132641D01*
X299187Y132615D01*
X299121Y132592D01*
X299054Y132573D01*
X298985Y132558D01*
X298916Y132546D01*
X298847Y132538D01*
X298777Y132534D01*
X298707Y132534D01*
X298637Y132538D01*
X298568Y132546D01*
X298499Y132558D01*
X298430Y132573D01*
X298363Y132592D01*
X298297Y132615D01*
X298232Y132641D01*
X298169Y132671D01*
X298107Y132704D01*
X298047Y132741D01*
X297990Y132781D01*
X297935Y132824D01*
X297882Y132870D01*
X297832Y132918D01*
X297784Y132970D01*
X297740Y133024D01*
X297698Y133080D01*
X297660Y133139D01*
X297625Y133200D01*
X297593Y133262D01*
X297565Y133326D01*
X297541Y133392D01*
X297520Y133458D01*
X297503Y133526D01*
X297489Y133595D01*
X297480Y133664D01*
X297474Y133734D01*
X297472Y133804D01*
X297726Y136090D02*
X297728Y136153D01*
X297734Y136215D01*
X297743Y136277D01*
X297757Y136338D01*
X297774Y136398D01*
X297795Y136457D01*
X297819Y136515D01*
X297847Y136571D01*
X297878Y136625D01*
X297913Y136677D01*
X297950Y136727D01*
X297991Y136774D01*
X298035Y136819D01*
X298081Y136862D01*
X298130Y136901D01*
X298181Y136937D01*
X298234Y136970D01*
X298289Y136999D01*
X298346Y137026D01*
X298404Y137048D01*
X298464Y137067D01*
X298525Y137082D01*
X298586Y137094D01*
X298648Y137102D01*
X298711Y137106D01*
X298773Y137106D01*
X298836Y137102D01*
X298898Y137094D01*
X298959Y137082D01*
X299020Y137067D01*
X299080Y137048D01*
X299138Y137026D01*
X299195Y136999D01*
X299250Y136970D01*
X299303Y136937D01*
X299354Y136901D01*
X299403Y136862D01*
X299449Y136819D01*
X299493Y136774D01*
X299534Y136727D01*
X299571Y136677D01*
X299606Y136625D01*
X299637Y136571D01*
X299665Y136515D01*
X299689Y136457D01*
X299710Y136398D01*
X299727Y136338D01*
X299741Y136277D01*
X299750Y136215D01*
X299756Y136153D01*
X299758Y136090D01*
X299756Y136027D01*
X299750Y135965D01*
X299741Y135903D01*
X299727Y135842D01*
X299710Y135782D01*
X299689Y135723D01*
X299665Y135665D01*
X299637Y135609D01*
X299606Y135555D01*
X299571Y135503D01*
X299534Y135453D01*
X299493Y135406D01*
X299449Y135361D01*
X299403Y135318D01*
X299354Y135279D01*
X299303Y135243D01*
X299250Y135210D01*
X299195Y135181D01*
X299138Y135154D01*
X299080Y135132D01*
X299020Y135113D01*
X298959Y135098D01*
X298898Y135086D01*
X298836Y135078D01*
X298773Y135074D01*
X298711Y135074D01*
X298648Y135078D01*
X298586Y135086D01*
X298525Y135098D01*
X298464Y135113D01*
X298404Y135132D01*
X298346Y135154D01*
X298289Y135181D01*
X298234Y135210D01*
X298181Y135243D01*
X298130Y135279D01*
X298081Y135318D01*
X298035Y135361D01*
X297991Y135406D01*
X297950Y135453D01*
X297913Y135503D01*
X297878Y135555D01*
X297847Y135609D01*
X297819Y135665D01*
X297795Y135723D01*
X297774Y135782D01*
X297757Y135842D01*
X297743Y135903D01*
X297734Y135965D01*
X297728Y136027D01*
X297726Y136090D01*
X302044Y136598D02*
X302044Y137106D01*
X304584Y137106D01*
X303314Y132534D01*
X306616Y133550D02*
X307632Y137106D01*
X306616Y133550D02*
X309156Y133550D01*
X308394Y134566D02*
X308394Y132534D01*
D12*
X247100Y131600D02*
X247100Y101600D01*
X247100Y131600D02*
X217100Y131600D01*
X217100Y101600D01*
X247100Y101600D01*
X240686Y106600D02*
X240688Y106675D01*
X240694Y106749D01*
X240704Y106823D01*
X240717Y106896D01*
X240735Y106969D01*
X240756Y107040D01*
X240781Y107111D01*
X240810Y107180D01*
X240843Y107247D01*
X240879Y107312D01*
X240918Y107376D01*
X240960Y107437D01*
X241006Y107496D01*
X241055Y107553D01*
X241107Y107606D01*
X241161Y107657D01*
X241218Y107706D01*
X241278Y107750D01*
X241340Y107792D01*
X241404Y107831D01*
X241470Y107866D01*
X241537Y107897D01*
X241607Y107925D01*
X241677Y107949D01*
X241749Y107970D01*
X241822Y107986D01*
X241895Y107999D01*
X241970Y108008D01*
X242044Y108013D01*
X242119Y108014D01*
X242193Y108011D01*
X242268Y108004D01*
X242341Y107993D01*
X242415Y107979D01*
X242487Y107960D01*
X242558Y107938D01*
X242628Y107912D01*
X242697Y107882D01*
X242763Y107849D01*
X242828Y107812D01*
X242891Y107772D01*
X242952Y107728D01*
X243010Y107682D01*
X243066Y107632D01*
X243119Y107580D01*
X243170Y107525D01*
X243217Y107467D01*
X243261Y107407D01*
X243302Y107344D01*
X243340Y107280D01*
X243374Y107214D01*
X243405Y107145D01*
X243432Y107076D01*
X243455Y107005D01*
X243474Y106933D01*
X243490Y106860D01*
X243502Y106786D01*
X243510Y106712D01*
X243514Y106637D01*
X243514Y106563D01*
X243510Y106488D01*
X243502Y106414D01*
X243490Y106340D01*
X243474Y106267D01*
X243455Y106195D01*
X243432Y106124D01*
X243405Y106055D01*
X243374Y105986D01*
X243340Y105920D01*
X243302Y105856D01*
X243261Y105793D01*
X243217Y105733D01*
X243170Y105675D01*
X243119Y105620D01*
X243066Y105568D01*
X243010Y105518D01*
X242952Y105472D01*
X242891Y105428D01*
X242828Y105388D01*
X242763Y105351D01*
X242697Y105318D01*
X242628Y105288D01*
X242558Y105262D01*
X242487Y105240D01*
X242415Y105221D01*
X242341Y105207D01*
X242268Y105196D01*
X242193Y105189D01*
X242119Y105186D01*
X242044Y105187D01*
X241970Y105192D01*
X241895Y105201D01*
X241822Y105214D01*
X241749Y105230D01*
X241677Y105251D01*
X241607Y105275D01*
X241537Y105303D01*
X241470Y105334D01*
X241404Y105369D01*
X241340Y105408D01*
X241278Y105450D01*
X241218Y105494D01*
X241161Y105543D01*
X241107Y105594D01*
X241055Y105647D01*
X241006Y105704D01*
X240960Y105763D01*
X240918Y105824D01*
X240879Y105888D01*
X240843Y105953D01*
X240810Y106020D01*
X240781Y106089D01*
X240756Y106160D01*
X240735Y106231D01*
X240717Y106304D01*
X240704Y106377D01*
X240694Y106451D01*
X240688Y106525D01*
X240686Y106600D01*
D13*
X221344Y139294D02*
X221344Y143866D01*
X222614Y143866D01*
X222683Y143864D01*
X222751Y143859D01*
X222819Y143849D01*
X222887Y143836D01*
X222954Y143820D01*
X223020Y143800D01*
X223084Y143776D01*
X223147Y143749D01*
X223209Y143718D01*
X223269Y143684D01*
X223327Y143647D01*
X223383Y143607D01*
X223436Y143564D01*
X223487Y143518D01*
X223536Y143469D01*
X223582Y143418D01*
X223625Y143365D01*
X223665Y143309D01*
X223702Y143251D01*
X223736Y143191D01*
X223767Y143129D01*
X223794Y143066D01*
X223818Y143002D01*
X223838Y142936D01*
X223854Y142869D01*
X223867Y142801D01*
X223877Y142733D01*
X223882Y142665D01*
X223884Y142596D01*
X223884Y140564D01*
X223882Y140495D01*
X223877Y140427D01*
X223867Y140359D01*
X223854Y140291D01*
X223838Y140224D01*
X223818Y140158D01*
X223794Y140094D01*
X223767Y140031D01*
X223736Y139969D01*
X223702Y139909D01*
X223665Y139851D01*
X223625Y139795D01*
X223582Y139742D01*
X223536Y139691D01*
X223487Y139642D01*
X223436Y139596D01*
X223383Y139553D01*
X223327Y139513D01*
X223269Y139476D01*
X223209Y139442D01*
X223147Y139411D01*
X223084Y139384D01*
X223020Y139360D01*
X222954Y139340D01*
X222887Y139324D01*
X222819Y139311D01*
X222751Y139301D01*
X222683Y139296D01*
X222614Y139294D01*
X221344Y139294D01*
X226254Y139294D02*
X226254Y143866D01*
X227524Y143866D01*
X227594Y143864D01*
X227664Y143858D01*
X227733Y143849D01*
X227802Y143835D01*
X227870Y143818D01*
X227936Y143797D01*
X228002Y143773D01*
X228066Y143745D01*
X228128Y143713D01*
X228189Y143678D01*
X228248Y143640D01*
X228304Y143598D01*
X228358Y143554D01*
X228410Y143506D01*
X228458Y143456D01*
X228504Y143403D01*
X228547Y143348D01*
X228587Y143291D01*
X228624Y143231D01*
X228657Y143169D01*
X228687Y143106D01*
X228713Y143041D01*
X228736Y142975D01*
X228755Y142908D01*
X228770Y142839D01*
X228782Y142770D01*
X228790Y142701D01*
X228794Y142631D01*
X228794Y142561D01*
X228790Y142491D01*
X228782Y142422D01*
X228770Y142353D01*
X228755Y142284D01*
X228736Y142217D01*
X228713Y142151D01*
X228687Y142086D01*
X228657Y142023D01*
X228624Y141961D01*
X228587Y141901D01*
X228547Y141844D01*
X228504Y141789D01*
X228458Y141736D01*
X228410Y141686D01*
X228358Y141638D01*
X228304Y141594D01*
X228248Y141552D01*
X228189Y141514D01*
X228128Y141479D01*
X228066Y141447D01*
X228002Y141419D01*
X227936Y141395D01*
X227870Y141374D01*
X227802Y141357D01*
X227733Y141343D01*
X227664Y141334D01*
X227594Y141328D01*
X227524Y141326D01*
X226254Y141326D01*
X227778Y141326D02*
X228794Y139294D01*
X232062Y139294D02*
X230538Y143866D01*
X233586Y143866D02*
X232062Y139294D01*
X235415Y141072D02*
X238463Y141072D01*
X241943Y143866D02*
X242009Y143864D01*
X242076Y143858D01*
X242141Y143849D01*
X242207Y143835D01*
X242271Y143818D01*
X242334Y143797D01*
X242396Y143773D01*
X242456Y143744D01*
X242515Y143713D01*
X242571Y143678D01*
X242626Y143640D01*
X242678Y143599D01*
X242727Y143554D01*
X242774Y143507D01*
X242819Y143458D01*
X242860Y143406D01*
X242898Y143351D01*
X242933Y143295D01*
X242964Y143236D01*
X242993Y143176D01*
X243017Y143114D01*
X243038Y143051D01*
X243055Y142987D01*
X243069Y142921D01*
X243078Y142856D01*
X243084Y142789D01*
X243086Y142723D01*
X241943Y143866D02*
X241869Y143864D01*
X241796Y143859D01*
X241722Y143849D01*
X241650Y143836D01*
X241578Y143820D01*
X241507Y143800D01*
X241437Y143776D01*
X241368Y143749D01*
X241301Y143718D01*
X241235Y143684D01*
X241172Y143647D01*
X241110Y143607D01*
X241050Y143563D01*
X240993Y143517D01*
X240937Y143468D01*
X240885Y143416D01*
X240835Y143361D01*
X240788Y143304D01*
X240744Y143245D01*
X240703Y143184D01*
X240665Y143120D01*
X240630Y143055D01*
X240599Y142988D01*
X240571Y142920D01*
X240546Y142850D01*
X242705Y141834D02*
X242752Y141881D01*
X242796Y141930D01*
X242837Y141982D01*
X242876Y142036D01*
X242911Y142092D01*
X242944Y142150D01*
X242973Y142209D01*
X242999Y142270D01*
X243022Y142332D01*
X243042Y142396D01*
X243057Y142460D01*
X243070Y142525D01*
X243079Y142591D01*
X243084Y142657D01*
X243086Y142723D01*
X242705Y141834D02*
X240546Y139294D01*
X243086Y139294D01*
X213101Y137206D02*
X213101Y132634D01*
X214625Y134666D02*
X213101Y137206D01*
X214625Y134666D02*
X216149Y137206D01*
X216149Y132634D01*
X218130Y132634D02*
X219654Y137206D01*
X221178Y132634D01*
X220797Y133777D02*
X218511Y133777D01*
X222702Y132634D02*
X225750Y137206D01*
X222702Y137206D02*
X225750Y132634D01*
X227528Y136190D02*
X228798Y137206D01*
X228798Y132634D01*
X227528Y132634D02*
X230068Y132634D01*
X232100Y133650D02*
X233116Y137206D01*
X232100Y133650D02*
X234640Y133650D01*
X233878Y134666D02*
X233878Y132634D01*
X236672Y133904D02*
X236674Y133974D01*
X236680Y134044D01*
X236689Y134113D01*
X236703Y134182D01*
X236720Y134250D01*
X236741Y134316D01*
X236765Y134382D01*
X236793Y134446D01*
X236825Y134508D01*
X236860Y134569D01*
X236898Y134628D01*
X236940Y134684D01*
X236984Y134738D01*
X237032Y134790D01*
X237082Y134838D01*
X237135Y134884D01*
X237190Y134927D01*
X237247Y134967D01*
X237307Y135004D01*
X237369Y135037D01*
X237432Y135067D01*
X237497Y135093D01*
X237563Y135116D01*
X237630Y135135D01*
X237699Y135150D01*
X237768Y135162D01*
X237837Y135170D01*
X237907Y135174D01*
X237977Y135174D01*
X238047Y135170D01*
X238116Y135162D01*
X238185Y135150D01*
X238254Y135135D01*
X238321Y135116D01*
X238387Y135093D01*
X238452Y135067D01*
X238515Y135037D01*
X238577Y135004D01*
X238637Y134967D01*
X238694Y134927D01*
X238749Y134884D01*
X238802Y134838D01*
X238852Y134790D01*
X238900Y134738D01*
X238944Y134684D01*
X238986Y134628D01*
X239024Y134569D01*
X239059Y134508D01*
X239091Y134446D01*
X239119Y134382D01*
X239143Y134316D01*
X239164Y134250D01*
X239181Y134182D01*
X239195Y134113D01*
X239204Y134044D01*
X239210Y133974D01*
X239212Y133904D01*
X239210Y133834D01*
X239204Y133764D01*
X239195Y133695D01*
X239181Y133626D01*
X239164Y133558D01*
X239143Y133492D01*
X239119Y133426D01*
X239091Y133362D01*
X239059Y133300D01*
X239024Y133239D01*
X238986Y133180D01*
X238944Y133124D01*
X238900Y133070D01*
X238852Y133018D01*
X238802Y132970D01*
X238749Y132924D01*
X238694Y132881D01*
X238637Y132841D01*
X238577Y132804D01*
X238515Y132771D01*
X238452Y132741D01*
X238387Y132715D01*
X238321Y132692D01*
X238254Y132673D01*
X238185Y132658D01*
X238116Y132646D01*
X238047Y132638D01*
X237977Y132634D01*
X237907Y132634D01*
X237837Y132638D01*
X237768Y132646D01*
X237699Y132658D01*
X237630Y132673D01*
X237563Y132692D01*
X237497Y132715D01*
X237432Y132741D01*
X237369Y132771D01*
X237307Y132804D01*
X237247Y132841D01*
X237190Y132881D01*
X237135Y132924D01*
X237082Y132970D01*
X237032Y133018D01*
X236984Y133070D01*
X236940Y133124D01*
X236898Y133180D01*
X236860Y133239D01*
X236825Y133300D01*
X236793Y133362D01*
X236765Y133426D01*
X236741Y133492D01*
X236720Y133558D01*
X236703Y133626D01*
X236689Y133695D01*
X236680Y133764D01*
X236674Y133834D01*
X236672Y133904D01*
X236926Y136190D02*
X236928Y136253D01*
X236934Y136315D01*
X236943Y136377D01*
X236957Y136438D01*
X236974Y136498D01*
X236995Y136557D01*
X237019Y136615D01*
X237047Y136671D01*
X237078Y136725D01*
X237113Y136777D01*
X237150Y136827D01*
X237191Y136874D01*
X237235Y136919D01*
X237281Y136962D01*
X237330Y137001D01*
X237381Y137037D01*
X237434Y137070D01*
X237489Y137099D01*
X237546Y137126D01*
X237604Y137148D01*
X237664Y137167D01*
X237725Y137182D01*
X237786Y137194D01*
X237848Y137202D01*
X237911Y137206D01*
X237973Y137206D01*
X238036Y137202D01*
X238098Y137194D01*
X238159Y137182D01*
X238220Y137167D01*
X238280Y137148D01*
X238338Y137126D01*
X238395Y137099D01*
X238450Y137070D01*
X238503Y137037D01*
X238554Y137001D01*
X238603Y136962D01*
X238649Y136919D01*
X238693Y136874D01*
X238734Y136827D01*
X238771Y136777D01*
X238806Y136725D01*
X238837Y136671D01*
X238865Y136615D01*
X238889Y136557D01*
X238910Y136498D01*
X238927Y136438D01*
X238941Y136377D01*
X238950Y136315D01*
X238956Y136253D01*
X238958Y136190D01*
X238956Y136127D01*
X238950Y136065D01*
X238941Y136003D01*
X238927Y135942D01*
X238910Y135882D01*
X238889Y135823D01*
X238865Y135765D01*
X238837Y135709D01*
X238806Y135655D01*
X238771Y135603D01*
X238734Y135553D01*
X238693Y135506D01*
X238649Y135461D01*
X238603Y135418D01*
X238554Y135379D01*
X238503Y135343D01*
X238450Y135310D01*
X238395Y135281D01*
X238338Y135254D01*
X238280Y135232D01*
X238220Y135213D01*
X238159Y135198D01*
X238098Y135186D01*
X238036Y135178D01*
X237973Y135174D01*
X237911Y135174D01*
X237848Y135178D01*
X237786Y135186D01*
X237725Y135198D01*
X237664Y135213D01*
X237604Y135232D01*
X237546Y135254D01*
X237489Y135281D01*
X237434Y135310D01*
X237381Y135343D01*
X237330Y135379D01*
X237281Y135418D01*
X237235Y135461D01*
X237191Y135506D01*
X237150Y135553D01*
X237113Y135603D01*
X237078Y135655D01*
X237047Y135709D01*
X237019Y135765D01*
X236995Y135823D01*
X236974Y135882D01*
X236957Y135942D01*
X236943Y136003D01*
X236934Y136065D01*
X236928Y136127D01*
X236926Y136190D01*
X241244Y136698D02*
X241244Y137206D01*
X243784Y137206D01*
X242514Y132634D01*
X245816Y133650D02*
X246832Y137206D01*
X245816Y133650D02*
X248356Y133650D01*
X247594Y134666D02*
X247594Y132634D01*
D12*
X186300Y131600D02*
X186300Y101600D01*
X186300Y131600D02*
X156300Y131600D01*
X156300Y101600D01*
X186300Y101600D01*
X179886Y106600D02*
X179888Y106675D01*
X179894Y106749D01*
X179904Y106823D01*
X179917Y106896D01*
X179935Y106969D01*
X179956Y107040D01*
X179981Y107111D01*
X180010Y107180D01*
X180043Y107247D01*
X180079Y107312D01*
X180118Y107376D01*
X180160Y107437D01*
X180206Y107496D01*
X180255Y107553D01*
X180307Y107606D01*
X180361Y107657D01*
X180418Y107706D01*
X180478Y107750D01*
X180540Y107792D01*
X180604Y107831D01*
X180670Y107866D01*
X180737Y107897D01*
X180807Y107925D01*
X180877Y107949D01*
X180949Y107970D01*
X181022Y107986D01*
X181095Y107999D01*
X181170Y108008D01*
X181244Y108013D01*
X181319Y108014D01*
X181393Y108011D01*
X181468Y108004D01*
X181541Y107993D01*
X181615Y107979D01*
X181687Y107960D01*
X181758Y107938D01*
X181828Y107912D01*
X181897Y107882D01*
X181963Y107849D01*
X182028Y107812D01*
X182091Y107772D01*
X182152Y107728D01*
X182210Y107682D01*
X182266Y107632D01*
X182319Y107580D01*
X182370Y107525D01*
X182417Y107467D01*
X182461Y107407D01*
X182502Y107344D01*
X182540Y107280D01*
X182574Y107214D01*
X182605Y107145D01*
X182632Y107076D01*
X182655Y107005D01*
X182674Y106933D01*
X182690Y106860D01*
X182702Y106786D01*
X182710Y106712D01*
X182714Y106637D01*
X182714Y106563D01*
X182710Y106488D01*
X182702Y106414D01*
X182690Y106340D01*
X182674Y106267D01*
X182655Y106195D01*
X182632Y106124D01*
X182605Y106055D01*
X182574Y105986D01*
X182540Y105920D01*
X182502Y105856D01*
X182461Y105793D01*
X182417Y105733D01*
X182370Y105675D01*
X182319Y105620D01*
X182266Y105568D01*
X182210Y105518D01*
X182152Y105472D01*
X182091Y105428D01*
X182028Y105388D01*
X181963Y105351D01*
X181897Y105318D01*
X181828Y105288D01*
X181758Y105262D01*
X181687Y105240D01*
X181615Y105221D01*
X181541Y105207D01*
X181468Y105196D01*
X181393Y105189D01*
X181319Y105186D01*
X181244Y105187D01*
X181170Y105192D01*
X181095Y105201D01*
X181022Y105214D01*
X180949Y105230D01*
X180877Y105251D01*
X180807Y105275D01*
X180737Y105303D01*
X180670Y105334D01*
X180604Y105369D01*
X180540Y105408D01*
X180478Y105450D01*
X180418Y105494D01*
X180361Y105543D01*
X180307Y105594D01*
X180255Y105647D01*
X180206Y105704D01*
X180160Y105763D01*
X180118Y105824D01*
X180079Y105888D01*
X180043Y105953D01*
X180010Y106020D01*
X179981Y106089D01*
X179956Y106160D01*
X179935Y106231D01*
X179917Y106304D01*
X179904Y106377D01*
X179894Y106451D01*
X179888Y106525D01*
X179886Y106600D01*
D13*
X160244Y138894D02*
X160244Y143466D01*
X161514Y143466D01*
X161583Y143464D01*
X161651Y143459D01*
X161719Y143449D01*
X161787Y143436D01*
X161854Y143420D01*
X161920Y143400D01*
X161984Y143376D01*
X162047Y143349D01*
X162109Y143318D01*
X162169Y143284D01*
X162227Y143247D01*
X162283Y143207D01*
X162336Y143164D01*
X162387Y143118D01*
X162436Y143069D01*
X162482Y143018D01*
X162525Y142965D01*
X162565Y142909D01*
X162602Y142851D01*
X162636Y142791D01*
X162667Y142729D01*
X162694Y142666D01*
X162718Y142602D01*
X162738Y142536D01*
X162754Y142469D01*
X162767Y142401D01*
X162777Y142333D01*
X162782Y142265D01*
X162784Y142196D01*
X162784Y140164D01*
X162782Y140095D01*
X162777Y140027D01*
X162767Y139959D01*
X162754Y139891D01*
X162738Y139824D01*
X162718Y139758D01*
X162694Y139694D01*
X162667Y139631D01*
X162636Y139569D01*
X162602Y139509D01*
X162565Y139451D01*
X162525Y139395D01*
X162482Y139342D01*
X162436Y139291D01*
X162387Y139242D01*
X162336Y139196D01*
X162283Y139153D01*
X162227Y139113D01*
X162169Y139076D01*
X162109Y139042D01*
X162047Y139011D01*
X161984Y138984D01*
X161920Y138960D01*
X161854Y138940D01*
X161787Y138924D01*
X161719Y138911D01*
X161651Y138901D01*
X161583Y138896D01*
X161514Y138894D01*
X160244Y138894D01*
X165154Y138894D02*
X165154Y143466D01*
X166424Y143466D01*
X166494Y143464D01*
X166564Y143458D01*
X166633Y143449D01*
X166702Y143435D01*
X166770Y143418D01*
X166836Y143397D01*
X166902Y143373D01*
X166966Y143345D01*
X167028Y143313D01*
X167089Y143278D01*
X167148Y143240D01*
X167204Y143198D01*
X167258Y143154D01*
X167310Y143106D01*
X167358Y143056D01*
X167404Y143003D01*
X167447Y142948D01*
X167487Y142891D01*
X167524Y142831D01*
X167557Y142769D01*
X167587Y142706D01*
X167613Y142641D01*
X167636Y142575D01*
X167655Y142508D01*
X167670Y142439D01*
X167682Y142370D01*
X167690Y142301D01*
X167694Y142231D01*
X167694Y142161D01*
X167690Y142091D01*
X167682Y142022D01*
X167670Y141953D01*
X167655Y141884D01*
X167636Y141817D01*
X167613Y141751D01*
X167587Y141686D01*
X167557Y141623D01*
X167524Y141561D01*
X167487Y141501D01*
X167447Y141444D01*
X167404Y141389D01*
X167358Y141336D01*
X167310Y141286D01*
X167258Y141238D01*
X167204Y141194D01*
X167148Y141152D01*
X167089Y141114D01*
X167028Y141079D01*
X166966Y141047D01*
X166902Y141019D01*
X166836Y140995D01*
X166770Y140974D01*
X166702Y140957D01*
X166633Y140943D01*
X166564Y140934D01*
X166494Y140928D01*
X166424Y140926D01*
X165154Y140926D01*
X166678Y140926D02*
X167694Y138894D01*
X170962Y138894D02*
X169438Y143466D01*
X172486Y143466D02*
X170962Y138894D01*
X174315Y140672D02*
X177363Y140672D01*
X179446Y138894D02*
X180716Y138894D01*
X180786Y138896D01*
X180856Y138902D01*
X180925Y138911D01*
X180994Y138925D01*
X181062Y138942D01*
X181128Y138963D01*
X181194Y138987D01*
X181258Y139015D01*
X181320Y139047D01*
X181381Y139082D01*
X181440Y139120D01*
X181496Y139162D01*
X181550Y139206D01*
X181602Y139254D01*
X181650Y139304D01*
X181696Y139357D01*
X181739Y139412D01*
X181779Y139469D01*
X181816Y139529D01*
X181849Y139591D01*
X181879Y139654D01*
X181905Y139719D01*
X181928Y139785D01*
X181947Y139852D01*
X181962Y139921D01*
X181974Y139990D01*
X181982Y140059D01*
X181986Y140129D01*
X181986Y140199D01*
X181982Y140269D01*
X181974Y140338D01*
X181962Y140407D01*
X181947Y140476D01*
X181928Y140543D01*
X181905Y140609D01*
X181879Y140674D01*
X181849Y140737D01*
X181816Y140799D01*
X181779Y140859D01*
X181739Y140916D01*
X181696Y140971D01*
X181650Y141024D01*
X181602Y141074D01*
X181550Y141122D01*
X181496Y141166D01*
X181440Y141208D01*
X181381Y141246D01*
X181320Y141281D01*
X181258Y141313D01*
X181194Y141341D01*
X181128Y141365D01*
X181062Y141386D01*
X180994Y141403D01*
X180925Y141417D01*
X180856Y141426D01*
X180786Y141432D01*
X180716Y141434D01*
X180970Y143466D02*
X179446Y143466D01*
X180970Y143466D02*
X181033Y143464D01*
X181095Y143458D01*
X181157Y143449D01*
X181218Y143435D01*
X181278Y143418D01*
X181337Y143397D01*
X181395Y143373D01*
X181451Y143345D01*
X181505Y143314D01*
X181557Y143279D01*
X181607Y143242D01*
X181654Y143201D01*
X181699Y143157D01*
X181742Y143111D01*
X181781Y143062D01*
X181817Y143011D01*
X181850Y142958D01*
X181879Y142903D01*
X181906Y142846D01*
X181928Y142788D01*
X181947Y142728D01*
X181962Y142667D01*
X181974Y142606D01*
X181982Y142544D01*
X181986Y142481D01*
X181986Y142419D01*
X181982Y142356D01*
X181974Y142294D01*
X181962Y142233D01*
X181947Y142172D01*
X181928Y142112D01*
X181906Y142054D01*
X181879Y141997D01*
X181850Y141942D01*
X181817Y141889D01*
X181781Y141838D01*
X181742Y141789D01*
X181699Y141743D01*
X181654Y141699D01*
X181607Y141658D01*
X181557Y141621D01*
X181505Y141586D01*
X181451Y141555D01*
X181395Y141527D01*
X181337Y141503D01*
X181278Y141482D01*
X181218Y141465D01*
X181157Y141451D01*
X181095Y141442D01*
X181033Y141436D01*
X180970Y141434D01*
X179954Y141434D01*
X152501Y136906D02*
X152501Y132334D01*
X154025Y134366D02*
X152501Y136906D01*
X154025Y134366D02*
X155549Y136906D01*
X155549Y132334D01*
X157530Y132334D02*
X159054Y136906D01*
X160578Y132334D01*
X160197Y133477D02*
X157911Y133477D01*
X162102Y132334D02*
X165150Y136906D01*
X162102Y136906D02*
X165150Y132334D01*
X166928Y135890D02*
X168198Y136906D01*
X168198Y132334D01*
X166928Y132334D02*
X169468Y132334D01*
X171500Y133350D02*
X172516Y136906D01*
X171500Y133350D02*
X174040Y133350D01*
X173278Y134366D02*
X173278Y132334D01*
X176072Y133604D02*
X176074Y133674D01*
X176080Y133744D01*
X176089Y133813D01*
X176103Y133882D01*
X176120Y133950D01*
X176141Y134016D01*
X176165Y134082D01*
X176193Y134146D01*
X176225Y134208D01*
X176260Y134269D01*
X176298Y134328D01*
X176340Y134384D01*
X176384Y134438D01*
X176432Y134490D01*
X176482Y134538D01*
X176535Y134584D01*
X176590Y134627D01*
X176647Y134667D01*
X176707Y134704D01*
X176769Y134737D01*
X176832Y134767D01*
X176897Y134793D01*
X176963Y134816D01*
X177030Y134835D01*
X177099Y134850D01*
X177168Y134862D01*
X177237Y134870D01*
X177307Y134874D01*
X177377Y134874D01*
X177447Y134870D01*
X177516Y134862D01*
X177585Y134850D01*
X177654Y134835D01*
X177721Y134816D01*
X177787Y134793D01*
X177852Y134767D01*
X177915Y134737D01*
X177977Y134704D01*
X178037Y134667D01*
X178094Y134627D01*
X178149Y134584D01*
X178202Y134538D01*
X178252Y134490D01*
X178300Y134438D01*
X178344Y134384D01*
X178386Y134328D01*
X178424Y134269D01*
X178459Y134208D01*
X178491Y134146D01*
X178519Y134082D01*
X178543Y134016D01*
X178564Y133950D01*
X178581Y133882D01*
X178595Y133813D01*
X178604Y133744D01*
X178610Y133674D01*
X178612Y133604D01*
X178610Y133534D01*
X178604Y133464D01*
X178595Y133395D01*
X178581Y133326D01*
X178564Y133258D01*
X178543Y133192D01*
X178519Y133126D01*
X178491Y133062D01*
X178459Y133000D01*
X178424Y132939D01*
X178386Y132880D01*
X178344Y132824D01*
X178300Y132770D01*
X178252Y132718D01*
X178202Y132670D01*
X178149Y132624D01*
X178094Y132581D01*
X178037Y132541D01*
X177977Y132504D01*
X177915Y132471D01*
X177852Y132441D01*
X177787Y132415D01*
X177721Y132392D01*
X177654Y132373D01*
X177585Y132358D01*
X177516Y132346D01*
X177447Y132338D01*
X177377Y132334D01*
X177307Y132334D01*
X177237Y132338D01*
X177168Y132346D01*
X177099Y132358D01*
X177030Y132373D01*
X176963Y132392D01*
X176897Y132415D01*
X176832Y132441D01*
X176769Y132471D01*
X176707Y132504D01*
X176647Y132541D01*
X176590Y132581D01*
X176535Y132624D01*
X176482Y132670D01*
X176432Y132718D01*
X176384Y132770D01*
X176340Y132824D01*
X176298Y132880D01*
X176260Y132939D01*
X176225Y133000D01*
X176193Y133062D01*
X176165Y133126D01*
X176141Y133192D01*
X176120Y133258D01*
X176103Y133326D01*
X176089Y133395D01*
X176080Y133464D01*
X176074Y133534D01*
X176072Y133604D01*
X176326Y135890D02*
X176328Y135953D01*
X176334Y136015D01*
X176343Y136077D01*
X176357Y136138D01*
X176374Y136198D01*
X176395Y136257D01*
X176419Y136315D01*
X176447Y136371D01*
X176478Y136425D01*
X176513Y136477D01*
X176550Y136527D01*
X176591Y136574D01*
X176635Y136619D01*
X176681Y136662D01*
X176730Y136701D01*
X176781Y136737D01*
X176834Y136770D01*
X176889Y136799D01*
X176946Y136826D01*
X177004Y136848D01*
X177064Y136867D01*
X177125Y136882D01*
X177186Y136894D01*
X177248Y136902D01*
X177311Y136906D01*
X177373Y136906D01*
X177436Y136902D01*
X177498Y136894D01*
X177559Y136882D01*
X177620Y136867D01*
X177680Y136848D01*
X177738Y136826D01*
X177795Y136799D01*
X177850Y136770D01*
X177903Y136737D01*
X177954Y136701D01*
X178003Y136662D01*
X178049Y136619D01*
X178093Y136574D01*
X178134Y136527D01*
X178171Y136477D01*
X178206Y136425D01*
X178237Y136371D01*
X178265Y136315D01*
X178289Y136257D01*
X178310Y136198D01*
X178327Y136138D01*
X178341Y136077D01*
X178350Y136015D01*
X178356Y135953D01*
X178358Y135890D01*
X178356Y135827D01*
X178350Y135765D01*
X178341Y135703D01*
X178327Y135642D01*
X178310Y135582D01*
X178289Y135523D01*
X178265Y135465D01*
X178237Y135409D01*
X178206Y135355D01*
X178171Y135303D01*
X178134Y135253D01*
X178093Y135206D01*
X178049Y135161D01*
X178003Y135118D01*
X177954Y135079D01*
X177903Y135043D01*
X177850Y135010D01*
X177795Y134981D01*
X177738Y134954D01*
X177680Y134932D01*
X177620Y134913D01*
X177559Y134898D01*
X177498Y134886D01*
X177436Y134878D01*
X177373Y134874D01*
X177311Y134874D01*
X177248Y134878D01*
X177186Y134886D01*
X177125Y134898D01*
X177064Y134913D01*
X177004Y134932D01*
X176946Y134954D01*
X176889Y134981D01*
X176834Y135010D01*
X176781Y135043D01*
X176730Y135079D01*
X176681Y135118D01*
X176635Y135161D01*
X176591Y135206D01*
X176550Y135253D01*
X176513Y135303D01*
X176478Y135355D01*
X176447Y135409D01*
X176419Y135465D01*
X176395Y135523D01*
X176374Y135582D01*
X176357Y135642D01*
X176343Y135703D01*
X176334Y135765D01*
X176328Y135827D01*
X176326Y135890D01*
X180644Y136398D02*
X180644Y136906D01*
X183184Y136906D01*
X181914Y132334D01*
X185216Y133350D02*
X186232Y136906D01*
X185216Y133350D02*
X187756Y133350D01*
X186994Y134366D02*
X186994Y132334D01*
D12*
X125500Y131600D02*
X125500Y101600D01*
X125500Y131600D02*
X95500Y131600D01*
X95500Y101600D01*
X125500Y101600D01*
X119086Y106600D02*
X119088Y106675D01*
X119094Y106749D01*
X119104Y106823D01*
X119117Y106896D01*
X119135Y106969D01*
X119156Y107040D01*
X119181Y107111D01*
X119210Y107180D01*
X119243Y107247D01*
X119279Y107312D01*
X119318Y107376D01*
X119360Y107437D01*
X119406Y107496D01*
X119455Y107553D01*
X119507Y107606D01*
X119561Y107657D01*
X119618Y107706D01*
X119678Y107750D01*
X119740Y107792D01*
X119804Y107831D01*
X119870Y107866D01*
X119937Y107897D01*
X120007Y107925D01*
X120077Y107949D01*
X120149Y107970D01*
X120222Y107986D01*
X120295Y107999D01*
X120370Y108008D01*
X120444Y108013D01*
X120519Y108014D01*
X120593Y108011D01*
X120668Y108004D01*
X120741Y107993D01*
X120815Y107979D01*
X120887Y107960D01*
X120958Y107938D01*
X121028Y107912D01*
X121097Y107882D01*
X121163Y107849D01*
X121228Y107812D01*
X121291Y107772D01*
X121352Y107728D01*
X121410Y107682D01*
X121466Y107632D01*
X121519Y107580D01*
X121570Y107525D01*
X121617Y107467D01*
X121661Y107407D01*
X121702Y107344D01*
X121740Y107280D01*
X121774Y107214D01*
X121805Y107145D01*
X121832Y107076D01*
X121855Y107005D01*
X121874Y106933D01*
X121890Y106860D01*
X121902Y106786D01*
X121910Y106712D01*
X121914Y106637D01*
X121914Y106563D01*
X121910Y106488D01*
X121902Y106414D01*
X121890Y106340D01*
X121874Y106267D01*
X121855Y106195D01*
X121832Y106124D01*
X121805Y106055D01*
X121774Y105986D01*
X121740Y105920D01*
X121702Y105856D01*
X121661Y105793D01*
X121617Y105733D01*
X121570Y105675D01*
X121519Y105620D01*
X121466Y105568D01*
X121410Y105518D01*
X121352Y105472D01*
X121291Y105428D01*
X121228Y105388D01*
X121163Y105351D01*
X121097Y105318D01*
X121028Y105288D01*
X120958Y105262D01*
X120887Y105240D01*
X120815Y105221D01*
X120741Y105207D01*
X120668Y105196D01*
X120593Y105189D01*
X120519Y105186D01*
X120444Y105187D01*
X120370Y105192D01*
X120295Y105201D01*
X120222Y105214D01*
X120149Y105230D01*
X120077Y105251D01*
X120007Y105275D01*
X119937Y105303D01*
X119870Y105334D01*
X119804Y105369D01*
X119740Y105408D01*
X119678Y105450D01*
X119618Y105494D01*
X119561Y105543D01*
X119507Y105594D01*
X119455Y105647D01*
X119406Y105704D01*
X119360Y105763D01*
X119318Y105824D01*
X119279Y105888D01*
X119243Y105953D01*
X119210Y106020D01*
X119181Y106089D01*
X119156Y106160D01*
X119135Y106231D01*
X119117Y106304D01*
X119104Y106377D01*
X119094Y106451D01*
X119088Y106525D01*
X119086Y106600D01*
D13*
X98844Y138994D02*
X98844Y143566D01*
X100114Y143566D01*
X100183Y143564D01*
X100251Y143559D01*
X100319Y143549D01*
X100387Y143536D01*
X100454Y143520D01*
X100520Y143500D01*
X100584Y143476D01*
X100647Y143449D01*
X100709Y143418D01*
X100769Y143384D01*
X100827Y143347D01*
X100883Y143307D01*
X100936Y143264D01*
X100987Y143218D01*
X101036Y143169D01*
X101082Y143118D01*
X101125Y143065D01*
X101165Y143009D01*
X101202Y142951D01*
X101236Y142891D01*
X101267Y142829D01*
X101294Y142766D01*
X101318Y142702D01*
X101338Y142636D01*
X101354Y142569D01*
X101367Y142501D01*
X101377Y142433D01*
X101382Y142365D01*
X101384Y142296D01*
X101384Y140264D01*
X101382Y140195D01*
X101377Y140127D01*
X101367Y140059D01*
X101354Y139991D01*
X101338Y139924D01*
X101318Y139858D01*
X101294Y139794D01*
X101267Y139731D01*
X101236Y139669D01*
X101202Y139609D01*
X101165Y139551D01*
X101125Y139495D01*
X101082Y139442D01*
X101036Y139391D01*
X100987Y139342D01*
X100936Y139296D01*
X100883Y139253D01*
X100827Y139213D01*
X100769Y139176D01*
X100709Y139142D01*
X100647Y139111D01*
X100584Y139084D01*
X100520Y139060D01*
X100454Y139040D01*
X100387Y139024D01*
X100319Y139011D01*
X100251Y139001D01*
X100183Y138996D01*
X100114Y138994D01*
X98844Y138994D01*
X103754Y138994D02*
X103754Y143566D01*
X105024Y143566D01*
X105094Y143564D01*
X105164Y143558D01*
X105233Y143549D01*
X105302Y143535D01*
X105370Y143518D01*
X105436Y143497D01*
X105502Y143473D01*
X105566Y143445D01*
X105628Y143413D01*
X105689Y143378D01*
X105748Y143340D01*
X105804Y143298D01*
X105858Y143254D01*
X105910Y143206D01*
X105958Y143156D01*
X106004Y143103D01*
X106047Y143048D01*
X106087Y142991D01*
X106124Y142931D01*
X106157Y142869D01*
X106187Y142806D01*
X106213Y142741D01*
X106236Y142675D01*
X106255Y142608D01*
X106270Y142539D01*
X106282Y142470D01*
X106290Y142401D01*
X106294Y142331D01*
X106294Y142261D01*
X106290Y142191D01*
X106282Y142122D01*
X106270Y142053D01*
X106255Y141984D01*
X106236Y141917D01*
X106213Y141851D01*
X106187Y141786D01*
X106157Y141723D01*
X106124Y141661D01*
X106087Y141601D01*
X106047Y141544D01*
X106004Y141489D01*
X105958Y141436D01*
X105910Y141386D01*
X105858Y141338D01*
X105804Y141294D01*
X105748Y141252D01*
X105689Y141214D01*
X105628Y141179D01*
X105566Y141147D01*
X105502Y141119D01*
X105436Y141095D01*
X105370Y141074D01*
X105302Y141057D01*
X105233Y141043D01*
X105164Y141034D01*
X105094Y141028D01*
X105024Y141026D01*
X103754Y141026D01*
X105278Y141026D02*
X106294Y138994D01*
X109562Y138994D02*
X108038Y143566D01*
X111086Y143566D02*
X109562Y138994D01*
X112915Y140772D02*
X115963Y140772D01*
X118046Y140010D02*
X119062Y143566D01*
X118046Y140010D02*
X120586Y140010D01*
X119824Y141026D02*
X119824Y138994D01*
X91501Y136906D02*
X91501Y132334D01*
X93025Y134366D02*
X91501Y136906D01*
X93025Y134366D02*
X94549Y136906D01*
X94549Y132334D01*
X96530Y132334D02*
X98054Y136906D01*
X99578Y132334D01*
X99197Y133477D02*
X96911Y133477D01*
X101102Y132334D02*
X104150Y136906D01*
X101102Y136906D02*
X104150Y132334D01*
X105928Y135890D02*
X107198Y136906D01*
X107198Y132334D01*
X105928Y132334D02*
X108468Y132334D01*
X110500Y133350D02*
X111516Y136906D01*
X110500Y133350D02*
X113040Y133350D01*
X112278Y134366D02*
X112278Y132334D01*
X115072Y133604D02*
X115074Y133674D01*
X115080Y133744D01*
X115089Y133813D01*
X115103Y133882D01*
X115120Y133950D01*
X115141Y134016D01*
X115165Y134082D01*
X115193Y134146D01*
X115225Y134208D01*
X115260Y134269D01*
X115298Y134328D01*
X115340Y134384D01*
X115384Y134438D01*
X115432Y134490D01*
X115482Y134538D01*
X115535Y134584D01*
X115590Y134627D01*
X115647Y134667D01*
X115707Y134704D01*
X115769Y134737D01*
X115832Y134767D01*
X115897Y134793D01*
X115963Y134816D01*
X116030Y134835D01*
X116099Y134850D01*
X116168Y134862D01*
X116237Y134870D01*
X116307Y134874D01*
X116377Y134874D01*
X116447Y134870D01*
X116516Y134862D01*
X116585Y134850D01*
X116654Y134835D01*
X116721Y134816D01*
X116787Y134793D01*
X116852Y134767D01*
X116915Y134737D01*
X116977Y134704D01*
X117037Y134667D01*
X117094Y134627D01*
X117149Y134584D01*
X117202Y134538D01*
X117252Y134490D01*
X117300Y134438D01*
X117344Y134384D01*
X117386Y134328D01*
X117424Y134269D01*
X117459Y134208D01*
X117491Y134146D01*
X117519Y134082D01*
X117543Y134016D01*
X117564Y133950D01*
X117581Y133882D01*
X117595Y133813D01*
X117604Y133744D01*
X117610Y133674D01*
X117612Y133604D01*
X117610Y133534D01*
X117604Y133464D01*
X117595Y133395D01*
X117581Y133326D01*
X117564Y133258D01*
X117543Y133192D01*
X117519Y133126D01*
X117491Y133062D01*
X117459Y133000D01*
X117424Y132939D01*
X117386Y132880D01*
X117344Y132824D01*
X117300Y132770D01*
X117252Y132718D01*
X117202Y132670D01*
X117149Y132624D01*
X117094Y132581D01*
X117037Y132541D01*
X116977Y132504D01*
X116915Y132471D01*
X116852Y132441D01*
X116787Y132415D01*
X116721Y132392D01*
X116654Y132373D01*
X116585Y132358D01*
X116516Y132346D01*
X116447Y132338D01*
X116377Y132334D01*
X116307Y132334D01*
X116237Y132338D01*
X116168Y132346D01*
X116099Y132358D01*
X116030Y132373D01*
X115963Y132392D01*
X115897Y132415D01*
X115832Y132441D01*
X115769Y132471D01*
X115707Y132504D01*
X115647Y132541D01*
X115590Y132581D01*
X115535Y132624D01*
X115482Y132670D01*
X115432Y132718D01*
X115384Y132770D01*
X115340Y132824D01*
X115298Y132880D01*
X115260Y132939D01*
X115225Y133000D01*
X115193Y133062D01*
X115165Y133126D01*
X115141Y133192D01*
X115120Y133258D01*
X115103Y133326D01*
X115089Y133395D01*
X115080Y133464D01*
X115074Y133534D01*
X115072Y133604D01*
X115326Y135890D02*
X115328Y135953D01*
X115334Y136015D01*
X115343Y136077D01*
X115357Y136138D01*
X115374Y136198D01*
X115395Y136257D01*
X115419Y136315D01*
X115447Y136371D01*
X115478Y136425D01*
X115513Y136477D01*
X115550Y136527D01*
X115591Y136574D01*
X115635Y136619D01*
X115681Y136662D01*
X115730Y136701D01*
X115781Y136737D01*
X115834Y136770D01*
X115889Y136799D01*
X115946Y136826D01*
X116004Y136848D01*
X116064Y136867D01*
X116125Y136882D01*
X116186Y136894D01*
X116248Y136902D01*
X116311Y136906D01*
X116373Y136906D01*
X116436Y136902D01*
X116498Y136894D01*
X116559Y136882D01*
X116620Y136867D01*
X116680Y136848D01*
X116738Y136826D01*
X116795Y136799D01*
X116850Y136770D01*
X116903Y136737D01*
X116954Y136701D01*
X117003Y136662D01*
X117049Y136619D01*
X117093Y136574D01*
X117134Y136527D01*
X117171Y136477D01*
X117206Y136425D01*
X117237Y136371D01*
X117265Y136315D01*
X117289Y136257D01*
X117310Y136198D01*
X117327Y136138D01*
X117341Y136077D01*
X117350Y136015D01*
X117356Y135953D01*
X117358Y135890D01*
X117356Y135827D01*
X117350Y135765D01*
X117341Y135703D01*
X117327Y135642D01*
X117310Y135582D01*
X117289Y135523D01*
X117265Y135465D01*
X117237Y135409D01*
X117206Y135355D01*
X117171Y135303D01*
X117134Y135253D01*
X117093Y135206D01*
X117049Y135161D01*
X117003Y135118D01*
X116954Y135079D01*
X116903Y135043D01*
X116850Y135010D01*
X116795Y134981D01*
X116738Y134954D01*
X116680Y134932D01*
X116620Y134913D01*
X116559Y134898D01*
X116498Y134886D01*
X116436Y134878D01*
X116373Y134874D01*
X116311Y134874D01*
X116248Y134878D01*
X116186Y134886D01*
X116125Y134898D01*
X116064Y134913D01*
X116004Y134932D01*
X115946Y134954D01*
X115889Y134981D01*
X115834Y135010D01*
X115781Y135043D01*
X115730Y135079D01*
X115681Y135118D01*
X115635Y135161D01*
X115591Y135206D01*
X115550Y135253D01*
X115513Y135303D01*
X115478Y135355D01*
X115447Y135409D01*
X115419Y135465D01*
X115395Y135523D01*
X115374Y135582D01*
X115357Y135642D01*
X115343Y135703D01*
X115334Y135765D01*
X115328Y135827D01*
X115326Y135890D01*
X119644Y136398D02*
X119644Y136906D01*
X122184Y136906D01*
X120914Y132334D01*
X124216Y133350D02*
X125232Y136906D01*
X124216Y133350D02*
X126756Y133350D01*
X125994Y134366D02*
X125994Y132334D01*
D14*
X97004Y212328D02*
X192796Y212328D01*
X97004Y212328D02*
X97004Y166672D01*
X192796Y166672D01*
X192796Y212328D01*
D13*
X190510Y210042D02*
X99290Y210042D01*
X99290Y168958D01*
X190510Y168958D01*
X190510Y210042D01*
D14*
X176084Y201692D02*
X176086Y201827D01*
X176092Y201962D01*
X176102Y202096D01*
X176116Y202230D01*
X176134Y202364D01*
X176155Y202497D01*
X176181Y202629D01*
X176211Y202761D01*
X176244Y202892D01*
X176281Y203021D01*
X176323Y203150D01*
X176367Y203277D01*
X176416Y203403D01*
X176468Y203527D01*
X176524Y203650D01*
X176584Y203771D01*
X176647Y203890D01*
X176713Y204007D01*
X176783Y204122D01*
X176857Y204236D01*
X176934Y204347D01*
X177013Y204455D01*
X177097Y204561D01*
X177183Y204665D01*
X177272Y204766D01*
X177364Y204865D01*
X177459Y204960D01*
X177557Y205053D01*
X177657Y205143D01*
X177760Y205230D01*
X177866Y205314D01*
X177974Y205395D01*
X178084Y205472D01*
X178197Y205546D01*
X178312Y205617D01*
X178429Y205685D01*
X178547Y205749D01*
X178668Y205809D01*
X178790Y205866D01*
X178914Y205919D01*
X179040Y205969D01*
X179166Y206015D01*
X179295Y206057D01*
X179424Y206095D01*
X179554Y206129D01*
X179686Y206160D01*
X179818Y206187D01*
X179951Y206209D01*
X180084Y206228D01*
X180218Y206243D01*
X180353Y206254D01*
X180487Y206261D01*
X180622Y206264D01*
X180757Y206263D01*
X180892Y206258D01*
X181026Y206249D01*
X181161Y206236D01*
X181295Y206219D01*
X181428Y206198D01*
X181560Y206174D01*
X181692Y206145D01*
X181823Y206113D01*
X181953Y206076D01*
X182082Y206036D01*
X182209Y205992D01*
X182335Y205944D01*
X182460Y205893D01*
X182583Y205838D01*
X182705Y205779D01*
X182824Y205717D01*
X182942Y205651D01*
X183058Y205582D01*
X183171Y205510D01*
X183283Y205434D01*
X183392Y205355D01*
X183499Y205273D01*
X183603Y205187D01*
X183705Y205099D01*
X183804Y205007D01*
X183901Y204913D01*
X183994Y204816D01*
X184085Y204716D01*
X184173Y204614D01*
X184257Y204509D01*
X184339Y204401D01*
X184417Y204291D01*
X184492Y204179D01*
X184564Y204065D01*
X184632Y203949D01*
X184697Y203830D01*
X184758Y203710D01*
X184816Y203588D01*
X184870Y203465D01*
X184921Y203340D01*
X184967Y203213D01*
X185010Y203086D01*
X185050Y202957D01*
X185085Y202826D01*
X185117Y202695D01*
X185144Y202563D01*
X185168Y202431D01*
X185188Y202297D01*
X185204Y202163D01*
X185216Y202029D01*
X185224Y201894D01*
X185228Y201759D01*
X185228Y201625D01*
X185224Y201490D01*
X185216Y201355D01*
X185204Y201221D01*
X185188Y201087D01*
X185168Y200953D01*
X185144Y200821D01*
X185117Y200689D01*
X185085Y200558D01*
X185050Y200427D01*
X185010Y200298D01*
X184967Y200171D01*
X184921Y200044D01*
X184870Y199919D01*
X184816Y199796D01*
X184758Y199674D01*
X184697Y199554D01*
X184632Y199435D01*
X184564Y199319D01*
X184492Y199205D01*
X184417Y199093D01*
X184339Y198983D01*
X184257Y198875D01*
X184173Y198770D01*
X184085Y198668D01*
X183994Y198568D01*
X183901Y198471D01*
X183804Y198377D01*
X183705Y198285D01*
X183603Y198197D01*
X183499Y198111D01*
X183392Y198029D01*
X183283Y197950D01*
X183171Y197874D01*
X183058Y197802D01*
X182942Y197733D01*
X182824Y197667D01*
X182705Y197605D01*
X182583Y197546D01*
X182460Y197491D01*
X182335Y197440D01*
X182209Y197392D01*
X182082Y197348D01*
X181953Y197308D01*
X181823Y197271D01*
X181692Y197239D01*
X181560Y197210D01*
X181428Y197186D01*
X181295Y197165D01*
X181161Y197148D01*
X181026Y197135D01*
X180892Y197126D01*
X180757Y197121D01*
X180622Y197120D01*
X180487Y197123D01*
X180353Y197130D01*
X180218Y197141D01*
X180084Y197156D01*
X179951Y197175D01*
X179818Y197197D01*
X179686Y197224D01*
X179554Y197255D01*
X179424Y197289D01*
X179295Y197327D01*
X179166Y197369D01*
X179040Y197415D01*
X178914Y197465D01*
X178790Y197518D01*
X178668Y197575D01*
X178547Y197635D01*
X178429Y197699D01*
X178312Y197767D01*
X178197Y197838D01*
X178084Y197912D01*
X177974Y197989D01*
X177866Y198070D01*
X177760Y198154D01*
X177657Y198241D01*
X177557Y198331D01*
X177459Y198424D01*
X177364Y198519D01*
X177272Y198618D01*
X177183Y198719D01*
X177097Y198823D01*
X177013Y198929D01*
X176934Y199037D01*
X176857Y199148D01*
X176783Y199262D01*
X176713Y199377D01*
X176647Y199494D01*
X176584Y199613D01*
X176524Y199734D01*
X176468Y199857D01*
X176416Y199981D01*
X176367Y200107D01*
X176323Y200234D01*
X176281Y200363D01*
X176244Y200492D01*
X176211Y200623D01*
X176181Y200755D01*
X176155Y200887D01*
X176134Y201020D01*
X176116Y201154D01*
X176102Y201288D01*
X176092Y201422D01*
X176086Y201557D01*
X176084Y201692D01*
D13*
X195952Y170626D02*
X201540Y170626D01*
X195952Y170626D02*
X195952Y172178D01*
X195954Y172255D01*
X195960Y172333D01*
X195969Y172409D01*
X195983Y172486D01*
X196000Y172561D01*
X196021Y172635D01*
X196046Y172709D01*
X196074Y172781D01*
X196106Y172851D01*
X196141Y172920D01*
X196180Y172987D01*
X196222Y173052D01*
X196267Y173115D01*
X196315Y173176D01*
X196366Y173234D01*
X196420Y173289D01*
X196477Y173342D01*
X196536Y173391D01*
X196598Y173438D01*
X196662Y173482D01*
X196728Y173522D01*
X196796Y173559D01*
X196866Y173593D01*
X196937Y173623D01*
X197010Y173649D01*
X197084Y173672D01*
X197159Y173691D01*
X197234Y173706D01*
X197311Y173718D01*
X197388Y173726D01*
X197465Y173730D01*
X197543Y173730D01*
X197620Y173726D01*
X197697Y173718D01*
X197774Y173706D01*
X197849Y173691D01*
X197924Y173672D01*
X197998Y173649D01*
X198071Y173623D01*
X198142Y173593D01*
X198212Y173559D01*
X198280Y173522D01*
X198346Y173482D01*
X198410Y173438D01*
X198472Y173391D01*
X198531Y173342D01*
X198588Y173289D01*
X198642Y173234D01*
X198693Y173176D01*
X198741Y173115D01*
X198786Y173052D01*
X198828Y172987D01*
X198867Y172920D01*
X198902Y172851D01*
X198934Y172781D01*
X198962Y172709D01*
X198987Y172635D01*
X199008Y172561D01*
X199025Y172486D01*
X199039Y172409D01*
X199048Y172333D01*
X199054Y172255D01*
X199056Y172178D01*
X199056Y170626D01*
X201540Y177072D02*
X201540Y178314D01*
X201540Y177072D02*
X201538Y177002D01*
X201532Y176933D01*
X201522Y176864D01*
X201509Y176796D01*
X201491Y176728D01*
X201470Y176662D01*
X201445Y176597D01*
X201417Y176533D01*
X201385Y176471D01*
X201350Y176411D01*
X201311Y176353D01*
X201269Y176298D01*
X201224Y176244D01*
X201176Y176194D01*
X201126Y176146D01*
X201072Y176101D01*
X201017Y176059D01*
X200959Y176020D01*
X200899Y175985D01*
X200837Y175953D01*
X200773Y175925D01*
X200708Y175900D01*
X200642Y175879D01*
X200574Y175861D01*
X200506Y175848D01*
X200437Y175838D01*
X200368Y175832D01*
X200298Y175830D01*
X197194Y175830D01*
X197124Y175832D01*
X197055Y175838D01*
X196986Y175848D01*
X196918Y175861D01*
X196850Y175879D01*
X196784Y175900D01*
X196719Y175925D01*
X196655Y175953D01*
X196593Y175985D01*
X196533Y176020D01*
X196475Y176059D01*
X196420Y176101D01*
X196366Y176146D01*
X196316Y176194D01*
X196268Y176244D01*
X196223Y176298D01*
X196181Y176353D01*
X196142Y176411D01*
X196107Y176471D01*
X196075Y176533D01*
X196047Y176597D01*
X196022Y176662D01*
X196001Y176728D01*
X195983Y176796D01*
X195970Y176864D01*
X195960Y176933D01*
X195954Y177002D01*
X195952Y177072D01*
X195952Y178314D01*
X195952Y181971D02*
X201540Y180108D01*
X201540Y183833D02*
X195952Y181971D01*
X200143Y183368D02*
X200143Y180574D01*
X199056Y187147D02*
X199056Y189009D01*
X199057Y187147D02*
X199055Y187077D01*
X199049Y187008D01*
X199039Y186939D01*
X199026Y186871D01*
X199008Y186803D01*
X198987Y186737D01*
X198962Y186672D01*
X198934Y186608D01*
X198902Y186546D01*
X198867Y186486D01*
X198828Y186428D01*
X198786Y186373D01*
X198741Y186319D01*
X198693Y186269D01*
X198643Y186221D01*
X198589Y186176D01*
X198534Y186134D01*
X198476Y186095D01*
X198416Y186060D01*
X198354Y186028D01*
X198290Y186000D01*
X198225Y185975D01*
X198159Y185954D01*
X198091Y185936D01*
X198023Y185923D01*
X197954Y185913D01*
X197885Y185907D01*
X197815Y185905D01*
X197504Y185905D01*
X197427Y185907D01*
X197349Y185913D01*
X197273Y185922D01*
X197196Y185936D01*
X197121Y185953D01*
X197047Y185974D01*
X196973Y185999D01*
X196901Y186027D01*
X196831Y186059D01*
X196762Y186094D01*
X196695Y186133D01*
X196630Y186175D01*
X196567Y186220D01*
X196506Y186268D01*
X196448Y186319D01*
X196393Y186373D01*
X196340Y186430D01*
X196291Y186489D01*
X196244Y186551D01*
X196200Y186615D01*
X196160Y186681D01*
X196123Y186749D01*
X196089Y186819D01*
X196059Y186890D01*
X196033Y186963D01*
X196010Y187037D01*
X195991Y187112D01*
X195976Y187187D01*
X195964Y187264D01*
X195956Y187341D01*
X195952Y187418D01*
X195952Y187496D01*
X195956Y187573D01*
X195964Y187650D01*
X195976Y187727D01*
X195991Y187802D01*
X196010Y187877D01*
X196033Y187951D01*
X196059Y188024D01*
X196089Y188095D01*
X196123Y188165D01*
X196160Y188233D01*
X196200Y188299D01*
X196244Y188363D01*
X196291Y188425D01*
X196340Y188484D01*
X196393Y188541D01*
X196448Y188595D01*
X196506Y188646D01*
X196567Y188694D01*
X196630Y188739D01*
X196695Y188781D01*
X196762Y188820D01*
X196831Y188855D01*
X196901Y188887D01*
X196973Y188915D01*
X197047Y188940D01*
X197121Y188961D01*
X197196Y188978D01*
X197273Y188992D01*
X197349Y189001D01*
X197427Y189007D01*
X197504Y189009D01*
X199056Y189009D01*
X199056Y189010D02*
X199154Y189008D01*
X199251Y189002D01*
X199348Y188993D01*
X199445Y188979D01*
X199541Y188962D01*
X199636Y188941D01*
X199730Y188917D01*
X199824Y188888D01*
X199916Y188856D01*
X200007Y188821D01*
X200096Y188782D01*
X200184Y188739D01*
X200270Y188693D01*
X200354Y188644D01*
X200436Y188591D01*
X200516Y188536D01*
X200594Y188477D01*
X200669Y188415D01*
X200742Y188350D01*
X200812Y188282D01*
X200880Y188212D01*
X200945Y188139D01*
X201007Y188064D01*
X201066Y187986D01*
X201121Y187906D01*
X201174Y187824D01*
X201223Y187740D01*
X201269Y187654D01*
X201312Y187566D01*
X201351Y187477D01*
X201386Y187386D01*
X201418Y187294D01*
X201447Y187200D01*
X201471Y187106D01*
X201492Y187011D01*
X201509Y186915D01*
X201523Y186818D01*
X201532Y186721D01*
X201538Y186623D01*
X201540Y186526D01*
X198436Y191391D02*
X198436Y193254D01*
X198435Y193254D02*
X198437Y193324D01*
X198443Y193393D01*
X198453Y193462D01*
X198466Y193530D01*
X198484Y193598D01*
X198505Y193664D01*
X198530Y193729D01*
X198558Y193793D01*
X198590Y193855D01*
X198625Y193915D01*
X198664Y193973D01*
X198706Y194028D01*
X198751Y194082D01*
X198799Y194132D01*
X198849Y194180D01*
X198903Y194225D01*
X198958Y194267D01*
X199016Y194306D01*
X199076Y194341D01*
X199138Y194373D01*
X199202Y194401D01*
X199267Y194426D01*
X199333Y194447D01*
X199401Y194465D01*
X199469Y194478D01*
X199538Y194488D01*
X199607Y194494D01*
X199677Y194496D01*
X199988Y194496D01*
X199988Y194495D02*
X200065Y194493D01*
X200143Y194487D01*
X200219Y194478D01*
X200296Y194464D01*
X200371Y194447D01*
X200445Y194426D01*
X200519Y194401D01*
X200591Y194373D01*
X200661Y194341D01*
X200730Y194306D01*
X200797Y194267D01*
X200862Y194225D01*
X200925Y194180D01*
X200986Y194132D01*
X201044Y194081D01*
X201099Y194027D01*
X201152Y193970D01*
X201201Y193911D01*
X201248Y193849D01*
X201292Y193785D01*
X201332Y193719D01*
X201369Y193651D01*
X201403Y193581D01*
X201433Y193510D01*
X201459Y193437D01*
X201482Y193363D01*
X201501Y193288D01*
X201516Y193213D01*
X201528Y193136D01*
X201536Y193059D01*
X201540Y192982D01*
X201540Y192904D01*
X201536Y192827D01*
X201528Y192750D01*
X201516Y192673D01*
X201501Y192598D01*
X201482Y192523D01*
X201459Y192449D01*
X201433Y192376D01*
X201403Y192305D01*
X201369Y192235D01*
X201332Y192167D01*
X201292Y192101D01*
X201248Y192037D01*
X201201Y191975D01*
X201152Y191916D01*
X201099Y191859D01*
X201044Y191805D01*
X200986Y191754D01*
X200925Y191706D01*
X200862Y191661D01*
X200797Y191619D01*
X200730Y191580D01*
X200661Y191545D01*
X200591Y191513D01*
X200519Y191485D01*
X200445Y191460D01*
X200371Y191439D01*
X200296Y191422D01*
X200219Y191408D01*
X200143Y191399D01*
X200065Y191393D01*
X199988Y191391D01*
X198436Y191391D01*
X198338Y191393D01*
X198241Y191399D01*
X198144Y191408D01*
X198047Y191422D01*
X197951Y191439D01*
X197856Y191460D01*
X197762Y191484D01*
X197668Y191513D01*
X197576Y191545D01*
X197485Y191580D01*
X197396Y191619D01*
X197308Y191662D01*
X197222Y191708D01*
X197138Y191757D01*
X197056Y191810D01*
X196976Y191865D01*
X196898Y191924D01*
X196823Y191986D01*
X196750Y192051D01*
X196680Y192119D01*
X196612Y192189D01*
X196547Y192262D01*
X196485Y192337D01*
X196426Y192415D01*
X196371Y192495D01*
X196318Y192577D01*
X196269Y192661D01*
X196223Y192747D01*
X196180Y192835D01*
X196141Y192924D01*
X196106Y193015D01*
X196074Y193107D01*
X196045Y193201D01*
X196021Y193295D01*
X196000Y193390D01*
X195983Y193486D01*
X195969Y193583D01*
X195960Y193680D01*
X195954Y193777D01*
X195952Y193875D01*
X199988Y196878D02*
X199911Y196880D01*
X199833Y196886D01*
X199757Y196895D01*
X199680Y196909D01*
X199605Y196926D01*
X199531Y196947D01*
X199457Y196972D01*
X199385Y197000D01*
X199315Y197032D01*
X199246Y197067D01*
X199179Y197106D01*
X199114Y197148D01*
X199051Y197193D01*
X198990Y197241D01*
X198932Y197292D01*
X198877Y197346D01*
X198824Y197403D01*
X198775Y197462D01*
X198728Y197524D01*
X198684Y197588D01*
X198644Y197654D01*
X198607Y197722D01*
X198573Y197792D01*
X198543Y197863D01*
X198517Y197936D01*
X198494Y198010D01*
X198475Y198085D01*
X198460Y198160D01*
X198448Y198237D01*
X198440Y198314D01*
X198436Y198391D01*
X198436Y198469D01*
X198440Y198546D01*
X198448Y198623D01*
X198460Y198700D01*
X198475Y198775D01*
X198494Y198850D01*
X198517Y198924D01*
X198543Y198997D01*
X198573Y199068D01*
X198607Y199138D01*
X198644Y199206D01*
X198684Y199272D01*
X198728Y199336D01*
X198775Y199398D01*
X198824Y199457D01*
X198877Y199514D01*
X198932Y199568D01*
X198990Y199619D01*
X199051Y199667D01*
X199114Y199712D01*
X199179Y199754D01*
X199246Y199793D01*
X199315Y199828D01*
X199385Y199860D01*
X199457Y199888D01*
X199531Y199913D01*
X199605Y199934D01*
X199680Y199951D01*
X199757Y199965D01*
X199833Y199974D01*
X199911Y199980D01*
X199988Y199982D01*
X200065Y199980D01*
X200143Y199974D01*
X200219Y199965D01*
X200296Y199951D01*
X200371Y199934D01*
X200445Y199913D01*
X200519Y199888D01*
X200591Y199860D01*
X200661Y199828D01*
X200730Y199793D01*
X200797Y199754D01*
X200862Y199712D01*
X200925Y199667D01*
X200986Y199619D01*
X201044Y199568D01*
X201099Y199514D01*
X201152Y199457D01*
X201201Y199398D01*
X201248Y199336D01*
X201292Y199272D01*
X201332Y199206D01*
X201369Y199138D01*
X201403Y199068D01*
X201433Y198997D01*
X201459Y198924D01*
X201482Y198850D01*
X201501Y198775D01*
X201516Y198700D01*
X201528Y198623D01*
X201536Y198546D01*
X201540Y198469D01*
X201540Y198391D01*
X201536Y198314D01*
X201528Y198237D01*
X201516Y198160D01*
X201501Y198085D01*
X201482Y198010D01*
X201459Y197936D01*
X201433Y197863D01*
X201403Y197792D01*
X201369Y197722D01*
X201332Y197654D01*
X201292Y197588D01*
X201248Y197524D01*
X201201Y197462D01*
X201152Y197403D01*
X201099Y197346D01*
X201044Y197292D01*
X200986Y197241D01*
X200925Y197193D01*
X200862Y197148D01*
X200797Y197106D01*
X200730Y197067D01*
X200661Y197032D01*
X200591Y197000D01*
X200519Y196972D01*
X200445Y196947D01*
X200371Y196926D01*
X200296Y196909D01*
X200219Y196895D01*
X200143Y196886D01*
X200065Y196880D01*
X199988Y196878D01*
X197194Y197188D02*
X197124Y197190D01*
X197055Y197196D01*
X196986Y197206D01*
X196918Y197219D01*
X196850Y197237D01*
X196784Y197258D01*
X196719Y197283D01*
X196655Y197311D01*
X196593Y197343D01*
X196533Y197378D01*
X196475Y197417D01*
X196420Y197459D01*
X196366Y197504D01*
X196316Y197552D01*
X196268Y197602D01*
X196223Y197656D01*
X196181Y197711D01*
X196142Y197769D01*
X196107Y197829D01*
X196075Y197891D01*
X196047Y197955D01*
X196022Y198020D01*
X196001Y198086D01*
X195983Y198154D01*
X195970Y198222D01*
X195960Y198291D01*
X195954Y198360D01*
X195952Y198430D01*
X195954Y198500D01*
X195960Y198569D01*
X195970Y198638D01*
X195983Y198706D01*
X196001Y198774D01*
X196022Y198840D01*
X196047Y198905D01*
X196075Y198969D01*
X196107Y199031D01*
X196142Y199091D01*
X196181Y199149D01*
X196223Y199204D01*
X196268Y199258D01*
X196316Y199308D01*
X196366Y199356D01*
X196420Y199401D01*
X196475Y199443D01*
X196533Y199482D01*
X196593Y199517D01*
X196655Y199549D01*
X196719Y199577D01*
X196784Y199602D01*
X196850Y199623D01*
X196918Y199641D01*
X196986Y199654D01*
X197055Y199664D01*
X197124Y199670D01*
X197194Y199672D01*
X197264Y199670D01*
X197333Y199664D01*
X197402Y199654D01*
X197470Y199641D01*
X197538Y199623D01*
X197604Y199602D01*
X197669Y199577D01*
X197733Y199549D01*
X197795Y199517D01*
X197855Y199482D01*
X197913Y199443D01*
X197968Y199401D01*
X198022Y199356D01*
X198072Y199308D01*
X198120Y199258D01*
X198165Y199204D01*
X198207Y199149D01*
X198246Y199091D01*
X198281Y199031D01*
X198313Y198969D01*
X198341Y198905D01*
X198366Y198840D01*
X198387Y198774D01*
X198405Y198706D01*
X198418Y198638D01*
X198428Y198569D01*
X198434Y198500D01*
X198436Y198430D01*
X198434Y198360D01*
X198428Y198291D01*
X198418Y198222D01*
X198405Y198154D01*
X198387Y198086D01*
X198366Y198020D01*
X198341Y197955D01*
X198313Y197891D01*
X198281Y197829D01*
X198246Y197769D01*
X198207Y197711D01*
X198165Y197656D01*
X198120Y197602D01*
X198072Y197552D01*
X198022Y197504D01*
X197968Y197459D01*
X197913Y197417D01*
X197855Y197378D01*
X197795Y197343D01*
X197733Y197311D01*
X197669Y197283D01*
X197604Y197258D01*
X197538Y197237D01*
X197470Y197219D01*
X197402Y197206D01*
X197333Y197196D01*
X197264Y197190D01*
X197194Y197188D01*
X201540Y202364D02*
X201540Y204227D01*
X201538Y204297D01*
X201532Y204366D01*
X201522Y204435D01*
X201509Y204503D01*
X201491Y204571D01*
X201470Y204637D01*
X201445Y204702D01*
X201417Y204766D01*
X201385Y204828D01*
X201350Y204888D01*
X201311Y204946D01*
X201269Y205001D01*
X201224Y205055D01*
X201176Y205105D01*
X201126Y205153D01*
X201072Y205198D01*
X201017Y205240D01*
X200959Y205279D01*
X200899Y205314D01*
X200837Y205346D01*
X200773Y205374D01*
X200708Y205399D01*
X200642Y205420D01*
X200574Y205438D01*
X200506Y205451D01*
X200437Y205461D01*
X200368Y205467D01*
X200298Y205469D01*
X200298Y205468D02*
X199677Y205468D01*
X199677Y205469D02*
X199607Y205467D01*
X199538Y205461D01*
X199469Y205451D01*
X199401Y205438D01*
X199333Y205420D01*
X199267Y205399D01*
X199202Y205374D01*
X199138Y205346D01*
X199076Y205314D01*
X199016Y205279D01*
X198958Y205240D01*
X198903Y205198D01*
X198849Y205153D01*
X198799Y205105D01*
X198751Y205055D01*
X198706Y205001D01*
X198664Y204946D01*
X198625Y204888D01*
X198590Y204828D01*
X198558Y204766D01*
X198530Y204702D01*
X198505Y204637D01*
X198484Y204571D01*
X198466Y204503D01*
X198453Y204435D01*
X198443Y204366D01*
X198437Y204297D01*
X198435Y204227D01*
X198436Y204227D02*
X198436Y202364D01*
X195952Y202364D01*
X195952Y205468D01*
D12*
X211719Y149748D02*
X216545Y149748D01*
X211719Y149748D02*
X211719Y151089D01*
X211721Y151160D01*
X211727Y151232D01*
X211736Y151302D01*
X211749Y151372D01*
X211766Y151442D01*
X211787Y151510D01*
X211811Y151577D01*
X211839Y151643D01*
X211870Y151707D01*
X211905Y151770D01*
X211943Y151830D01*
X211984Y151889D01*
X212028Y151945D01*
X212075Y151999D01*
X212124Y152050D01*
X212177Y152098D01*
X212232Y152144D01*
X212289Y152186D01*
X212349Y152226D01*
X212410Y152262D01*
X212474Y152295D01*
X212539Y152324D01*
X212605Y152350D01*
X212673Y152373D01*
X212742Y152392D01*
X212812Y152407D01*
X212882Y152418D01*
X212953Y152426D01*
X213024Y152430D01*
X213096Y152430D01*
X213167Y152426D01*
X213238Y152418D01*
X213308Y152407D01*
X213378Y152392D01*
X213447Y152373D01*
X213515Y152350D01*
X213581Y152324D01*
X213646Y152295D01*
X213710Y152262D01*
X213771Y152226D01*
X213831Y152186D01*
X213888Y152144D01*
X213943Y152098D01*
X213996Y152050D01*
X214045Y151999D01*
X214092Y151945D01*
X214136Y151889D01*
X214177Y151830D01*
X214215Y151770D01*
X214250Y151707D01*
X214281Y151643D01*
X214309Y151577D01*
X214333Y151510D01*
X214354Y151442D01*
X214371Y151372D01*
X214384Y151302D01*
X214393Y151232D01*
X214399Y151160D01*
X214401Y151089D01*
X214400Y151089D02*
X214400Y149748D01*
X214400Y151357D02*
X216545Y152429D01*
X215473Y155171D02*
X211719Y156243D01*
X215473Y155171D02*
X215473Y157852D01*
X214400Y157048D02*
X216545Y157048D01*
X264219Y149448D02*
X269045Y149448D01*
X264219Y149448D02*
X264219Y150789D01*
X264221Y150860D01*
X264227Y150932D01*
X264236Y151002D01*
X264249Y151072D01*
X264266Y151142D01*
X264287Y151210D01*
X264311Y151277D01*
X264339Y151343D01*
X264370Y151407D01*
X264405Y151470D01*
X264443Y151530D01*
X264484Y151589D01*
X264528Y151645D01*
X264575Y151699D01*
X264624Y151750D01*
X264677Y151798D01*
X264732Y151844D01*
X264789Y151886D01*
X264849Y151926D01*
X264910Y151962D01*
X264974Y151995D01*
X265039Y152024D01*
X265105Y152050D01*
X265173Y152073D01*
X265242Y152092D01*
X265312Y152107D01*
X265382Y152118D01*
X265453Y152126D01*
X265524Y152130D01*
X265596Y152130D01*
X265667Y152126D01*
X265738Y152118D01*
X265808Y152107D01*
X265878Y152092D01*
X265947Y152073D01*
X266015Y152050D01*
X266081Y152024D01*
X266146Y151995D01*
X266210Y151962D01*
X266271Y151926D01*
X266331Y151886D01*
X266388Y151844D01*
X266443Y151798D01*
X266496Y151750D01*
X266545Y151699D01*
X266592Y151645D01*
X266636Y151589D01*
X266677Y151530D01*
X266715Y151470D01*
X266750Y151407D01*
X266781Y151343D01*
X266809Y151277D01*
X266833Y151210D01*
X266854Y151142D01*
X266871Y151072D01*
X266884Y151002D01*
X266893Y150932D01*
X266899Y150860D01*
X266901Y150789D01*
X266900Y150789D02*
X266900Y149448D01*
X266900Y151057D02*
X269045Y152129D01*
X269045Y154871D02*
X269045Y156479D01*
X269043Y156544D01*
X269037Y156608D01*
X269027Y156672D01*
X269014Y156736D01*
X268996Y156798D01*
X268975Y156859D01*
X268951Y156919D01*
X268922Y156977D01*
X268890Y157034D01*
X268855Y157088D01*
X268817Y157140D01*
X268775Y157190D01*
X268731Y157237D01*
X268684Y157281D01*
X268634Y157323D01*
X268582Y157361D01*
X268528Y157396D01*
X268471Y157428D01*
X268413Y157457D01*
X268353Y157481D01*
X268292Y157502D01*
X268230Y157520D01*
X268166Y157533D01*
X268102Y157543D01*
X268038Y157549D01*
X267973Y157551D01*
X267973Y157552D02*
X267436Y157552D01*
X267436Y157551D02*
X267371Y157549D01*
X267307Y157543D01*
X267243Y157533D01*
X267179Y157520D01*
X267117Y157502D01*
X267056Y157481D01*
X266996Y157457D01*
X266938Y157428D01*
X266881Y157396D01*
X266827Y157361D01*
X266775Y157323D01*
X266725Y157281D01*
X266678Y157237D01*
X266634Y157190D01*
X266592Y157140D01*
X266554Y157088D01*
X266519Y157034D01*
X266487Y156977D01*
X266458Y156919D01*
X266434Y156859D01*
X266413Y156798D01*
X266395Y156736D01*
X266382Y156672D01*
X266372Y156608D01*
X266366Y156544D01*
X266364Y156479D01*
X266364Y154871D01*
X264219Y154871D01*
X264219Y157552D01*
X282419Y149248D02*
X287245Y149248D01*
X282419Y149248D02*
X282419Y150589D01*
X282421Y150660D01*
X282427Y150732D01*
X282436Y150802D01*
X282449Y150872D01*
X282466Y150942D01*
X282487Y151010D01*
X282511Y151077D01*
X282539Y151143D01*
X282570Y151207D01*
X282605Y151270D01*
X282643Y151330D01*
X282684Y151389D01*
X282728Y151445D01*
X282775Y151499D01*
X282824Y151550D01*
X282877Y151598D01*
X282932Y151644D01*
X282989Y151686D01*
X283049Y151726D01*
X283110Y151762D01*
X283174Y151795D01*
X283239Y151824D01*
X283305Y151850D01*
X283373Y151873D01*
X283442Y151892D01*
X283512Y151907D01*
X283582Y151918D01*
X283653Y151926D01*
X283724Y151930D01*
X283796Y151930D01*
X283867Y151926D01*
X283938Y151918D01*
X284008Y151907D01*
X284078Y151892D01*
X284147Y151873D01*
X284215Y151850D01*
X284281Y151824D01*
X284346Y151795D01*
X284410Y151762D01*
X284471Y151726D01*
X284531Y151686D01*
X284588Y151644D01*
X284643Y151598D01*
X284696Y151550D01*
X284745Y151499D01*
X284792Y151445D01*
X284836Y151389D01*
X284877Y151330D01*
X284915Y151270D01*
X284950Y151207D01*
X284981Y151143D01*
X285009Y151077D01*
X285033Y151010D01*
X285054Y150942D01*
X285071Y150872D01*
X285084Y150802D01*
X285093Y150732D01*
X285099Y150660D01*
X285101Y150589D01*
X285100Y150589D02*
X285100Y149248D01*
X285100Y150857D02*
X287245Y151929D01*
X284564Y154671D02*
X284564Y156279D01*
X284566Y156344D01*
X284572Y156408D01*
X284582Y156472D01*
X284595Y156536D01*
X284613Y156598D01*
X284634Y156659D01*
X284658Y156719D01*
X284687Y156777D01*
X284719Y156834D01*
X284754Y156888D01*
X284792Y156940D01*
X284834Y156990D01*
X284878Y157037D01*
X284925Y157081D01*
X284975Y157123D01*
X285027Y157161D01*
X285081Y157196D01*
X285138Y157228D01*
X285196Y157257D01*
X285256Y157281D01*
X285317Y157302D01*
X285379Y157320D01*
X285443Y157333D01*
X285507Y157343D01*
X285571Y157349D01*
X285636Y157351D01*
X285636Y157352D02*
X285904Y157352D01*
X285975Y157350D01*
X286047Y157344D01*
X286117Y157335D01*
X286187Y157322D01*
X286257Y157305D01*
X286325Y157284D01*
X286392Y157260D01*
X286458Y157232D01*
X286522Y157201D01*
X286585Y157166D01*
X286645Y157128D01*
X286704Y157087D01*
X286760Y157043D01*
X286814Y156996D01*
X286865Y156947D01*
X286913Y156894D01*
X286959Y156839D01*
X287001Y156782D01*
X287041Y156722D01*
X287077Y156661D01*
X287110Y156597D01*
X287139Y156532D01*
X287165Y156466D01*
X287188Y156398D01*
X287207Y156329D01*
X287222Y156259D01*
X287233Y156189D01*
X287241Y156118D01*
X287245Y156047D01*
X287245Y155975D01*
X287241Y155904D01*
X287233Y155833D01*
X287222Y155763D01*
X287207Y155693D01*
X287188Y155624D01*
X287165Y155556D01*
X287139Y155490D01*
X287110Y155425D01*
X287077Y155361D01*
X287041Y155300D01*
X287001Y155240D01*
X286959Y155183D01*
X286913Y155128D01*
X286865Y155075D01*
X286814Y155026D01*
X286760Y154979D01*
X286704Y154935D01*
X286645Y154894D01*
X286585Y154856D01*
X286522Y154821D01*
X286458Y154790D01*
X286392Y154762D01*
X286325Y154738D01*
X286257Y154717D01*
X286187Y154700D01*
X286117Y154687D01*
X286047Y154678D01*
X285975Y154672D01*
X285904Y154670D01*
X285904Y154671D02*
X284564Y154671D01*
X284473Y154673D01*
X284382Y154679D01*
X284292Y154688D01*
X284201Y154702D01*
X284112Y154719D01*
X284024Y154740D01*
X283936Y154765D01*
X283849Y154794D01*
X283764Y154826D01*
X283680Y154861D01*
X283598Y154901D01*
X283518Y154943D01*
X283439Y154989D01*
X283363Y155039D01*
X283289Y155091D01*
X283216Y155147D01*
X283147Y155206D01*
X283080Y155267D01*
X283015Y155332D01*
X282954Y155399D01*
X282895Y155468D01*
X282839Y155540D01*
X282787Y155615D01*
X282737Y155691D01*
X282691Y155770D01*
X282649Y155850D01*
X282609Y155932D01*
X282574Y156016D01*
X282542Y156101D01*
X282513Y156188D01*
X282488Y156275D01*
X282467Y156364D01*
X282450Y156453D01*
X282436Y156543D01*
X282427Y156634D01*
X282421Y156725D01*
X282419Y156816D01*
X298919Y148948D02*
X303745Y148948D01*
X298919Y148948D02*
X298919Y150289D01*
X298921Y150360D01*
X298927Y150432D01*
X298936Y150502D01*
X298949Y150572D01*
X298966Y150642D01*
X298987Y150710D01*
X299011Y150777D01*
X299039Y150843D01*
X299070Y150907D01*
X299105Y150970D01*
X299143Y151030D01*
X299184Y151089D01*
X299228Y151145D01*
X299275Y151199D01*
X299324Y151250D01*
X299377Y151298D01*
X299432Y151344D01*
X299489Y151386D01*
X299549Y151426D01*
X299610Y151462D01*
X299674Y151495D01*
X299739Y151524D01*
X299805Y151550D01*
X299873Y151573D01*
X299942Y151592D01*
X300012Y151607D01*
X300082Y151618D01*
X300153Y151626D01*
X300224Y151630D01*
X300296Y151630D01*
X300367Y151626D01*
X300438Y151618D01*
X300508Y151607D01*
X300578Y151592D01*
X300647Y151573D01*
X300715Y151550D01*
X300781Y151524D01*
X300846Y151495D01*
X300910Y151462D01*
X300971Y151426D01*
X301031Y151386D01*
X301088Y151344D01*
X301143Y151298D01*
X301196Y151250D01*
X301245Y151199D01*
X301292Y151145D01*
X301336Y151089D01*
X301377Y151030D01*
X301415Y150970D01*
X301450Y150907D01*
X301481Y150843D01*
X301509Y150777D01*
X301533Y150710D01*
X301554Y150642D01*
X301571Y150572D01*
X301584Y150502D01*
X301593Y150432D01*
X301599Y150360D01*
X301601Y150289D01*
X301600Y150289D02*
X301600Y148948D01*
X301600Y150557D02*
X303745Y151629D01*
X299455Y154371D02*
X298919Y154371D01*
X298919Y157052D01*
X303745Y155711D01*
X315919Y148548D02*
X320745Y148548D01*
X315919Y148548D02*
X315919Y149889D01*
X315921Y149960D01*
X315927Y150032D01*
X315936Y150102D01*
X315949Y150172D01*
X315966Y150242D01*
X315987Y150310D01*
X316011Y150377D01*
X316039Y150443D01*
X316070Y150507D01*
X316105Y150570D01*
X316143Y150630D01*
X316184Y150689D01*
X316228Y150745D01*
X316275Y150799D01*
X316324Y150850D01*
X316377Y150898D01*
X316432Y150944D01*
X316489Y150986D01*
X316549Y151026D01*
X316610Y151062D01*
X316674Y151095D01*
X316739Y151124D01*
X316805Y151150D01*
X316873Y151173D01*
X316942Y151192D01*
X317012Y151207D01*
X317082Y151218D01*
X317153Y151226D01*
X317224Y151230D01*
X317296Y151230D01*
X317367Y151226D01*
X317438Y151218D01*
X317508Y151207D01*
X317578Y151192D01*
X317647Y151173D01*
X317715Y151150D01*
X317781Y151124D01*
X317846Y151095D01*
X317910Y151062D01*
X317971Y151026D01*
X318031Y150986D01*
X318088Y150944D01*
X318143Y150898D01*
X318196Y150850D01*
X318245Y150799D01*
X318292Y150745D01*
X318336Y150689D01*
X318377Y150630D01*
X318415Y150570D01*
X318450Y150507D01*
X318481Y150443D01*
X318509Y150377D01*
X318533Y150310D01*
X318554Y150242D01*
X318571Y150172D01*
X318584Y150102D01*
X318593Y150032D01*
X318599Y149960D01*
X318601Y149889D01*
X318600Y149889D02*
X318600Y148548D01*
X318600Y150157D02*
X320745Y151229D01*
X319404Y153970D02*
X319333Y153972D01*
X319261Y153978D01*
X319191Y153987D01*
X319121Y154000D01*
X319051Y154017D01*
X318983Y154038D01*
X318916Y154062D01*
X318850Y154090D01*
X318786Y154121D01*
X318723Y154156D01*
X318663Y154194D01*
X318604Y154235D01*
X318548Y154279D01*
X318494Y154326D01*
X318443Y154375D01*
X318395Y154428D01*
X318349Y154483D01*
X318307Y154540D01*
X318267Y154600D01*
X318231Y154661D01*
X318198Y154725D01*
X318169Y154790D01*
X318143Y154856D01*
X318120Y154924D01*
X318101Y154993D01*
X318086Y155063D01*
X318075Y155133D01*
X318067Y155204D01*
X318063Y155275D01*
X318063Y155347D01*
X318067Y155418D01*
X318075Y155489D01*
X318086Y155559D01*
X318101Y155629D01*
X318120Y155698D01*
X318143Y155766D01*
X318169Y155832D01*
X318198Y155897D01*
X318231Y155961D01*
X318267Y156022D01*
X318307Y156082D01*
X318349Y156139D01*
X318395Y156194D01*
X318443Y156247D01*
X318494Y156296D01*
X318548Y156343D01*
X318604Y156387D01*
X318663Y156428D01*
X318723Y156466D01*
X318786Y156501D01*
X318850Y156532D01*
X318916Y156560D01*
X318983Y156584D01*
X319051Y156605D01*
X319121Y156622D01*
X319191Y156635D01*
X319261Y156644D01*
X319333Y156650D01*
X319404Y156652D01*
X319475Y156650D01*
X319547Y156644D01*
X319617Y156635D01*
X319687Y156622D01*
X319757Y156605D01*
X319825Y156584D01*
X319892Y156560D01*
X319958Y156532D01*
X320022Y156501D01*
X320085Y156466D01*
X320145Y156428D01*
X320204Y156387D01*
X320260Y156343D01*
X320314Y156296D01*
X320365Y156247D01*
X320413Y156194D01*
X320459Y156139D01*
X320501Y156082D01*
X320541Y156022D01*
X320577Y155961D01*
X320610Y155897D01*
X320639Y155832D01*
X320665Y155766D01*
X320688Y155698D01*
X320707Y155629D01*
X320722Y155559D01*
X320733Y155489D01*
X320741Y155418D01*
X320745Y155347D01*
X320745Y155275D01*
X320741Y155204D01*
X320733Y155133D01*
X320722Y155063D01*
X320707Y154993D01*
X320688Y154924D01*
X320665Y154856D01*
X320639Y154790D01*
X320610Y154725D01*
X320577Y154661D01*
X320541Y154600D01*
X320501Y154540D01*
X320459Y154483D01*
X320413Y154428D01*
X320365Y154375D01*
X320314Y154326D01*
X320260Y154279D01*
X320204Y154235D01*
X320145Y154194D01*
X320085Y154156D01*
X320022Y154121D01*
X319958Y154090D01*
X319892Y154062D01*
X319825Y154038D01*
X319757Y154017D01*
X319687Y154000D01*
X319617Y153987D01*
X319547Y153978D01*
X319475Y153972D01*
X319404Y153970D01*
X316991Y154239D02*
X316926Y154241D01*
X316862Y154247D01*
X316798Y154257D01*
X316734Y154270D01*
X316672Y154288D01*
X316611Y154309D01*
X316551Y154333D01*
X316493Y154362D01*
X316436Y154394D01*
X316382Y154429D01*
X316330Y154467D01*
X316280Y154509D01*
X316233Y154553D01*
X316189Y154600D01*
X316147Y154650D01*
X316109Y154702D01*
X316074Y154756D01*
X316042Y154813D01*
X316013Y154871D01*
X315989Y154931D01*
X315968Y154992D01*
X315950Y155054D01*
X315937Y155118D01*
X315927Y155182D01*
X315921Y155246D01*
X315919Y155311D01*
X315921Y155376D01*
X315927Y155440D01*
X315937Y155504D01*
X315950Y155568D01*
X315968Y155630D01*
X315989Y155691D01*
X316013Y155751D01*
X316042Y155809D01*
X316074Y155866D01*
X316109Y155920D01*
X316147Y155972D01*
X316189Y156022D01*
X316233Y156069D01*
X316280Y156113D01*
X316330Y156155D01*
X316382Y156193D01*
X316436Y156228D01*
X316493Y156260D01*
X316551Y156289D01*
X316611Y156313D01*
X316672Y156334D01*
X316734Y156352D01*
X316798Y156365D01*
X316862Y156375D01*
X316926Y156381D01*
X316991Y156383D01*
X317056Y156381D01*
X317120Y156375D01*
X317184Y156365D01*
X317248Y156352D01*
X317310Y156334D01*
X317371Y156313D01*
X317431Y156289D01*
X317489Y156260D01*
X317546Y156228D01*
X317600Y156193D01*
X317652Y156155D01*
X317702Y156113D01*
X317749Y156069D01*
X317793Y156022D01*
X317835Y155972D01*
X317873Y155920D01*
X317908Y155866D01*
X317940Y155809D01*
X317969Y155751D01*
X317993Y155691D01*
X318014Y155630D01*
X318032Y155568D01*
X318045Y155504D01*
X318055Y155440D01*
X318061Y155376D01*
X318063Y155311D01*
X318061Y155246D01*
X318055Y155182D01*
X318045Y155118D01*
X318032Y155054D01*
X318014Y154992D01*
X317993Y154931D01*
X317969Y154871D01*
X317940Y154813D01*
X317908Y154756D01*
X317873Y154702D01*
X317835Y154650D01*
X317793Y154600D01*
X317749Y154553D01*
X317702Y154509D01*
X317652Y154467D01*
X317600Y154429D01*
X317546Y154394D01*
X317489Y154362D01*
X317431Y154333D01*
X317371Y154309D01*
X317310Y154288D01*
X317248Y154270D01*
X317184Y154257D01*
X317120Y154247D01*
X317056Y154241D01*
X316991Y154239D01*
X242545Y149348D02*
X237719Y149348D01*
X237719Y150689D01*
X237721Y150760D01*
X237727Y150832D01*
X237736Y150902D01*
X237749Y150972D01*
X237766Y151042D01*
X237787Y151110D01*
X237811Y151177D01*
X237839Y151243D01*
X237870Y151307D01*
X237905Y151370D01*
X237943Y151430D01*
X237984Y151489D01*
X238028Y151545D01*
X238075Y151599D01*
X238124Y151650D01*
X238177Y151698D01*
X238232Y151744D01*
X238289Y151786D01*
X238349Y151826D01*
X238410Y151862D01*
X238474Y151895D01*
X238539Y151924D01*
X238605Y151950D01*
X238673Y151973D01*
X238742Y151992D01*
X238812Y152007D01*
X238882Y152018D01*
X238953Y152026D01*
X239024Y152030D01*
X239096Y152030D01*
X239167Y152026D01*
X239238Y152018D01*
X239308Y152007D01*
X239378Y151992D01*
X239447Y151973D01*
X239515Y151950D01*
X239581Y151924D01*
X239646Y151895D01*
X239710Y151862D01*
X239771Y151826D01*
X239831Y151786D01*
X239888Y151744D01*
X239943Y151698D01*
X239996Y151650D01*
X240045Y151599D01*
X240092Y151545D01*
X240136Y151489D01*
X240177Y151430D01*
X240215Y151370D01*
X240250Y151307D01*
X240281Y151243D01*
X240309Y151177D01*
X240333Y151110D01*
X240354Y151042D01*
X240371Y150972D01*
X240384Y150902D01*
X240393Y150832D01*
X240399Y150760D01*
X240401Y150689D01*
X240400Y150689D02*
X240400Y149348D01*
X240400Y150957D02*
X242545Y152029D01*
X240400Y155843D02*
X240400Y157452D01*
X240400Y155843D02*
X240398Y155778D01*
X240392Y155714D01*
X240382Y155650D01*
X240369Y155586D01*
X240351Y155524D01*
X240330Y155463D01*
X240306Y155403D01*
X240277Y155345D01*
X240245Y155288D01*
X240210Y155234D01*
X240172Y155182D01*
X240130Y155132D01*
X240086Y155085D01*
X240039Y155041D01*
X239989Y154999D01*
X239937Y154961D01*
X239883Y154926D01*
X239826Y154894D01*
X239768Y154865D01*
X239708Y154841D01*
X239647Y154820D01*
X239585Y154802D01*
X239521Y154789D01*
X239457Y154779D01*
X239393Y154773D01*
X239328Y154771D01*
X239060Y154771D01*
X239060Y154770D02*
X238989Y154772D01*
X238917Y154778D01*
X238847Y154787D01*
X238777Y154800D01*
X238707Y154817D01*
X238639Y154838D01*
X238572Y154862D01*
X238506Y154890D01*
X238442Y154921D01*
X238379Y154956D01*
X238319Y154994D01*
X238260Y155035D01*
X238204Y155079D01*
X238150Y155126D01*
X238099Y155175D01*
X238051Y155228D01*
X238005Y155283D01*
X237963Y155340D01*
X237923Y155400D01*
X237887Y155461D01*
X237854Y155525D01*
X237825Y155590D01*
X237799Y155656D01*
X237776Y155724D01*
X237757Y155793D01*
X237742Y155863D01*
X237731Y155933D01*
X237723Y156004D01*
X237719Y156075D01*
X237719Y156147D01*
X237723Y156218D01*
X237731Y156289D01*
X237742Y156359D01*
X237757Y156429D01*
X237776Y156498D01*
X237799Y156566D01*
X237825Y156632D01*
X237854Y156697D01*
X237887Y156761D01*
X237923Y156822D01*
X237963Y156882D01*
X238005Y156939D01*
X238051Y156994D01*
X238099Y157047D01*
X238150Y157096D01*
X238204Y157143D01*
X238260Y157187D01*
X238319Y157228D01*
X238379Y157266D01*
X238442Y157301D01*
X238506Y157332D01*
X238572Y157360D01*
X238639Y157384D01*
X238707Y157405D01*
X238777Y157422D01*
X238847Y157435D01*
X238917Y157444D01*
X238989Y157450D01*
X239060Y157452D01*
X240400Y157452D01*
X240491Y157450D01*
X240582Y157444D01*
X240672Y157435D01*
X240763Y157421D01*
X240852Y157404D01*
X240940Y157383D01*
X241028Y157358D01*
X241115Y157329D01*
X241200Y157297D01*
X241284Y157262D01*
X241366Y157222D01*
X241446Y157180D01*
X241525Y157134D01*
X241601Y157084D01*
X241675Y157032D01*
X241748Y156976D01*
X241817Y156917D01*
X241884Y156856D01*
X241949Y156791D01*
X242010Y156724D01*
X242069Y156655D01*
X242125Y156582D01*
X242177Y156508D01*
X242227Y156432D01*
X242273Y156353D01*
X242315Y156273D01*
X242355Y156191D01*
X242390Y156107D01*
X242422Y156022D01*
X242451Y155935D01*
X242476Y155847D01*
X242497Y155759D01*
X242514Y155670D01*
X242528Y155579D01*
X242537Y155489D01*
X242543Y155398D01*
X242545Y155307D01*
D14*
X276200Y49050D02*
X301600Y49050D01*
X276200Y49050D02*
X276200Y23650D01*
X301600Y23650D01*
X301600Y49050D01*
D15*
X288900Y17300D02*
X288900Y-39850D01*
D14*
X276200Y49050D02*
X250800Y49050D01*
X250800Y23650D01*
X276200Y23650D01*
D15*
X263500Y17300D02*
X263500Y-39850D01*
D14*
X250800Y49050D02*
X225400Y49050D01*
X225400Y23650D01*
X250800Y23650D01*
D15*
X238100Y17300D02*
X238100Y-39850D01*
D14*
X225400Y49050D02*
X200000Y49050D01*
X200000Y23650D01*
X225400Y23650D01*
D15*
X212700Y17300D02*
X212700Y-39850D01*
D14*
X200000Y49050D02*
X174600Y49050D01*
X174600Y23650D01*
X200000Y23650D01*
D15*
X187300Y17300D02*
X187300Y-39850D01*
D14*
X174600Y49050D02*
X149200Y49050D01*
X149200Y23650D01*
X174600Y23650D01*
D15*
X161900Y17300D02*
X161900Y-39850D01*
D14*
X149200Y49050D02*
X123800Y49050D01*
X123800Y23650D01*
X149200Y23650D01*
D15*
X136500Y17300D02*
X136500Y-39850D01*
D14*
X123800Y49050D02*
X98400Y49050D01*
X98400Y23650D01*
X123800Y23650D01*
D15*
X111100Y17300D02*
X111100Y-39850D01*
D16*
X288900Y21110D03*
X263500Y21110D03*
X238100Y21110D03*
X212700Y21110D03*
X187300Y21110D03*
X161900Y21110D03*
X136500Y21110D03*
X111100Y21110D03*
D17*
X288900Y54130D03*
X263500Y54130D03*
X238100Y54130D03*
X212700Y54130D03*
X187300Y54130D03*
X161900Y54130D03*
X136500Y54130D03*
X111100Y54130D03*
D14*
X39050Y91500D02*
X39050Y116900D01*
X13650Y116900D01*
X13650Y91500D01*
X39050Y91500D01*
D15*
X7300Y104200D02*
X-49850Y104200D01*
D14*
X39050Y116900D02*
X39050Y142300D01*
X13650Y142300D01*
X13650Y116900D01*
D15*
X7300Y129600D02*
X-49850Y129600D01*
D14*
X39050Y142300D02*
X39050Y167700D01*
X13650Y167700D01*
X13650Y142300D01*
D15*
X7300Y155000D02*
X-49850Y155000D01*
D14*
X39050Y167700D02*
X39050Y193100D01*
X13650Y193100D01*
X13650Y167700D01*
D15*
X7300Y180400D02*
X-49850Y180400D01*
D14*
X39050Y193100D02*
X39050Y218500D01*
X13650Y218500D01*
X13650Y193100D01*
D15*
X7300Y205800D02*
X-49850Y205800D01*
D18*
X11110Y104200D03*
X11110Y129600D03*
X11110Y155000D03*
X11110Y180400D03*
X11110Y205800D03*
D19*
X44130Y104200D03*
X44130Y129600D03*
X44130Y155000D03*
X44130Y180400D03*
X44130Y205800D03*
D14*
X365950Y218500D02*
X365950Y193100D01*
X391350Y193100D01*
X391350Y218500D01*
X365950Y218500D01*
D15*
X397700Y205800D02*
X454850Y205800D01*
D14*
X365950Y193100D02*
X365950Y167700D01*
X391350Y167700D01*
X391350Y193100D01*
D15*
X397700Y180400D02*
X454850Y180400D01*
D14*
X365950Y167700D02*
X365950Y142300D01*
X391350Y142300D01*
X391350Y167700D01*
D15*
X397700Y155000D02*
X454850Y155000D01*
D14*
X365950Y142300D02*
X365950Y116900D01*
X391350Y116900D01*
X391350Y142300D01*
D15*
X397700Y129600D02*
X454850Y129600D01*
D14*
X365950Y116900D02*
X365950Y91500D01*
X391350Y91500D01*
X391350Y116900D01*
D15*
X397700Y104200D02*
X454850Y104200D01*
D18*
X393890Y205800D03*
X393890Y180400D03*
X393890Y155000D03*
X393890Y129600D03*
X393890Y104200D03*
D19*
X360870Y205800D03*
X360870Y180400D03*
X360870Y155000D03*
X360870Y129600D03*
X360870Y104200D03*
D12*
X54948Y232855D02*
X54948Y237681D01*
X56289Y237681D01*
X56360Y237679D01*
X56432Y237673D01*
X56502Y237664D01*
X56572Y237651D01*
X56642Y237634D01*
X56710Y237613D01*
X56777Y237589D01*
X56843Y237561D01*
X56907Y237530D01*
X56970Y237495D01*
X57030Y237457D01*
X57089Y237416D01*
X57145Y237372D01*
X57199Y237325D01*
X57250Y237276D01*
X57298Y237223D01*
X57344Y237168D01*
X57386Y237111D01*
X57426Y237051D01*
X57462Y236990D01*
X57495Y236926D01*
X57524Y236861D01*
X57550Y236795D01*
X57573Y236727D01*
X57592Y236658D01*
X57607Y236588D01*
X57618Y236518D01*
X57626Y236447D01*
X57630Y236376D01*
X57630Y236304D01*
X57626Y236233D01*
X57618Y236162D01*
X57607Y236092D01*
X57592Y236022D01*
X57573Y235953D01*
X57550Y235885D01*
X57524Y235819D01*
X57495Y235754D01*
X57462Y235690D01*
X57426Y235629D01*
X57386Y235569D01*
X57344Y235512D01*
X57298Y235457D01*
X57250Y235404D01*
X57199Y235355D01*
X57145Y235308D01*
X57089Y235264D01*
X57030Y235223D01*
X56970Y235185D01*
X56907Y235150D01*
X56843Y235119D01*
X56777Y235091D01*
X56710Y235067D01*
X56642Y235046D01*
X56572Y235029D01*
X56502Y235016D01*
X56432Y235007D01*
X56360Y235001D01*
X56289Y234999D01*
X56289Y235000D02*
X54948Y235000D01*
X56557Y235000D02*
X57629Y232855D01*
X60371Y236609D02*
X61711Y237681D01*
X61711Y232855D01*
X60371Y232855D02*
X63052Y232855D01*
X310500Y266500D02*
X321500Y255500D01*
X310500Y266500D02*
X268500Y266500D01*
X268500Y213500D02*
X310500Y213500D01*
X321500Y224500D01*
X321500Y228800D01*
X321500Y251200D02*
X321500Y255500D01*
X268500Y228800D02*
X268500Y213500D01*
X268500Y251200D02*
X268500Y266500D01*
D20*
X335500Y226500D02*
X335502Y226563D01*
X335508Y226625D01*
X335518Y226687D01*
X335531Y226749D01*
X335549Y226809D01*
X335570Y226868D01*
X335595Y226926D01*
X335624Y226982D01*
X335656Y227036D01*
X335691Y227088D01*
X335729Y227137D01*
X335771Y227185D01*
X335815Y227229D01*
X335863Y227271D01*
X335912Y227309D01*
X335964Y227344D01*
X336018Y227376D01*
X336074Y227405D01*
X336132Y227430D01*
X336191Y227451D01*
X336251Y227469D01*
X336313Y227482D01*
X336375Y227492D01*
X336437Y227498D01*
X336500Y227500D01*
X336563Y227498D01*
X336625Y227492D01*
X336687Y227482D01*
X336749Y227469D01*
X336809Y227451D01*
X336868Y227430D01*
X336926Y227405D01*
X336982Y227376D01*
X337036Y227344D01*
X337088Y227309D01*
X337137Y227271D01*
X337185Y227229D01*
X337229Y227185D01*
X337271Y227137D01*
X337309Y227088D01*
X337344Y227036D01*
X337376Y226982D01*
X337405Y226926D01*
X337430Y226868D01*
X337451Y226809D01*
X337469Y226749D01*
X337482Y226687D01*
X337492Y226625D01*
X337498Y226563D01*
X337500Y226500D01*
X337498Y226437D01*
X337492Y226375D01*
X337482Y226313D01*
X337469Y226251D01*
X337451Y226191D01*
X337430Y226132D01*
X337405Y226074D01*
X337376Y226018D01*
X337344Y225964D01*
X337309Y225912D01*
X337271Y225863D01*
X337229Y225815D01*
X337185Y225771D01*
X337137Y225729D01*
X337088Y225691D01*
X337036Y225656D01*
X336982Y225624D01*
X336926Y225595D01*
X336868Y225570D01*
X336809Y225549D01*
X336749Y225531D01*
X336687Y225518D01*
X336625Y225508D01*
X336563Y225502D01*
X336500Y225500D01*
X336437Y225502D01*
X336375Y225508D01*
X336313Y225518D01*
X336251Y225531D01*
X336191Y225549D01*
X336132Y225570D01*
X336074Y225595D01*
X336018Y225624D01*
X335964Y225656D01*
X335912Y225691D01*
X335863Y225729D01*
X335815Y225771D01*
X335771Y225815D01*
X335729Y225863D01*
X335691Y225912D01*
X335656Y225964D01*
X335624Y226018D01*
X335595Y226074D01*
X335570Y226132D01*
X335549Y226191D01*
X335531Y226251D01*
X335518Y226313D01*
X335508Y226375D01*
X335502Y226437D01*
X335500Y226500D01*
D21*
X304136Y193808D02*
X301539Y193808D01*
X301440Y193810D01*
X301340Y193816D01*
X301241Y193825D01*
X301143Y193838D01*
X301045Y193855D01*
X300947Y193876D01*
X300851Y193901D01*
X300756Y193929D01*
X300662Y193961D01*
X300569Y193996D01*
X300477Y194035D01*
X300387Y194078D01*
X300299Y194123D01*
X300212Y194173D01*
X300128Y194225D01*
X300045Y194281D01*
X299965Y194339D01*
X299887Y194401D01*
X299812Y194466D01*
X299739Y194534D01*
X299669Y194604D01*
X299601Y194677D01*
X299536Y194752D01*
X299474Y194830D01*
X299416Y194910D01*
X299360Y194993D01*
X299308Y195077D01*
X299258Y195164D01*
X299213Y195252D01*
X299170Y195342D01*
X299131Y195434D01*
X299096Y195527D01*
X299064Y195621D01*
X299036Y195716D01*
X299011Y195812D01*
X298990Y195910D01*
X298973Y196008D01*
X298960Y196106D01*
X298951Y196205D01*
X298945Y196305D01*
X298943Y196404D01*
X298943Y202896D01*
X298945Y202995D01*
X298951Y203095D01*
X298960Y203194D01*
X298973Y203292D01*
X298990Y203390D01*
X299011Y203488D01*
X299036Y203584D01*
X299064Y203679D01*
X299096Y203773D01*
X299131Y203866D01*
X299170Y203958D01*
X299213Y204048D01*
X299258Y204136D01*
X299308Y204223D01*
X299360Y204307D01*
X299416Y204390D01*
X299474Y204470D01*
X299536Y204548D01*
X299601Y204623D01*
X299669Y204696D01*
X299739Y204766D01*
X299812Y204834D01*
X299887Y204899D01*
X299965Y204961D01*
X300045Y205019D01*
X300128Y205075D01*
X300212Y205127D01*
X300299Y205177D01*
X300387Y205222D01*
X300477Y205265D01*
X300569Y205304D01*
X300661Y205339D01*
X300756Y205371D01*
X300851Y205399D01*
X300947Y205424D01*
X301045Y205445D01*
X301143Y205462D01*
X301241Y205475D01*
X301340Y205484D01*
X301440Y205490D01*
X301539Y205492D01*
X304136Y205492D01*
X308501Y202896D02*
X311746Y205492D01*
X311746Y193808D01*
X308501Y193808D02*
X314992Y193808D01*
D11*
X68697Y78431D02*
X68697Y76795D01*
X68695Y76717D01*
X68690Y76639D01*
X68680Y76562D01*
X68667Y76485D01*
X68651Y76409D01*
X68631Y76334D01*
X68607Y76260D01*
X68580Y76187D01*
X68549Y76115D01*
X68515Y76045D01*
X68478Y75977D01*
X68437Y75910D01*
X68393Y75845D01*
X68347Y75783D01*
X68297Y75723D01*
X68245Y75665D01*
X68190Y75610D01*
X68132Y75558D01*
X68072Y75508D01*
X68010Y75462D01*
X67945Y75418D01*
X67879Y75377D01*
X67810Y75340D01*
X67740Y75306D01*
X67668Y75275D01*
X67595Y75248D01*
X67521Y75224D01*
X67446Y75204D01*
X67370Y75188D01*
X67293Y75175D01*
X67216Y75165D01*
X67138Y75160D01*
X67060Y75158D01*
X62968Y75158D01*
X62888Y75160D01*
X62808Y75166D01*
X62728Y75176D01*
X62649Y75189D01*
X62570Y75207D01*
X62493Y75228D01*
X62417Y75254D01*
X62342Y75283D01*
X62268Y75315D01*
X62196Y75351D01*
X62126Y75391D01*
X62059Y75434D01*
X61993Y75480D01*
X61930Y75530D01*
X61869Y75582D01*
X61810Y75637D01*
X61755Y75696D01*
X61703Y75756D01*
X61653Y75820D01*
X61607Y75885D01*
X61564Y75953D01*
X61524Y76023D01*
X61488Y76095D01*
X61456Y76169D01*
X61427Y76243D01*
X61402Y76320D01*
X61380Y76397D01*
X61362Y76476D01*
X61349Y76555D01*
X61339Y76634D01*
X61333Y76715D01*
X61331Y76795D01*
X61331Y78431D01*
X61331Y83528D02*
X61333Y83613D01*
X61339Y83698D01*
X61349Y83782D01*
X61362Y83866D01*
X61380Y83950D01*
X61401Y84032D01*
X61426Y84113D01*
X61455Y84193D01*
X61488Y84272D01*
X61524Y84349D01*
X61564Y84424D01*
X61607Y84498D01*
X61653Y84569D01*
X61703Y84638D01*
X61756Y84705D01*
X61812Y84769D01*
X61871Y84830D01*
X61932Y84889D01*
X61996Y84945D01*
X62063Y84998D01*
X62132Y85048D01*
X62203Y85094D01*
X62277Y85137D01*
X62352Y85177D01*
X62429Y85213D01*
X62508Y85246D01*
X62588Y85275D01*
X62669Y85300D01*
X62751Y85321D01*
X62835Y85339D01*
X62919Y85352D01*
X63003Y85362D01*
X63088Y85368D01*
X63173Y85370D01*
X61331Y83528D02*
X61333Y83432D01*
X61339Y83336D01*
X61349Y83241D01*
X61362Y83146D01*
X61380Y83051D01*
X61401Y82958D01*
X61426Y82865D01*
X61455Y82774D01*
X61487Y82683D01*
X61523Y82594D01*
X61563Y82507D01*
X61606Y82421D01*
X61652Y82337D01*
X61702Y82255D01*
X61756Y82175D01*
X61812Y82098D01*
X61872Y82023D01*
X61934Y81950D01*
X62000Y81880D01*
X62068Y81812D01*
X62139Y81747D01*
X62212Y81686D01*
X62288Y81627D01*
X62367Y81571D01*
X62447Y81519D01*
X62530Y81470D01*
X62614Y81424D01*
X62700Y81382D01*
X62788Y81344D01*
X62877Y81309D01*
X62968Y81277D01*
X64605Y84755D02*
X64546Y84815D01*
X64484Y84872D01*
X64420Y84927D01*
X64353Y84978D01*
X64284Y85027D01*
X64214Y85073D01*
X64141Y85116D01*
X64067Y85156D01*
X63991Y85192D01*
X63913Y85225D01*
X63834Y85255D01*
X63754Y85282D01*
X63673Y85305D01*
X63591Y85324D01*
X63509Y85340D01*
X63425Y85353D01*
X63341Y85362D01*
X63257Y85367D01*
X63173Y85369D01*
X64605Y84755D02*
X68697Y81277D01*
X68697Y85369D01*
M02*
